  0
SECTION
  2
HEADER
  9
$ACADVER
  1
AC1015
  9
$ACADMAINTVER
 70
     6
  9
$DWGCODEPAGE
  3
ANSI_1252
  9
$INSBASE
 10
0.0
 20
0.0
 30
0.0
  9
$EXTMIN
 10
0.0
 20
0.0
 30
0.0
  9
$EXTMAX
 10
300.0
 20
200.0
 30
0.0
  9
$LIMMIN
 10
0.0
 20
0.0
  9
$LIMMAX
 10
300.0
 20
200.0
  9
$ORTHOMODE
 70
     0
  9
$REGENMODE
 70
     1
  9
$FILLMODE
 70
     1
  9
$QTEXTMODE
 70
     0
  9
$MIRRTEXT
 70
     1
  9
$LTSCALE
 40
1.0
  9
$ATTMODE
 70
     1
  9
$TEXTSIZE
 40
3.5
  9
$TRACEWID
 40
1.0
  9
$TEXTSTYLE
  7
Standard
  9
$CLAYER
  8
0
  9
$CELTYPE
  6
ByLayer
  9
$CECOLOR
 62
   256
  9
$CELTSCALE
 40
1.0
  9
$DISPSILH
 70
     0
  9
$DIMSCALE
 40
1.0
  9
$DIMASZ
 40
3.556
  9
$DIMEXO
 40
1.0
  9
$DIMDLI
 40
3.75
  9
$DIMRND
 40
0.0
  9
$DIMDLE
 40
0.0
  9
$DIMEXE
 40
1.0
  9
$DIMTP
 40
0.0
  9
$DIMTM
 40
0.0
  9
$DIMTXT
 40
3.5
  9
$DIMCEN
 40
2.5
  9
$DIMTSZ
 40
0.0
  9
$DIMTOL
 70
     0
  9
$DIMLIM
 70
     0
  9
$DIMTIH
 70
     1
  9
$DIMTOH
 70
     1
  9
$DIMSE1
 70
     0
  9
$DIMSE2
 70
     0
  9
$DIMTAD
 70
     1
  9
$DIMZIN
 70
     0
  9
$DIMBLK
  1

  9
$DIMASO
 70
     1
  9
$DIMSHO
 70
     1
  9
$DIMPOST
  1

  9
$DIMAPOST
  1

  9
$DIMALT
 70
     0
  9
$DIMALTD
 70
     3
  9
$DIMALTF
 40
0.0393700787
  9
$DIMLFAC
 40
1.0
  9
$DIMTOFL
 70
     1
  9
$DIMTVP
 40
0.0
  9
$DIMTIX
 70
     0
  9
$DIMSOXD
 70
     0
  9
$DIMSAH
 70
     0
  9
$DIMBLK1
  1

  9
$DIMBLK2
  1

  9
$DIMSTYLE
  2
ISO-25
  9
$DIMCLRD
 70
     0
  9
$DIMCLRE
 70
     0
  9
$DIMCLRT
 70
     0
  9
$DIMTFAC
 40
1.0
  9
$DIMGAP
 40
1.524
  9
$DIMJUST
 70
     0
  9
$DIMSD1
 70
     0
  9
$DIMSD2
 70
     0
  9
$DIMTOLJ
 70
     0
  9
$DIMTZIN
 70
     0
  9
$DIMALTZ
 70
     0
  9
$DIMALTTZ
 70
     0
  9
$DIMUPT
 70
     0
  9
$DIMDEC
 70
     2
  9
$DIMTDEC
 70
     2
  9
$DIMALTU
 70
     2
  9
$DIMALTTD
 70
     3
  9
$DIMTXSTY
  7
Standard
  9
$DIMAUNIT
 70
     0
  9
$DIMADEC
 70
     2
  9
$DIMALTRND
 40
0.0
  9
$DIMAZIN
 70
     0
  9
$DIMDSEP
 70
    44
  9
$DIMATFIT
 70
     3
  9
$DIMFRAC
 70
     0
  9
$DIMLDRBLK
  1

  9
$DIMLUNIT
 70
     2
  9
$DIMLWD
 70
    -2
  9
$DIMLWE
 70
    -2
  9
$DIMTMOVE
 70
     0
  9
$LUNITS
 70
     2
  9
$LUPREC
 70
     2
  9
$SKETCHINC
 40
1.0
  9
$FILLETRAD
 40
10.0
  9
$AUNITS
 70
     0
  9
$AUPREC
 70
     2
  9
$MENU
  1
.
  9
$ELEVATION
 40
0.0
  9
$PELEVATION
 40
0.0
  9
$THICKNESS
 40
0.0
  9
$LIMCHECK
 70
     0
  9
$CHAMFERA
 40
0.0
  9
$CHAMFERB
 40
0.0
  9
$CHAMFERC
 40
0.0
  9
$CHAMFERD
 40
0.0
  9
$SKPOLY
 70
     0
  9
$TDCREATE
 40
2457379.670489375
  9
$TDUCREATE
 40
2457379.628822709
  9
$TDUPDATE
 40
2457379.670490231
  9
$TDUUPDATE
 40
2457379.628823565
  9
$TDINDWG
 40
0.0000000116
  9
$TDUSRTIMER
 40
0.0000000116
  9
$USRTIMER
 70
     1
  9
$ANGBASE
 50
0.0
  9
$ANGDIR
 70
     0
  9
$PDMODE
 70
     0
  9
$PDSIZE
 40
-1.0
  9
$PLINEWID
 40
0.0
  9
$SPLFRAME
 70
     0
  9
$SPLINETYPE
 70
     6
  9
$SPLINESEGS
 70
     8
  9
$HANDSEED
  5
41E
  9
$SURFTAB1
 70
     6
  9
$SURFTAB2
 70
     6
  9
$SURFTYPE
 70
     6
  9
$SURFU
 70
     6
  9
$SURFV
 70
     6
  9
$UCSBASE
  2

  9
$UCSNAME
  2

  9
$UCSORG
 10
0.0
 20
0.0
 30
0.0
  9
$UCSXDIR
 10
1.0
 20
0.0
 30
0.0
  9
$UCSYDIR
 10
0.0
 20
1.0
 30
0.0
  9
$UCSORTHOREF
  2

  9
$UCSORTHOVIEW
 70
     0
  9
$UCSORGTOP
 10
0.0
 20
0.0
 30
0.0
  9
$UCSORGBOTTOM
 10
0.0
 20
0.0
 30
0.0
  9
$UCSORGLEFT
 10
0.0
 20
0.0
 30
0.0
  9
$UCSORGRIGHT
 10
0.0
 20
0.0
 30
0.0
  9
$UCSORGFRONT
 10
0.0
 20
0.0
 30
0.0
  9
$UCSORGBACK
 10
0.0
 20
0.0
 30
0.0
  9
$PUCSBASE
  2

  9
$PUCSNAME
  2

  9
$PUCSORG
 10
0.0
 20
0.0
 30
0.0
  9
$PUCSXDIR
 10
1.0
 20
0.0
 30
0.0
  9
$PUCSYDIR
 10
0.0
 20
1.0
 30
0.0
  9
$PUCSORTHOREF
  2

  9
$PUCSORTHOVIEW
 70
     0
  9
$PUCSORGTOP
 10
0.0
 20
0.0
 30
0.0
  9
$PUCSORGBOTTOM
 10
0.0
 20
0.0
 30
0.0
  9
$PUCSORGLEFT
 10
0.0
 20
0.0
 30
0.0
  9
$PUCSORGRIGHT
 10
0.0
 20
0.0
 30
0.0
  9
$PUCSORGFRONT
 10
0.0
 20
0.0
 30
0.0
  9
$PUCSORGBACK
 10
0.0
 20
0.0
 30
0.0
  9
$USERI1
 70
     0
  9
$USERI2
 70
     0
  9
$USERI3
 70
     0
  9
$USERI4
 70
     0
  9
$USERI5
 70
     0
  9
$USERR1
 40
0.0
  9
$USERR2
 40
0.0
  9
$USERR3
 40
0.0
  9
$USERR4
 40
0.0
  9
$USERR5
 40
0.0
  9
$WORLDVIEW
 70
     1
  9
$SHADEDGE
 70
     3
  9
$SHADEDIF
 70
    70
  9
$TILEMODE
 70
     1
  9
$MAXACTVP
 70
    64
  9
$PINSBASE
 10
0.0
 20
0.0
 30
0.0
  9
$PLIMCHECK
 70
     0
  9
$PEXTMIN
 10
1.0000000000E+20
 20
1.0000000000E+20
 30
1.0000000000E+20
  9
$PEXTMAX
 10
-1.0000000000E+20
 20
-1.0000000000E+20
 30
-1.0000000000E+20
  9
$PLIMMIN
 10
0.0
 20
0.0
  9
$PLIMMAX
 10
420.0
 20
297.0
  9
$UNITMODE
 70
     0
  9
$VISRETAIN
 70
     1
  9
$PLINEGEN
 70
     0
  9
$PSLTSCALE
 70
     1
  9
$TREEDEPTH
 70
  3020
  9
$CMLSTYLE
  2
Standard
  9
$CMLJUST
 70
     0
  9
$CMLSCALE
 40
20.0
  9
$PROXYGRAPHICS
 70
     1
  9
$MEASUREMENT
 70
     1
  9
$CELWEIGHT
370
    -1
  9
$ENDCAPS
280
     0
  9
$JOINSTYLE
280
     0
  9
$LWDISPLAY
290
     1
  9
$INSUNITS
 70
     4
  9
$HYPERLINKBASE
  1

  9
$STYLESHEET
  1

  9
$XEDIT
290
     1
  9
$CEPSNTYPE
380
     0
  9
$PSTYLEMODE
290
     1
  9
$FINGERPRINTGUID
  2
{22DC3C36-4C3B-4FC5-864D-07D82D9584FC}
  9
$VERSIONGUID
  2
{FAEB1C32-E019-11D5-929B-00C0DF256EC4}
  9
$EXTNAMES
290
     1
  9
$PSVPSCALE
 40
0.0
  9
$OLESTARTUP
290
     0
  0
ENDSEC
  0
SECTION
  2
CLASSES
  0
CLASS
  1
ACDBDICTIONARYWDFLT
  2
AcDbDictionaryWithDefault
  3
ObjectDBX Classes
 90
        0
280
     0
281
     0
  0
CLASS
  1
VISUALSTYLE
  2
AcDbVisualStyle
  3
ObjectDBX Classes
 90
     4095
280
     0
281
     0
  0
CLASS
  1
MATERIAL
  2
AcDbMaterial
  3
ObjectDBX Classes
 90
     1153
280
     0
281
     0
  0
CLASS
  1
SCALE
  2
AcDbScale
  3
ObjectDBX Classes
 90
     1153
280
     0
281
     0
  0
CLASS
  1
SUN
  2
AcDbSun
  3
SCENEOE
 90
     1153
280
     0
281
     0
  0
CLASS
  1
ACDBPLACEHOLDER
  2
AcDbPlaceHolder
  3
ObjectDBX Classes
 90
        0
280
     0
281
     0
  0
CLASS
  1
LAYOUT
  2
AcDbLayout
  3
ObjectDBX Classes
 90
        0
280
     0
281
     0
  0
ENDSEC
  0
SECTION
  2
TABLES
  0
TABLE
  2
VPORT
  5
8
330
0
100
AcDbSymbolTable
 70
     1
  0
VPORT
  5
29
330
8
100
AcDbSymbolTableRecord
100
AcDbViewportTableRecord
  2
*Active
 70
     0
 10
0.0
 20
0.0
 11
1.0
 21
1.0
 12
150.0
 22
100.0
 13
0.0
 23
0.0
 14
10.0
 24
10.0
 15
10.0
 25
10.0
 16
0.0
 26
0.0
 36
1.0
 17
0.0
 27
0.0
 37
0.0
 40
200.0
 41
1.5
 42
50.0
 43
0.0
 44
0.0
 50
0.0
 51
0.0
 71
     0
 72
  2000
 73
     1
 74
     3
 75
     0
 76
     0
 77
     0
 78
     0
281
     0
 65
     1
110
0.0
120
0.0
130
0.0
111
1.0
121
0.0
131
0.0
112
0.0
122
1.0
132
0.0
 79
     0
146
0.0
  0
ENDTAB
  0
TABLE
  2
LTYPE
  5
5
330
0
100
AcDbSymbolTable
 70
     6
  0
LTYPE
  5
14
330
5
100
AcDbSymbolTableRecord
100
AcDbLinetypeTableRecord
  2
ByBlock
 70
     0
  3

 72
    65
 73
     0
 40
0.0
  0
LTYPE
  5
15
330
5
100
AcDbSymbolTableRecord
100
AcDbLinetypeTableRecord
  2
ByLayer
 70
     0
  3

 72
    65
 73
     0
 40
0.0
  0
LTYPE
  5
16
330
5
100
AcDbSymbolTableRecord
100
AcDbLinetypeTableRecord
  2
Continuous
 70
     0
  3
Solid line
 72
    65
 73
     0
 40
0.0
  0
LTYPE
  5
6A
330
5
100
AcDbSymbolTableRecord
100
AcDbLinetypeTableRecord
  2
HIDDEN
 70
     0
  3
Hidden __ __ __ __ __ __ __ __ __ __ __ __ __ __
 72
    65
 73
     2
 40
1.905
 49
1.27
 74
     0
 49
-0.635
 74
     0
  0
LTYPE
  5
6B
330
5
100
AcDbSymbolTableRecord
100
AcDbLinetypeTableRecord
  2
PHANTOM
 70
     0
  3
Phantom ______  __  __  ______  __  __  ______
 72
    65
 73
     6
 40
12.7
 49
6.35
 74
     0
 49
-1.27
 74
     0
 49
1.27
 74
     0
 49
-1.27
 74
     0
 49
1.27
 74
     0
 49
-1.27
 74
     0
  0
LTYPE
  5
6C
330
5
100
AcDbSymbolTableRecord
100
AcDbLinetypeTableRecord
  2
CENTER
 70
     0
  3
Center ____ _ ____ _ ____ _ ____ _ ____ _ ____
 72
    65
 73
     4
 40
10.16
 49
6.35
 74
     0
 49
-1.27
 74
     0
 49
1.27
 74
     0
 49
-1.27
 74
     0
  0
LTYPE
  5
6D
330
5
100
AcDbSymbolTableRecord
100
AcDbLinetypeTableRecord
  2
CENTERX2
 70
     0
  3
Center (2x) ________  __  ________  __  _____
 72
    65
 73
     4
 40
20.32
 49
12.7
 74
     0
 49
-2.54
 74
     0
 49
2.54
 74
     0
 49
-2.54
 74
     0
  0
LTYPE
  5
6E
330
5
100
AcDbSymbolTableRecord
100
AcDbLinetypeTableRecord
  2
DOT2
 70
     0
  3
Dot (.5x) ........................................
 72
    65
 73
     2
 40
0.635
 49
0.0
 74
     0
 49
-0.635
 74
     0
  0
ENDTAB
  0
TABLE
  2
LAYER
  5
2
330
0
100
AcDbSymbolTable
 70
     7
  0
LAYER
  5
10
330
2
100
AcDbSymbolTableRecord
100
AcDbLayerTableRecord
  2
0
 70
     0
 62
     7
  6
Continuous
370
    -3
390
F
  0
LAYER
  5
6F
330
2
100
AcDbSymbolTableRecord
100
AcDbLayerTableRecord
  2
DEFONCE
 70
     0
 62
     1
  6
Continuous
370
    -3
390
F
  0
LAYER
  5
70
330
2
100
AcDbSymbolTableRecord
100
AcDbLayerTableRecord
  2
GRAVURE
 70
     0
 62
    70
  6
Continuous
370
    -3
390
F
  0
LAYER
  5
71
330
2
100
AcDbSymbolTableRecord
100
AcDbLayerTableRecord
  2
PERCAGE_-_1MM
 70
     0
 62
     5
  6
Continuous
370
    -3
390
F
  0
LAYER
  5
72
330
2
100
AcDbSymbolTableRecord
100
AcDbLayerTableRecord
  2
PERCAGE_-_1_2MM
 70
     0
 62
   150
  6
Continuous
370
    -3
390
F
  0
LAYER
  5
73
330
2
100
AcDbSymbolTableRecord
100
AcDbLayerTableRecord
  2
PERCAGE_-_1_6MM
 70
     0
 62
   171
  6
Continuous
370
    -3
390
F
  0
LAYER
  5
74
330
2
100
AcDbSymbolTableRecord
100
AcDbLayerTableRecord
  2
FIXATION_-_M2
 70
     0
 62
    11
  6
Continuous
370
    -3
390
F
  0
ENDTAB
  0
TABLE
  2
STYLE
  5
3
330
0
100
AcDbSymbolTable
 70
     1
  0
STYLE
  5
11
330
3
100
AcDbSymbolTableRecord
100
AcDbTextStyleTableRecord
  2
Standard
 70
     0
 40
0.0
 41
1.0
 50
0.0
 71
     0
 42
3.5
  3
txt
  4

  0
ENDTAB
  0
TABLE
  2
VIEW
  5
6
330
0
100
AcDbSymbolTable
 70
     0
  0
ENDTAB
  0
TABLE
  2
UCS
  5
7
330
0
100
AcDbSymbolTable
 70
     0
  0
ENDTAB
  0
TABLE
  2
APPID
  5
9
330
0
100
AcDbSymbolTable
 70
     1
  0
APPID
  5
12
330
9
100
AcDbSymbolTableRecord
100
AcDbRegAppTableRecord
  2
ACAD
 70
     0
  0
ENDTAB
  0
TABLE
  2
DIMSTYLE
  5
A
330
0
100
AcDbSymbolTable
 70
     1
100
AcDbDimStyleTable
  0
DIMSTYLE
105
27
330
A
100
AcDbSymbolTableRecord
100
AcDbDimStyleTableRecord
  2
ISO-25
 70
     0
 41
2.5
 42
0.625
 43
3.75
 44
1.25
 73
     0
 74
     0
 77
     1
 78
     8
140
2.5
141
2.5
143
0.0393700787
147
0.625
171
     3
172
     1
178
     0
271
     2
272
     2
274
     3
278
    44
283
     0
284
     8
340
11
  0
ENDTAB
  0
TABLE
  2
BLOCK_RECORD
  5
1
330
0
100
AcDbSymbolTable
 70
     1
  0
BLOCK_RECORD
  5
1F
330
1
100
AcDbSymbolTableRecord
100
AcDbBlockTableRecord
  2
*Model_Space
340
22
  0
BLOCK_RECORD
  5
1B
330
1
100
AcDbSymbolTableRecord
100
AcDbBlockTableRecord
  2
*Paper_Space
340
1E
  0
BLOCK_RECORD
  5
23
330
1
100
AcDbSymbolTableRecord
100
AcDbBlockTableRecord
  2
*Paper_Space0
340
26
  0
ENDTAB
  0
ENDSEC
  0
SECTION
  2
BLOCKS
  0
BLOCK
  5
20
330
1F
100
AcDbEntity
  8
0
100
AcDbBlockBegin
  2
*Model_Space
 70
     0
 10
0.0
 20
0.0
 30
0.0
  3
*Model_Space
  1
*Model_Space
  0
ENDBLK
  5
21
330
1F
100
AcDbEntity
  8
0
100
AcDbBlockEnd
  0
BLOCK
  5
1C
330
1B
100
AcDbEntity
 67
     1
  8
0
100
AcDbBlockBegin
  2
*Paper_Space
 70
     0
 10
0.0
 20
0.0
 30
0.0
  3
*Paper_Space
  1
*Paper_Space
  0
ENDBLK
  5
1D
330
1B
100
AcDbEntity
 67
     1
  8
0
100
AcDbBlockEnd
  0
BLOCK
  5
24
330
23
100
AcDbEntity
  8
0
100
AcDbBlockBegin
  2
*Paper_Space0
 70
     0
 10
0.0
 20
0.0
 30
0.0
  3
*Paper_Space0
  1
*Paper_Space0
  0
ENDBLK
  5
25
330
23
100
AcDbEntity
  8
0
100
AcDbBlockEnd
  0
ENDSEC
  0
SECTION
  2
ENTITIES
  0
LINE
  5
75
330
1F
100
AcDbEntity
  8
0
  6
Continuous
 62
     7
370
    15
100
AcDbLine
 10
31.5356417382
 20
8.8018798558
 30
0.0
 11
27.065241226
 21
8.8018798558
 31
0.0
  0
CIRCLE
  5
76
330
1F
100
AcDbEntity
  8
0
  6
Continuous
 62
     7
370
    15
100
AcDbCircle
 10
13.1554414625
 20
38.3420799705
 30
0.0
 40
0.9775486944393013
  0
ARC
  5
77
330
1F
100
AcDbEntity
  8
0
  6
Continuous
 62
     7
370
    15
100
AcDbCircle
 10
14.9685414625
 20
33.0751799705
 30
0.0
 40
0.7529000000000003
100
AcDbArc
 50
180.0
 51
270.0
  0
LINE
  5
78
330
1F
100
AcDbEntity
  8
0
  6
Continuous
 62
     7
370
    15
100
AcDbLine
 10
43.9162398512
 20
44.361880078
 30
0.0
 11
43.609641009
 21
44.4888789496
 31
0.0
  0
CIRCLE
  5
79
330
1F
100
AcDbEntity
  8
0
  6
Continuous
 62
     7
370
    15
100
AcDbCircle
 10
34.2054414625
 20
12.9420799705
 30
0.0
 40
0.5
  0
CIRCLE
  5
7A
330
1F
100
AcDbEntity
  8
0
  6
Continuous
 62
     7
370
    15
100
AcDbCircle
 10
53.2554414625
 20
40.8820799705
 30
0.0
 40
0.5
  0
CIRCLE
  5
7B
330
1F
100
AcDbEntity
  8
0
  6
Continuous
 62
     7
370
    15
100
AcDbCircle
 10
9.1554414625
 20
38.3420799705
 30
0.0
 40
0.5
  0
CIRCLE
  5
7C
330
1F
100
AcDbEntity
  8
0
  6
Continuous
 62
     7
370
    15
100
AcDbCircle
 10
8.3454414625
 20
18.0220799705
 30
0.0
 40
0.5999999999999961
  0
CIRCLE
  5
7D
330
1F
100
AcDbEntity
  8
0
  6
Continuous
 62
     7
370
    15
100
AcDbCircle
 10
10.8854414625
 20
18.0220799705
 30
0.0
 40
0.5999999999999961
  0
CIRCLE
  5
7E
330
1F
100
AcDbEntity
  8
0
  6
Continuous
 62
     7
370
    15
100
AcDbCircle
 10
13.4254414625
 20
18.0220799705
 30
0.0
 40
0.5999999999999979
  0
CIRCLE
  5
7F
330
1F
100
AcDbEntity
  8
0
  6
Continuous
 62
     7
370
    15
100
AcDbCircle
 10
15.9654414625
 20
18.0220799705
 30
0.0
 40
0.6000000000000014
  0
CIRCLE
  5
80
330
1F
100
AcDbEntity
  8
0
  6
Continuous
 62
     7
370
    15
100
AcDbCircle
 10
38.8254414625
 20
23.1020799705
 30
0.0
 40
0.6000000000000085
  0
CIRCLE
  5
81
330
1F
100
AcDbEntity
  8
0
  6
Continuous
 62
     7
370
    15
100
AcDbCircle
 10
42.6354414625
 20
23.1020799705
 30
0.0
 40
0.5999999999999943
  0
CIRCLE
  5
82
330
1F
100
AcDbEntity
  8
0
  6
Continuous
 62
     7
370
    15
100
AcDbCircle
 10
9.6408414625
 20
10.4020799705
 30
0.0
 40
0.9000000000000004
  0
LINE
  5
83
330
1F
100
AcDbEntity
  8
0
  6
Continuous
 62
     7
370
    15
100
AcDbLine
 10
24.1706422353
 20
29.7822803548
 30
0.0
 11
27.265641355
 21
29.7822803548
 31
0.0
  0
CIRCLE
  5
84
330
1F
100
AcDbEntity
  8
0
  6
Continuous
 62
     7
370
    15
100
AcDbCircle
 10
30.2054414625
 20
12.9420799705
 30
0.0
 40
0.9775806514042706
  0
LINE
  5
85
330
1F
100
AcDbEntity
  8
0
  6
Continuous
 62
     7
370
    15
100
AcDbLine
 10
21.0562418038
 20
44.361880078
 30
0.0
 11
20.749641099
 21
44.4888789496
 31
0.0
  0
LINE
  5
86
330
1F
100
AcDbEntity
  8
0
  6
Continuous
 62
     7
370
    15
100
AcDbLine
 10
21.0562418038
 20
49.4418796441
 30
0.0
 11
20.749641099
 21
49.5688785157
 31
0.0
  0
LINE
  5
87
330
1F
100
AcDbEntity
  8
0
  6
Continuous
 62
     7
370
    15
100
AcDbLine
 10
21.0562418038
 20
13.8818798876
 30
0.0
 11
20.749641099
 21
14.0088796905
 31
0.0
  0
LINE
  5
88
330
1F
100
AcDbEntity
  8
0
  6
Continuous
 62
     7
370
    15
100
AcDbLine
 10
21.0562418038
 20
11.3418801045
 30
0.0
 11
20.749641099
 21
11.4688799074
 31
0.0
  0
LINE
  5
89
330
1F
100
AcDbEntity
  8
0
  6
Continuous
 62
     7
370
    15
100
AcDbLine
 10
39.4106427962
 20
9.4622797622
 30
0.0
 11
41.354640835
 21
9.4622797622
 31
0.0
  0
LINE
  5
8A
330
1F
100
AcDbEntity
  8
0
  6
Continuous
 62
     7
370
    15
100
AcDbLine
 10
39.4106427962
 20
12.0022800109
 30
0.0
 11
41.354640835
 21
12.0022800109
 31
0.0
  0
LINE
  5
8B
330
1F
100
AcDbEntity
  8
0
  6
Continuous
 62
     7
370
    15
100
AcDbLine
 10
39.4106427962
 20
14.5422797939
 30
0.0
 11
41.354640835
 21
14.5422797939
 31
0.0
  0
LINE
  5
8C
330
1F
100
AcDbEntity
  8
0
  6
Continuous
 62
     7
370
    15
100
AcDbLine
 10
39.4106427962
 20
17.082279577
 30
0.0
 11
41.354640835
 21
17.082279577
 31
0.0
  0
LINE
  5
8D
330
1F
100
AcDbEntity
  8
0
  6
Continuous
 62
     7
370
    15
100
AcDbLine
 10
39.4106427962
 20
19.6222802913
 30
0.0
 11
41.354640835
 21
19.6222802913
 31
0.0
  0
LINE
  5
8E
330
1F
100
AcDbEntity
  8
0
  6
Continuous
 62
     7
370
    15
100
AcDbLine
 10
39.4106427962
 20
27.2422805718
 30
0.0
 11
41.354640835
 21
27.2422805718
 31
0.0
  0
LINE
  5
8F
330
1F
100
AcDbEntity
  8
0
  6
Continuous
 62
     7
370
    15
100
AcDbLine
 10
39.4106427962
 20
29.7822803548
 30
0.0
 11
41.354640835
 21
29.7822803548
 31
0.0
  0
LINE
  5
90
330
1F
100
AcDbEntity
  8
0
  6
Continuous
 62
     7
370
    15
100
AcDbLine
 10
21.0562418038
 20
21.501880168
 30
0.0
 11
20.749641099
 21
21.6288790396
 31
0.0
  0
LINE
  5
91
330
1F
100
AcDbEntity
  8
0
  6
Continuous
 62
     7
370
    15
100
AcDbLine
 10
21.0562418038
 20
29.1218795171
 30
0.0
 11
20.749641099
 21
29.2488802514
 31
0.0
  0
CIRCLE
  5
92
330
1F
100
AcDbEntity
  8
0
  6
Continuous
 62
     7
370
    15
100
AcDbCircle
 10
53.2554414625
 20
18.0220799705
 30
0.0
 40
0.5
  0
LINE
  5
93
330
1F
100
AcDbEntity
  8
0
  6
Continuous
 62
     7
370
    15
100
AcDbLine
 10
21.0562418038
 20
39.2818805119
 30
0.0
 11
20.749641099
 21
39.4088793835
 31
0.0
  0
LINE
  5
94
330
1F
100
AcDbEntity
  8
0
  6
Continuous
 62
     7
370
    15
100
AcDbLine
 10
39.4106427962
 20
47.5622806987
 30
0.0
 11
41.354640835
 21
47.5622806987
 31
0.0
  0
LINE
  5
95
330
1F
100
AcDbEntity
  8
0
  6
Continuous
 62
     7
370
    15
100
AcDbLine
 10
39.4106427962
 20
50.1022804818
 30
0.0
 11
41.354640835
 21
50.1022804818
 31
0.0
  0
LINE
  5
96
330
1F
100
AcDbEntity
  8
0
  6
Continuous
 62
     7
370
    15
100
AcDbLine
 10
21.0562418038
 20
51.9818794271
 30
0.0
 11
20.749641099
 21
52.1088782987
 31
0.0
  0
LINE
  5
97
330
1F
100
AcDbEntity
  8
0
  6
Continuous
 62
     7
370
    15
100
AcDbLine
 10
21.0562418038
 20
46.9018798611
 30
0.0
 11
20.749641099
 21
47.0288787326
 31
0.0
  0
LINE
  5
98
330
1F
100
AcDbEntity
  8
0
  6
Continuous
 62
     7
370
    15
100
AcDbLine
 10
21.0562418038
 20
41.821880295
 30
0.0
 11
20.749641099
 21
41.9488791665
 31
0.0
  0
LINE
  5
99
330
1F
100
AcDbEntity
  8
0
  6
Continuous
 62
     7
370
    15
100
AcDbLine
 10
21.0562418038
 20
36.7418807289
 30
0.0
 11
20.749641099
 21
36.8688796005
 31
0.0
  0
LINE
  5
9A
330
1F
100
AcDbEntity
  8
0
  6
Continuous
 62
     7
370
    15
100
AcDbLine
 10
21.0562418038
 20
26.5818797341
 30
0.0
 11
20.749641099
 21
26.7088804683
 31
0.0
  0
LINE
  5
9B
330
1F
100
AcDbEntity
  8
0
  6
Continuous
 62
     7
370
    15
100
AcDbLine
 10
15.635241271
 20
14.5422797939
 30
0.0
 11
18.4946418563
 21
14.5422797939
 31
0.0
  0
LINE
  5
9C
330
1F
100
AcDbEntity
  8
0
  6
Continuous
 62
     7
370
    15
100
AcDbLine
 10
48.1952423984
 20
18.2586796871
 30
0.0
 11
48.1952423984
 21
25.8289799383
 31
0.0
  0
CIRCLE
  5
9D
330
1F
100
AcDbEntity
  8
0
  6
Continuous
 62
     7
370
    15
100
AcDbCircle
 10
49.2554414625
 20
18.0220799705
 30
0.0
 40
0.9775806514042671
  0
LINE
  5
9E
330
1F
100
AcDbEntity
  8
0
  6
Continuous
 62
     7
370
    15
100
AcDbLine
 10
43.9162398512
 20
41.821880295
 30
0.0
 11
43.609641009
 21
41.9488791665
 31
0.0
  0
LINE
  5
9F
330
1F
100
AcDbEntity
  8
0
  6
Continuous
 62
     7
370
    15
100
AcDbLine
 10
43.609641009
 20
44.4888789496
 30
0.0
 11
41.6612396771
 21
44.4888789496
 31
0.0
  0
LINE
  5
A0
330
1F
100
AcDbEntity
  8
0
  6
Continuous
 62
     7
370
    15
100
AcDbLine
 10
41.6612396771
 20
44.4888789496
 30
0.0
 11
41.354640835
 21
44.361880078
 31
0.0
  0
LINE
  5
A1
330
1F
100
AcDbEntity
  8
0
  6
Continuous
 62
     7
370
    15
100
AcDbLine
 10
41.354640835
 20
44.361880078
 30
0.0
 11
39.4106427962
 21
44.361880078
 31
0.0
  0
ARC
  5
A2
330
1F
100
AcDbEntity
  8
0
  6
Continuous
 62
     7
370
    15
100
AcDbCircle
 10
38.8211380614
 20
43.4220799705
 30
0.0
 40
1.109386452010682
100
AcDbArc
 50
57.9014012296
 51
302.0985987704
  0
LINE
  5
A3
330
1F
100
AcDbEntity
  8
0
  6
Continuous
 62
     7
370
    15
100
AcDbLine
 10
39.4106427962
 20
42.4822811326
 30
0.0
 11
41.354640835
 21
42.4822811326
 31
0.0
  0
LINE
  5
A4
330
1F
100
AcDbEntity
  8
0
  6
Continuous
 62
     7
370
    15
100
AcDbLine
 10
41.354640835
 20
42.4822811326
 30
0.0
 11
41.6612396771
 21
42.3552785358
 31
0.0
  0
LINE
  5
A5
330
1F
100
AcDbEntity
  8
0
  6
Continuous
 62
     7
370
    15
100
AcDbLine
 10
41.6612396771
 20
42.3552785358
 30
0.0
 11
43.609641009
 21
42.3552785358
 31
0.0
  0
LINE
  5
A6
330
1F
100
AcDbEntity
  8
0
  6
Continuous
 62
     7
370
    15
100
AcDbLine
 10
43.609641009
 20
42.3552785358
 30
0.0
 11
43.9162398512
 21
42.4822811326
 31
0.0
  0
LINE
  5
A7
330
1F
100
AcDbEntity
  8
0
  6
Continuous
 62
     7
370
    15
100
AcDbLine
 10
43.9162398512
 20
42.4822811326
 30
0.0
 11
48.3156400556
 21
42.4822811326
 31
0.0
  0
LINE
  5
A8
330
1F
100
AcDbEntity
  8
0
  6
Continuous
 62
     7
370
    15
100
AcDbLine
 10
48.3156400556
 20
42.4822811326
 30
0.0
 11
48.3156400556
 21
41.1186795971
 31
0.0
  0
ARC
  5
A9
330
1F
100
AcDbEntity
  8
0
  6
Continuous
 62
     7
370
    15
100
AcDbCircle
 10
49.2554414625
 20
40.8715644838
 30
0.0
 40
0.9717459049461747
100
AcDbArc
 50
165.267858496
 51
14.732141504
  0
LINE
  5
AA
330
1F
100
AcDbEntity
  8
0
  6
Continuous
 62
     7
370
    15
100
AcDbLine
 10
50.1952427263
 20
41.1186795971
 30
0.0
 11
50.1952427263
 21
43.6089802823
 31
0.0
  0
ARC
  5
AB
330
1F
100
AcDbEntity
  8
0
  6
Continuous
 62
     7
370
    15
100
AcDbCircle
 10
49.4423414625
 20
43.6089799705
 30
0.0
 40
0.7529000000000039
100
AcDbArc
 50
0.0
 51
90.0
  0
LINE
  5
AC
330
1F
100
AcDbEntity
  8
0
  6
Continuous
 62
     7
370
    15
100
AcDbLine
 10
49.4423429305
 20
44.361880078
 30
0.0
 11
43.9162398512
 21
44.361880078
 31
0.0
  0
LINE
  5
AD
330
1F
100
AcDbEntity
  8
0
  6
Continuous
 62
     7
370
    15
100
AcDbLine
 10
14.9685418988
 20
32.3222801378
 30
0.0
 11
18.4946418563
 21
32.3222801378
 31
0.0
  0
LINE
  5
AE
330
1F
100
AcDbEntity
  8
0
  6
Continuous
 62
     7
370
    15
100
AcDbLine
 10
18.4946418563
 20
32.3222801378
 30
0.0
 11
18.8012416298
 21
32.1952794036
 31
0.0
  0
LINE
  5
AF
330
1F
100
AcDbEntity
  8
0
  6
Continuous
 62
     7
370
    15
100
AcDbLine
 10
39.4106427962
 20
32.3222801378
 30
0.0
 11
41.354640835
 21
32.3222801378
 31
0.0
  0
LINE
  5
B0
330
1F
100
AcDbEntity
  8
0
  6
Continuous
 62
     7
370
    15
100
AcDbLine
 10
39.4106427962
 20
34.8622799209
 30
0.0
 11
41.354640835
 21
34.8622799209
 31
0.0
  0
LINE
  5
B1
330
1F
100
AcDbEntity
  8
0
  6
Continuous
 62
     7
370
    15
100
AcDbLine
 10
39.4106427962
 20
37.4022815666
 30
0.0
 11
41.354640835
 21
37.4022815666
 31
0.0
  0
LINE
  5
B2
330
1F
100
AcDbEntity
  8
0
  6
Continuous
 62
     7
370
    15
100
AcDbLine
 10
39.4106427962
 20
45.0222809157
 30
0.0
 11
41.354640835
 21
45.0222809157
 31
0.0
  0
CIRCLE
  5
B3
330
1F
100
AcDbEntity
  8
0
  6
Continuous
 62
     7
370
    15
100
AcDbCircle
 10
23.5854414625
 20
18.0220799705
 30
0.0
 40
0.6000000000000014
  0
CIRCLE
  5
B4
330
1F
100
AcDbEntity
  8
0
  6
Continuous
 62
     7
370
    15
100
AcDbCircle
 10
19.7754414625
 20
18.0220799705
 30
0.0
 40
0.5999999999999979
  0
LINE
  5
B5
330
1F
100
AcDbEntity
  8
0
  6
Continuous
 62
     7
370
    15
100
AcDbLine
 10
20.749641099
 20
34.3288798174
 30
0.0
 11
18.8012416298
 21
34.3288798174
 31
0.0
  0
LINE
  5
B6
330
1F
100
AcDbEntity
  8
0
  6
Continuous
 62
     7
370
    15
100
AcDbLine
 10
18.8012416298
 20
34.3288798174
 30
0.0
 11
18.4946418563
 21
34.2018790832
 31
0.0
  0
LINE
  5
B7
330
1F
100
AcDbEntity
  8
0
  6
Continuous
 62
     7
370
    15
100
AcDbLine
 10
18.4946418563
 20
34.2018790832
 30
0.0
 11
16.0952410484
 21
34.2018790832
 31
0.0
  0
LINE
  5
B8
330
1F
100
AcDbEntity
  8
0
  6
Continuous
 62
     7
370
    15
100
AcDbLine
 10
16.0952410484
 20
34.2018790832
 30
0.0
 11
16.0952410484
 21
38.1054785392
 31
0.0
  0
ARC
  5
B9
330
1F
100
AcDbEntity
  8
0
  6
Continuous
 62
     7
370
    15
100
AcDbCircle
 10
15.1554414625
 20
38.3489648334
 30
0.0
 40
0.9708289851546212
100
AcDbArc
 50
345.475084776
 51
194.524915224
  0
LINE
  5
BA
330
1F
100
AcDbEntity
  8
0
  6
Continuous
 62
     7
370
    15
100
AcDbLine
 10
14.2156411717
 20
38.1054785392
 30
0.0
 11
14.2156411717
 21
33.0751799336
 31
0.0
  0
LINE
  5
BB
330
1F
100
AcDbEntity
  8
0
  6
Continuous
 62
     7
370
    15
100
AcDbLine
 10
20.749641099
 20
21.6288790396
 30
0.0
 11
18.8012416298
 21
21.6288790396
 31
0.0
  0
ARC
  5
BC
330
1F
100
AcDbEntity
  8
0
  6
Continuous
 62
     7
370
    15
100
AcDbCircle
 10
19.0134414625
 20
20.5620799705
 30
0.0
 40
1.08769990346603
100
AcDbArc
 50
101.2500148007
 51
258.7499851993
  0
LINE
  5
BD
330
1F
100
AcDbEntity
  8
0
  6
Continuous
 62
     7
370
    15
100
AcDbLine
 10
18.8012416298
 20
19.4952795571
 30
0.0
 11
20.749641099
 21
19.4952795571
 31
0.0
  0
LINE
  5
BE
330
1F
100
AcDbEntity
  8
0
  6
Continuous
 62
     7
370
    15
100
AcDbLine
 10
20.749641099
 20
19.4952795571
 30
0.0
 11
21.0562418038
 21
19.6222802913
 31
0.0
  0
LINE
  5
BF
330
1F
100
AcDbEntity
  8
0
  6
Continuous
 62
     7
370
    15
100
AcDbLine
 10
21.0562418038
 20
19.6222802913
 30
0.0
 11
23.0002417052
 21
19.6222802913
 31
0.0
  0
ARC
  5
C0
330
1F
100
AcDbEntity
  8
0
  6
Continuous
 62
     7
370
    15
100
AcDbCircle
 10
23.5897448636
 20
20.5620799705
 30
0.0
 40
1.109386452010685
100
AcDbArc
 50
237.9014012296
 51
122.0985987704
  0
LINE
  5
C1
330
1F
100
AcDbEntity
  8
0
  6
Continuous
 62
     7
370
    15
100
AcDbLine
 10
23.0002417052
 20
21.501880168
 30
0.0
 11
21.0562418038
 21
21.501880168
 31
0.0
  0
LINE
  5
C2
330
1F
100
AcDbEntity
  8
0
  6
Continuous
 62
     7
370
    15
100
AcDbLine
 10
20.749641099
 20
29.2488802514
 30
0.0
 11
18.8012416298
 21
29.2488802514
 31
0.0
  0
ARC
  5
C3
330
1F
100
AcDbEntity
  8
0
  6
Continuous
 62
     7
370
    15
100
AcDbCircle
 10
19.0134414625
 20
28.1820799705
 30
0.0
 40
1.087699903466026
100
AcDbArc
 50
101.2500148007
 51
258.7499851993
  0
LINE
  5
C4
330
1F
100
AcDbEntity
  8
0
  6
Continuous
 62
     7
370
    15
100
AcDbLine
 10
18.8012416298
 20
27.1152798376
 30
0.0
 11
20.749641099
 21
27.1152798376
 31
0.0
  0
LINE
  5
C5
330
1F
100
AcDbEntity
  8
0
  6
Continuous
 62
     7
370
    15
100
AcDbLine
 10
20.749641099
 20
27.1152798376
 30
0.0
 11
21.0562418038
 21
27.2422805718
 31
0.0
  0
LINE
  5
C6
330
1F
100
AcDbEntity
  8
0
  6
Continuous
 62
     7
370
    15
100
AcDbLine
 10
21.0562418038
 20
27.2422805718
 30
0.0
 11
23.0002417052
 21
27.2422805718
 31
0.0
  0
ARC
  5
C7
330
1F
100
AcDbEntity
  8
0
  6
Continuous
 62
     7
370
    15
100
AcDbCircle
 10
23.5897448636
 20
28.1820799705
 30
0.0
 40
1.109386452010685
100
AcDbArc
 50
237.9014012296
 51
122.0985987704
  0
LINE
  5
C8
330
1F
100
AcDbEntity
  8
0
  6
Continuous
 62
     7
370
    15
100
AcDbLine
 10
23.0002417052
 20
29.1218795171
 30
0.0
 11
21.0562418038
 21
29.1218795171
 31
0.0
  0
LINE
  5
C9
330
1F
100
AcDbEntity
  8
0
  6
Continuous
 62
     7
370
    15
100
AcDbLine
 10
27.265641355
 20
29.7822803548
 30
0.0
 11
27.265641355
 21
13.178680121
 31
0.0
  0
ARC
  5
CA
330
1F
100
AcDbEntity
  8
0
  6
Continuous
 62
     7
370
    15
100
AcDbCircle
 10
28.2054414625
 20
12.934267006
 30
0.0
 40
0.971062169606404
100
AcDbArc
 50
165.4220740254
 51
14.5779259746
  0
LINE
  5
CB
330
1F
100
AcDbEntity
  8
0
  6
Continuous
 62
     7
370
    15
100
AcDbLine
 10
29.145242163
 20
13.178680121
 30
0.0
 11
29.145242163
 21
30.9089795044
 31
0.0
  0
ARC
  5
CC
330
1F
100
AcDbEntity
  8
0
  6
Continuous
 62
     7
370
    15
100
AcDbCircle
 10
28.3923414625
 20
30.9089799705
 30
0.0
 40
0.7529000000000075
100
AcDbArc
 50
0.0
 51
90.0
  0
LINE
  5
CD
330
1F
100
AcDbEntity
  8
0
  6
Continuous
 62
     7
370
    15
100
AcDbLine
 10
28.3923423672
 20
31.6618793002
 30
0.0
 11
24.1706422353
 21
31.6618793002
 31
0.0
  0
ARC
  5
CE
330
1F
100
AcDbEntity
  8
0
  6
Continuous
 62
     7
370
    15
100
AcDbCircle
 10
23.5854414625
 20
30.7694456201
 30
0.0
 40
1.067191693072359
100
AcDbArc
 50
56.7457615026
 51
123.2542384974
  0
LINE
  5
CF
330
1F
100
AcDbEntity
  8
0
  6
Continuous
 62
     7
370
    15
100
AcDbLine
 10
23.0002417052
 20
31.6618793002
 30
0.0
 11
21.0562418038
 21
31.6618793002
 31
0.0
  0
LINE
  5
D0
330
1F
100
AcDbEntity
  8
0
  6
Continuous
 62
     7
370
    15
100
AcDbLine
 10
21.0562418038
 20
31.6618793002
 30
0.0
 11
20.749641099
 21
31.7888800344
 31
0.0
  0
LINE
  5
D1
330
1F
100
AcDbEntity
  8
0
  6
Continuous
 62
     7
370
    15
100
AcDbLine
 10
20.749641099
 20
31.7888800344
 30
0.0
 11
18.8012416298
 21
31.7888800344
 31
0.0
  0
ARC
  5
D2
330
1F
100
AcDbEntity
  8
0
  6
Continuous
 62
     7
370
    15
100
AcDbCircle
 10
19.0134414625
 20
30.7220799705
 30
0.0
 40
1.087699903466025
100
AcDbArc
 50
101.2500148007
 51
258.7499851993
  0
LINE
  5
D3
330
1F
100
AcDbEntity
  8
0
  6
Continuous
 62
     7
370
    15
100
AcDbLine
 10
18.8012416298
 20
29.6552796206
 30
0.0
 11
20.749641099
 21
29.6552796206
 31
0.0
  0
LINE
  5
D4
330
1F
100
AcDbEntity
  8
0
  6
Continuous
 62
     7
370
    15
100
AcDbLine
 10
20.749641099
 20
29.6552796206
 30
0.0
 11
21.0562418038
 21
29.7822803548
 31
0.0
  0
LINE
  5
D5
330
1F
100
AcDbEntity
  8
0
  6
Continuous
 62
     7
370
    15
100
AcDbLine
 10
21.0562418038
 20
29.7822803548
 30
0.0
 11
23.0002417052
 21
29.7822803548
 31
0.0
  0
ARC
  5
D6
330
1F
100
AcDbEntity
  8
0
  6
Continuous
 62
     7
370
    15
100
AcDbCircle
 10
23.5854414625
 20
30.6747143209
 30
0.0
 40
1.067191693072365
100
AcDbArc
 50
236.7457615026
 51
303.2542384974
  0
LINE
  5
D7
330
1F
100
AcDbEntity
  8
0
  6
Continuous
 62
     7
370
    15
100
AcDbLine
 10
20.749641099
 20
39.4088793835
 30
0.0
 11
18.8012416298
 21
39.4088793835
 31
0.0
  0
ARC
  5
D8
330
1F
100
AcDbEntity
  8
0
  6
Continuous
 62
     7
370
    15
100
AcDbCircle
 10
19.0134414625
 20
38.3420799705
 30
0.0
 40
1.087699903466026
100
AcDbArc
 50
101.2500148007
 51
258.7499851993
  0
LINE
  5
D9
330
1F
100
AcDbEntity
  8
0
  6
Continuous
 62
     7
370
    15
100
AcDbLine
 10
18.8012416298
 20
37.2752789697
 30
0.0
 11
20.749641099
 21
37.2752789697
 31
0.0
  0
LINE
  5
DA
330
1F
100
AcDbEntity
  8
0
  6
Continuous
 62
     7
370
    15
100
AcDbLine
 10
20.749641099
 20
37.2752789697
 30
0.0
 11
21.0562418038
 21
37.4022815666
 31
0.0
  0
LINE
  5
DB
330
1F
100
AcDbEntity
  8
0
  6
Continuous
 62
     7
370
    15
100
AcDbLine
 10
21.0562418038
 20
37.4022815666
 30
0.0
 11
23.0002417052
 21
37.4022815666
 31
0.0
  0
ARC
  5
DC
330
1F
100
AcDbEntity
  8
0
  6
Continuous
 62
     7
370
    15
100
AcDbCircle
 10
23.5897448636
 20
38.3420799705
 30
0.0
 40
1.109386452010688
100
AcDbArc
 50
237.9014012296
 51
122.0985987704
  0
LINE
  5
DD
330
1F
100
AcDbEntity
  8
0
  6
Continuous
 62
     7
370
    15
100
AcDbLine
 10
23.0002417052
 20
39.2818805119
 30
0.0
 11
21.0562418038
 21
39.2818805119
 31
0.0
  0
LINE
  5
DE
330
1F
100
AcDbEntity
  8
0
  6
Continuous
 62
     7
370
    15
100
AcDbLine
 10
20.749641099
 20
44.4888789496
 30
0.0
 11
18.8012416298
 21
44.4888789496
 31
0.0
  0
ARC
  5
DF
330
1F
100
AcDbEntity
  8
0
  6
Continuous
 62
     7
370
    15
100
AcDbCircle
 10
19.0134414625
 20
43.4220799705
 30
0.0
 40
1.087699903466025
100
AcDbArc
 50
101.2500148007
 51
258.7499851993
  0
LINE
  5
E0
330
1F
100
AcDbEntity
  8
0
  6
Continuous
 62
     7
370
    15
100
AcDbLine
 10
18.8012416298
 20
42.3552785358
 30
0.0
 11
20.749641099
 21
42.3552785358
 31
0.0
  0
LINE
  5
E1
330
1F
100
AcDbEntity
  8
0
  6
Continuous
 62
     7
370
    15
100
AcDbLine
 10
20.749641099
 20
42.3552785358
 30
0.0
 11
21.0562418038
 21
42.4822811326
 31
0.0
  0
LINE
  5
E2
330
1F
100
AcDbEntity
  8
0
  6
Continuous
 62
     7
370
    15
100
AcDbLine
 10
21.0562418038
 20
42.4822811326
 30
0.0
 11
23.0002417052
 21
42.4822811326
 31
0.0
  0
ARC
  5
E3
330
1F
100
AcDbEntity
  8
0
  6
Continuous
 62
     7
370
    15
100
AcDbCircle
 10
23.5897448636
 20
43.4220799705
 30
0.0
 40
1.109386452010684
100
AcDbArc
 50
237.9014012296
 51
122.0985987704
  0
LINE
  5
E4
330
1F
100
AcDbEntity
  8
0
  6
Continuous
 62
     7
370
    15
100
AcDbLine
 10
23.0002417052
 20
44.361880078
 30
0.0
 11
21.0562418038
 21
44.361880078
 31
0.0
  0
LINE
  5
E5
330
1F
100
AcDbEntity
  8
0
  6
Continuous
 62
     7
370
    15
100
AcDbLine
 10
20.749641099
 20
49.5688785157
 30
0.0
 11
18.8012416298
 21
49.5688785157
 31
0.0
  0
ARC
  5
E6
330
1F
100
AcDbEntity
  8
0
  6
Continuous
 62
     7
370
    15
100
AcDbCircle
 10
19.0134414625
 20
48.5020799705
 30
0.0
 40
1.087699903466036
100
AcDbArc
 50
101.2500148007
 51
258.7499851993
  0
LINE
  5
E7
330
1F
100
AcDbEntity
  8
0
  6
Continuous
 62
     7
370
    15
100
AcDbLine
 10
18.8012416298
 20
47.4352818272
 30
0.0
 11
20.749641099
 21
47.4352818272
 31
0.0
  0
LINE
  5
E8
330
1F
100
AcDbEntity
  8
0
  6
Continuous
 62
     7
370
    15
100
AcDbLine
 10
20.749641099
 20
47.4352818272
 30
0.0
 11
21.0562418038
 21
47.5622806987
 31
0.0
  0
LINE
  5
E9
330
1F
100
AcDbEntity
  8
0
  6
Continuous
 62
     7
370
    15
100
AcDbLine
 10
21.0562418038
 20
47.5622806987
 30
0.0
 11
23.0002417052
 21
47.5622806987
 31
0.0
  0
ARC
  5
EA
330
1F
100
AcDbEntity
  8
0
  6
Continuous
 62
     7
370
    15
100
AcDbCircle
 10
23.5897448636
 20
48.5020799705
 30
0.0
 40
1.109386452010688
100
AcDbArc
 50
237.9014012296
 51
122.0985987704
  0
LINE
  5
EB
330
1F
100
AcDbEntity
  8
0
  6
Continuous
 62
     7
370
    15
100
AcDbLine
 10
23.0002417052
 20
49.4418796441
 30
0.0
 11
21.0562418038
 21
49.4418796441
 31
0.0
  0
LINE
  5
EC
330
1F
100
AcDbEntity
  8
0
  6
Continuous
 62
     7
370
    15
100
AcDbLine
 10
20.749641099
 20
14.0088796905
 30
0.0
 11
18.8012416298
 21
14.0088796905
 31
0.0
  0
LINE
  5
ED
330
1F
100
AcDbEntity
  8
0
  6
Continuous
 62
     7
370
    15
100
AcDbLine
 10
18.8012416298
 20
32.1952794036
 30
0.0
 11
20.749641099
 21
32.1952794036
 31
0.0
  0
LINE
  5
EE
330
1F
100
AcDbEntity
  8
0
  6
Continuous
 62
     7
370
    15
100
AcDbLine
 10
20.749641099
 20
32.1952794036
 30
0.0
 11
21.0562418038
 21
32.3222801378
 31
0.0
  0
LINE
  5
EF
330
1F
100
AcDbEntity
  8
0
  6
Continuous
 62
     7
370
    15
100
AcDbLine
 10
21.0562418038
 20
32.3222801378
 30
0.0
 11
23.0002417052
 21
32.3222801378
 31
0.0
  0
ARC
  5
F0
330
1F
100
AcDbEntity
  8
0
  6
Continuous
 62
     7
370
    15
100
AcDbCircle
 10
23.5897448636
 20
33.2620799705
 30
0.0
 40
1.109386452010688
100
AcDbArc
 50
237.9014012296
 51
122.0985987704
  0
LINE
  5
F1
330
1F
100
AcDbEntity
  8
0
  6
Continuous
 62
     7
370
    15
100
AcDbLine
 10
23.0002417052
 20
34.2018790832
 30
0.0
 11
21.0562418038
 21
34.2018790832
 31
0.0
  0
LINE
  5
F2
330
1F
100
AcDbEntity
  8
0
  6
Continuous
 62
     7
370
    15
100
AcDbLine
 10
21.0562418038
 20
34.2018790832
 30
0.0
 11
20.749641099
 21
34.3288798174
 31
0.0
  0
LINE
  5
F3
330
1F
100
AcDbEntity
  8
0
  6
Continuous
 62
     7
370
    15
100
AcDbLine
 10
20.749641099
 20
11.4688799074
 30
0.0
 11
18.8012416298
 21
11.4688799074
 31
0.0
  0
ARC
  5
F4
330
1F
100
AcDbEntity
  8
0
  6
Continuous
 62
     7
370
    15
100
AcDbCircle
 10
19.0134414625
 20
10.4020799705
 30
0.0
 40
1.087699903466026
100
AcDbArc
 50
101.2500148007
 51
258.7499851993
  0
LINE
  5
F5
330
1F
100
AcDbEntity
  8
0
  6
Continuous
 62
     7
370
    15
100
AcDbLine
 10
18.8012416298
 20
9.3352799593
 30
0.0
 11
20.749641099
 21
9.3352799593
 31
0.0
  0
LINE
  5
F6
330
1F
100
AcDbEntity
  8
0
  6
Continuous
 62
     7
370
    15
100
AcDbLine
 10
20.749641099
 20
9.3352799593
 30
0.0
 11
21.0562418038
 21
9.4622797622
 31
0.0
  0
LINE
  5
F7
330
1F
100
AcDbEntity
  8
0
  6
Continuous
 62
     7
370
    15
100
AcDbLine
 10
21.0562418038
 20
9.4622797622
 30
0.0
 11
23.0002417052
 21
9.4622797622
 31
0.0
  0
ARC
  5
F8
330
1F
100
AcDbEntity
  8
0
  6
Continuous
 62
     7
370
    15
100
AcDbCircle
 10
23.5897448636
 20
10.4020799705
 30
0.0
 40
1.109386452010685
100
AcDbArc
 50
237.9014012296
 51
122.0985987704
  0
LINE
  5
F9
330
1F
100
AcDbEntity
  8
0
  6
Continuous
 62
     7
370
    15
100
AcDbLine
 10
23.0002417052
 20
11.3418801045
 30
0.0
 11
21.0562418038
 21
11.3418801045
 31
0.0
  0
LINE
  5
FA
330
1F
100
AcDbEntity
  8
0
  6
Continuous
 62
     7
370
    15
100
AcDbLine
 10
41.354640835
 20
9.4622797622
 30
0.0
 11
41.6612396771
 21
9.3352799593
 31
0.0
  0
LINE
  5
FB
330
1F
100
AcDbEntity
  8
0
  6
Continuous
 62
     7
370
    15
100
AcDbLine
 10
41.6612396771
 20
9.3352799593
 30
0.0
 11
43.609641009
 21
9.3352799593
 31
0.0
  0
ARC
  5
FC
330
1F
100
AcDbEntity
  8
0
  6
Continuous
 62
     7
370
    15
100
AcDbCircle
 10
43.3974414625
 20
10.4020799705
 30
0.0
 40
1.087699903466025
100
AcDbArc
 50
281.2500148007
 51
78.7499851993
  0
LINE
  5
FD
330
1F
100
AcDbEntity
  8
0
  6
Continuous
 62
     7
370
    15
100
AcDbLine
 10
43.609641009
 20
11.4688799074
 30
0.0
 11
41.6612396771
 21
11.4688799074
 31
0.0
  0
LINE
  5
FE
330
1F
100
AcDbEntity
  8
0
  6
Continuous
 62
     7
370
    15
100
AcDbLine
 10
41.6612396771
 20
11.4688799074
 30
0.0
 11
41.354640835
 21
11.3418801045
 31
0.0
  0
LINE
  5
FF
330
1F
100
AcDbEntity
  8
0
  6
Continuous
 62
     7
370
    15
100
AcDbLine
 10
41.354640835
 20
11.3418801045
 30
0.0
 11
39.4106427962
 21
11.3418801045
 31
0.0
  0
ARC
  5
100
330
1F
100
AcDbEntity
  8
0
  6
Continuous
 62
     7
370
    15
100
AcDbCircle
 10
38.8211380614
 20
10.4020799705
 30
0.0
 40
1.109386452010685
100
AcDbArc
 50
57.9014012296
 51
302.0985987704
  0
LINE
  5
101
330
1F
100
AcDbEntity
  8
0
  6
Continuous
 62
     7
370
    15
100
AcDbLine
 10
41.354640835
 20
12.0022800109
 30
0.0
 11
41.6612396771
 21
11.8752797423
 31
0.0
  0
LINE
  5
102
330
1F
100
AcDbEntity
  8
0
  6
Continuous
 62
     7
370
    15
100
AcDbLine
 10
41.6612396771
 20
11.8752797423
 30
0.0
 11
43.609641009
 21
11.8752797423
 31
0.0
  0
ARC
  5
103
330
1F
100
AcDbEntity
  8
0
  6
Continuous
 62
     7
370
    15
100
AcDbCircle
 10
43.3974414625
 20
12.9420799705
 30
0.0
 40
1.087699903466025
100
AcDbArc
 50
281.2500148007
 51
78.7499851993
  0
LINE
  5
104
330
1F
100
AcDbEntity
  8
0
  6
Continuous
 62
     7
370
    15
100
AcDbLine
 10
43.609641009
 20
14.0088796905
 30
0.0
 11
41.6612396771
 21
14.0088796905
 31
0.0
  0
LINE
  5
105
330
1F
100
AcDbEntity
  8
0
  6
Continuous
 62
     7
370
    15
100
AcDbLine
 10
41.6612396771
 20
14.0088796905
 30
0.0
 11
41.354640835
 21
13.8818798876
 31
0.0
  0
LINE
  5
106
330
1F
100
AcDbEntity
  8
0
  6
Continuous
 62
     7
370
    15
100
AcDbLine
 10
41.354640835
 20
13.8818798876
 30
0.0
 11
39.4106427962
 21
13.8818798876
 31
0.0
  0
ARC
  5
107
330
1F
100
AcDbEntity
  8
0
  6
Continuous
 62
     7
370
    15
100
AcDbCircle
 10
38.8211380614
 20
12.9420799705
 30
0.0
 40
1.109386452010685
100
AcDbArc
 50
57.9014012296
 51
302.0985987704
  0
LINE
  5
108
330
1F
100
AcDbEntity
  8
0
  6
Continuous
 62
     7
370
    15
100
AcDbLine
 10
41.354640835
 20
14.5422797939
 30
0.0
 11
41.6612396771
 21
14.415279991
 31
0.0
  0
LINE
  5
109
330
1F
100
AcDbEntity
  8
0
  6
Continuous
 62
     7
370
    15
100
AcDbLine
 10
41.6612396771
 20
14.415279991
 30
0.0
 11
43.609641009
 21
14.415279991
 31
0.0
  0
ARC
  5
10A
330
1F
100
AcDbEntity
  8
0
  6
Continuous
 62
     7
370
    15
100
AcDbCircle
 10
43.3974414625
 20
15.4820799705
 30
0.0
 40
1.087699903466029
100
AcDbArc
 50
281.2500148007
 51
78.7499851993
  0
LINE
  5
10B
330
1F
100
AcDbEntity
  8
0
  6
Continuous
 62
     7
370
    15
100
AcDbLine
 10
43.609641009
 20
16.5488804048
 30
0.0
 11
41.6612396771
 21
16.5488804048
 31
0.0
  0
LINE
  5
10C
330
1F
100
AcDbEntity
  8
0
  6
Continuous
 62
     7
370
    15
100
AcDbLine
 10
41.6612396771
 20
16.5488804048
 30
0.0
 11
41.354640835
 21
16.4218796706
 31
0.0
  0
LINE
  5
10D
330
1F
100
AcDbEntity
  8
0
  6
Continuous
 62
     7
370
    15
100
AcDbLine
 10
41.354640835
 20
16.4218796706
 30
0.0
 11
39.4106427962
 21
16.4218796706
 31
0.0
  0
ARC
  5
10E
330
1F
100
AcDbEntity
  8
0
  6
Continuous
 62
     7
370
    15
100
AcDbCircle
 10
38.8211380614
 20
15.4820799705
 30
0.0
 40
1.109386452010684
100
AcDbArc
 50
57.9014012296
 51
302.0985987704
  0
LINE
  5
10F
330
1F
100
AcDbEntity
  8
0
  6
Continuous
 62
     7
370
    15
100
AcDbLine
 10
41.354640835
 20
17.082279577
 30
0.0
 11
41.6612396771
 21
16.9552797741
 31
0.0
  0
LINE
  5
110
330
1F
100
AcDbEntity
  8
0
  6
Continuous
 62
     7
370
    15
100
AcDbLine
 10
41.6612396771
 20
16.9552797741
 30
0.0
 11
43.609641009
 21
16.9552797741
 31
0.0
  0
ARC
  5
111
330
1F
100
AcDbEntity
  8
0
  6
Continuous
 62
     7
370
    15
100
AcDbCircle
 10
43.3974414625
 20
18.0220799705
 30
0.0
 40
1.087699903466025
100
AcDbArc
 50
281.2500148007
 51
78.7499851993
  0
LINE
  5
112
330
1F
100
AcDbEntity
  8
0
  6
Continuous
 62
     7
370
    15
100
AcDbLine
 10
43.609641009
 20
19.0888801879
 30
0.0
 11
41.6612396771
 21
19.0888801879
 31
0.0
  0
LINE
  5
113
330
1F
100
AcDbEntity
  8
0
  6
Continuous
 62
     7
370
    15
100
AcDbLine
 10
41.6612396771
 20
19.0888801879
 30
0.0
 11
41.354640835
 21
18.961880385
 31
0.0
  0
LINE
  5
114
330
1F
100
AcDbEntity
  8
0
  6
Continuous
 62
     7
370
    15
100
AcDbLine
 10
41.354640835
 20
18.961880385
 30
0.0
 11
39.4106427962
 21
18.961880385
 31
0.0
  0
ARC
  5
115
330
1F
100
AcDbEntity
  8
0
  6
Continuous
 62
     7
370
    15
100
AcDbCircle
 10
38.8211380614
 20
18.0220799705
 30
0.0
 40
1.109386452010685
100
AcDbArc
 50
57.9014012296
 51
302.0985987704
  0
LINE
  5
116
330
1F
100
AcDbEntity
  8
0
  6
Continuous
 62
     7
370
    15
100
AcDbLine
 10
41.354640835
 20
19.6222802913
 30
0.0
 11
41.6612396771
 21
19.4952795571
 31
0.0
  0
LINE
  5
117
330
1F
100
AcDbEntity
  8
0
  6
Continuous
 62
     7
370
    15
100
AcDbLine
 10
41.6612396771
 20
19.4952795571
 30
0.0
 11
43.609641009
 21
19.4952795571
 31
0.0
  0
ARC
  5
118
330
1F
100
AcDbEntity
  8
0
  6
Continuous
 62
     7
370
    15
100
AcDbCircle
 10
43.3974414625
 20
20.5620799705
 30
0.0
 40
1.087699903466028
100
AcDbArc
 50
281.2500148007
 51
78.7499851993
  0
LINE
  5
119
330
1F
100
AcDbEntity
  8
0
  6
Continuous
 62
     7
370
    15
100
AcDbLine
 10
43.609641009
 20
21.6288790396
 30
0.0
 11
41.6612396771
 21
21.6288790396
 31
0.0
  0
LINE
  5
11A
330
1F
100
AcDbEntity
  8
0
  6
Continuous
 62
     7
370
    15
100
AcDbLine
 10
41.6612396771
 20
21.6288790396
 30
0.0
 11
41.354640835
 21
21.501880168
 31
0.0
  0
LINE
  5
11B
330
1F
100
AcDbEntity
  8
0
  6
Continuous
 62
     7
370
    15
100
AcDbLine
 10
41.354640835
 20
21.501880168
 30
0.0
 11
39.4106427962
 21
21.501880168
 31
0.0
  0
ARC
  5
11C
330
1F
100
AcDbEntity
  8
0
  6
Continuous
 62
     7
370
    15
100
AcDbCircle
 10
38.8211380614
 20
20.5620799705
 30
0.0
 40
1.109386452010685
100
AcDbArc
 50
57.9014012296
 51
302.0985987704
  0
LINE
  5
11D
330
1F
100
AcDbEntity
  8
0
  6
Continuous
 62
     7
370
    15
100
AcDbLine
 10
41.354640835
 20
27.2422805718
 30
0.0
 11
41.6612396771
 21
27.1152798376
 31
0.0
  0
LINE
  5
11E
330
1F
100
AcDbEntity
  8
0
  6
Continuous
 62
     7
370
    15
100
AcDbLine
 10
41.6612396771
 20
27.1152798376
 30
0.0
 11
43.609641009
 21
27.1152798376
 31
0.0
  0
ARC
  5
11F
330
1F
100
AcDbEntity
  8
0
  6
Continuous
 62
     7
370
    15
100
AcDbCircle
 10
43.3974414625
 20
28.1820799705
 30
0.0
 40
1.087699903466025
100
AcDbArc
 50
281.2500148007
 51
78.7499851993
  0
LINE
  5
120
330
1F
100
AcDbEntity
  8
0
  6
Continuous
 62
     7
370
    15
100
AcDbLine
 10
43.609641009
 20
29.2488802514
 30
0.0
 11
41.6612396771
 21
29.2488802514
 31
0.0
  0
LINE
  5
121
330
1F
100
AcDbEntity
  8
0
  6
Continuous
 62
     7
370
    15
100
AcDbLine
 10
41.6612396771
 20
29.2488802514
 30
0.0
 11
41.354640835
 21
29.1218795171
 31
0.0
  0
LINE
  5
122
330
1F
100
AcDbEntity
  8
0
  6
Continuous
 62
     7
370
    15
100
AcDbLine
 10
41.354640835
 20
29.1218795171
 30
0.0
 11
39.4106427962
 21
29.1218795171
 31
0.0
  0
ARC
  5
123
330
1F
100
AcDbEntity
  8
0
  6
Continuous
 62
     7
370
    15
100
AcDbCircle
 10
38.8211380614
 20
28.1820799705
 30
0.0
 40
1.109386452010685
100
AcDbArc
 50
57.9014012296
 51
302.0985987704
  0
LINE
  5
124
330
1F
100
AcDbEntity
  8
0
  6
Continuous
 62
     7
370
    15
100
AcDbLine
 10
41.354640835
 20
29.7822803548
 30
0.0
 11
41.6612396771
 21
29.6552796206
 31
0.0
  0
LINE
  5
125
330
1F
100
AcDbEntity
  8
0
  6
Continuous
 62
     7
370
    15
100
AcDbLine
 10
41.6612396771
 20
29.6552796206
 30
0.0
 11
43.609641009
 21
29.6552796206
 31
0.0
  0
ARC
  5
126
330
1F
100
AcDbEntity
  8
0
  6
Continuous
 62
     7
370
    15
100
AcDbCircle
 10
43.3974414625
 20
30.7220799705
 30
0.0
 40
1.087699903466025
100
AcDbArc
 50
281.2500148007
 51
78.7499851993
  0
LINE
  5
127
330
1F
100
AcDbEntity
  8
0
  6
Continuous
 62
     7
370
    15
100
AcDbLine
 10
43.609641009
 20
31.7888800344
 30
0.0
 11
41.6612396771
 21
31.7888800344
 31
0.0
  0
LINE
  5
128
330
1F
100
AcDbEntity
  8
0
  6
Continuous
 62
     7
370
    15
100
AcDbLine
 10
41.6612396771
 20
31.7888800344
 30
0.0
 11
41.354640835
 21
31.6618793002
 31
0.0
  0
LINE
  5
129
330
1F
100
AcDbEntity
  8
0
  6
Continuous
 62
     7
370
    15
100
AcDbLine
 10
41.354640835
 20
31.6618793002
 30
0.0
 11
39.4106427962
 21
31.6618793002
 31
0.0
  0
ARC
  5
12A
330
1F
100
AcDbEntity
  8
0
  6
Continuous
 62
     7
370
    15
100
AcDbCircle
 10
38.8211380614
 20
30.7220799705
 30
0.0
 40
1.109386452010688
100
AcDbArc
 50
57.9014012296
 51
302.0985987704
  0
LINE
  5
12B
330
1F
100
AcDbEntity
  8
0
  6
Continuous
 62
     7
370
    15
100
AcDbLine
 10
41.354640835
 20
32.3222801378
 30
0.0
 11
41.6612396771
 21
32.1952794036
 31
0.0
  0
LINE
  5
12C
330
1F
100
AcDbEntity
  8
0
  6
Continuous
 62
     7
370
    15
100
AcDbLine
 10
41.6612396771
 20
32.1952794036
 30
0.0
 11
43.609641009
 21
32.1952794036
 31
0.0
  0
ARC
  5
12D
330
1F
100
AcDbEntity
  8
0
  6
Continuous
 62
     7
370
    15
100
AcDbCircle
 10
43.3974414625
 20
33.2620799705
 30
0.0
 40
1.087699903466025
100
AcDbArc
 50
281.2500148007
 51
78.7499851993
  0
LINE
  5
12E
330
1F
100
AcDbEntity
  8
0
  6
Continuous
 62
     7
370
    15
100
AcDbLine
 10
43.609641009
 20
34.3288798174
 30
0.0
 11
41.6612396771
 21
34.3288798174
 31
0.0
  0
LINE
  5
12F
330
1F
100
AcDbEntity
  8
0
  6
Continuous
 62
     7
370
    15
100
AcDbLine
 10
41.6612396771
 20
34.3288798174
 30
0.0
 11
41.354640835
 21
34.2018790832
 31
0.0
  0
LINE
  5
130
330
1F
100
AcDbEntity
  8
0
  6
Continuous
 62
     7
370
    15
100
AcDbLine
 10
41.354640835
 20
34.2018790832
 30
0.0
 11
39.4106427962
 21
34.2018790832
 31
0.0
  0
ARC
  5
131
330
1F
100
AcDbEntity
  8
0
  6
Continuous
 62
     7
370
    15
100
AcDbCircle
 10
38.8211380614
 20
33.2620799705
 30
0.0
 40
1.109386452010688
100
AcDbArc
 50
57.9014012296
 51
302.0985987704
  0
LINE
  5
132
330
1F
100
AcDbEntity
  8
0
  6
Continuous
 62
     7
370
    15
100
AcDbLine
 10
41.354640835
 20
34.8622799209
 30
0.0
 11
41.6612396771
 21
34.7352791867
 31
0.0
  0
LINE
  5
133
330
1F
100
AcDbEntity
  8
0
  6
Continuous
 62
     7
370
    15
100
AcDbLine
 10
41.6612396771
 20
34.7352791867
 30
0.0
 11
43.609641009
 21
34.7352791867
 31
0.0
  0
ARC
  5
134
330
1F
100
AcDbEntity
  8
0
  6
Continuous
 62
     7
370
    15
100
AcDbCircle
 10
43.3974414625
 20
35.8020799705
 30
0.0
 40
1.087699903466032
100
AcDbArc
 50
281.2500148007
 51
78.7499851993
  0
LINE
  5
135
330
1F
100
AcDbEntity
  8
0
  6
Continuous
 62
     7
370
    15
100
AcDbLine
 10
43.609641009
 20
36.8688796005
 30
0.0
 11
41.6612396771
 21
36.8688796005
 31
0.0
  0
LINE
  5
136
330
1F
100
AcDbEntity
  8
0
  6
Continuous
 62
     7
370
    15
100
AcDbLine
 10
41.6612396771
 20
36.8688796005
 30
0.0
 11
41.354640835
 21
36.7418807289
 31
0.0
  0
LINE
  5
137
330
1F
100
AcDbEntity
  8
0
  6
Continuous
 62
     7
370
    15
100
AcDbLine
 10
41.354640835
 20
36.7418807289
 30
0.0
 11
39.4106427962
 21
36.7418807289
 31
0.0
  0
ARC
  5
138
330
1F
100
AcDbEntity
  8
0
  6
Continuous
 62
     7
370
    15
100
AcDbCircle
 10
38.8211380614
 20
35.8020799705
 30
0.0
 40
1.109386452010688
100
AcDbArc
 50
57.9014012296
 51
302.0985987704
  0
LINE
  5
139
330
1F
100
AcDbEntity
  8
0
  6
Continuous
 62
     7
370
    15
100
AcDbLine
 10
41.354640835
 20
37.4022815666
 30
0.0
 11
41.6612396771
 21
37.2752789697
 31
0.0
  0
LINE
  5
13A
330
1F
100
AcDbEntity
  8
0
  6
Continuous
 62
     7
370
    15
100
AcDbLine
 10
41.6612396771
 20
37.2752789697
 30
0.0
 11
43.609641009
 21
37.2752789697
 31
0.0
  0
ARC
  5
13B
330
1F
100
AcDbEntity
  8
0
  6
Continuous
 62
     7
370
    15
100
AcDbCircle
 10
43.3974414625
 20
38.3420799705
 30
0.0
 40
1.087699903466028
100
AcDbArc
 50
281.2500148007
 51
78.7499851993
  0
LINE
  5
13C
330
1F
100
AcDbEntity
  8
0
  6
Continuous
 62
     7
370
    15
100
AcDbLine
 10
43.609641009
 20
39.4088793835
 30
0.0
 11
41.6612396771
 21
39.4088793835
 31
0.0
  0
LINE
  5
13D
330
1F
100
AcDbEntity
  8
0
  6
Continuous
 62
     7
370
    15
100
AcDbLine
 10
41.6612396771
 20
39.4088793835
 30
0.0
 11
41.354640835
 21
39.2818805119
 31
0.0
  0
LINE
  5
13E
330
1F
100
AcDbEntity
  8
0
  6
Continuous
 62
     7
370
    15
100
AcDbLine
 10
41.354640835
 20
39.2818805119
 30
0.0
 11
39.4106427962
 21
39.2818805119
 31
0.0
  0
ARC
  5
13F
330
1F
100
AcDbEntity
  8
0
  6
Continuous
 62
     7
370
    15
100
AcDbCircle
 10
38.8211380614
 20
38.3420799705
 30
0.0
 40
1.109386452010688
100
AcDbArc
 50
57.9014012296
 51
302.0985987704
  0
LINE
  5
140
330
1F
100
AcDbEntity
  8
0
  6
Continuous
 62
     7
370
    15
100
AcDbLine
 10
41.354640835
 20
45.0222809157
 30
0.0
 11
41.6612396771
 21
44.8952783188
 31
0.0
  0
LINE
  5
141
330
1F
100
AcDbEntity
  8
0
  6
Continuous
 62
     7
370
    15
100
AcDbLine
 10
41.6612396771
 20
44.8952783188
 30
0.0
 11
43.609641009
 21
44.8952783188
 31
0.0
  0
ARC
  5
142
330
1F
100
AcDbEntity
  8
0
  6
Continuous
 62
     7
370
    15
100
AcDbCircle
 10
43.3974414625
 20
45.9620799705
 30
0.0
 40
1.087699903466025
100
AcDbArc
 50
281.2500148007
 51
78.7499851993
  0
LINE
  5
143
330
1F
100
AcDbEntity
  8
0
  6
Continuous
 62
     7
370
    15
100
AcDbLine
 10
43.609641009
 20
47.0288787326
 30
0.0
 11
41.6612396771
 21
47.0288787326
 31
0.0
  0
LINE
  5
144
330
1F
100
AcDbEntity
  8
0
  6
Continuous
 62
     7
370
    15
100
AcDbLine
 10
41.6612396771
 20
47.0288787326
 30
0.0
 11
41.354640835
 21
46.9018798611
 31
0.0
  0
LINE
  5
145
330
1F
100
AcDbEntity
  8
0
  6
Continuous
 62
     7
370
    15
100
AcDbLine
 10
41.354640835
 20
46.9018798611
 30
0.0
 11
39.4106427962
 21
46.9018798611
 31
0.0
  0
ARC
  5
146
330
1F
100
AcDbEntity
  8
0
  6
Continuous
 62
     7
370
    15
100
AcDbCircle
 10
38.8211380614
 20
45.9620799705
 30
0.0
 40
1.109386452010682
100
AcDbArc
 50
57.9014012296
 51
302.0985987704
  0
LINE
  5
147
330
1F
100
AcDbEntity
  8
0
  6
Continuous
 62
     7
370
    15
100
AcDbLine
 10
41.354640835
 20
47.5622806987
 30
0.0
 11
41.6612396771
 21
47.4352818272
 31
0.0
  0
LINE
  5
148
330
1F
100
AcDbEntity
  8
0
  6
Continuous
 62
     7
370
    15
100
AcDbLine
 10
41.6612396771
 20
47.4352818272
 30
0.0
 11
43.609641009
 21
47.4352818272
 31
0.0
  0
ARC
  5
149
330
1F
100
AcDbEntity
  8
0
  6
Continuous
 62
     7
370
    15
100
AcDbCircle
 10
43.3974414625
 20
48.5020799705
 30
0.0
 40
1.087699903466034
100
AcDbArc
 50
281.2500148007
 51
78.7499851993
  0
LINE
  5
14A
330
1F
100
AcDbEntity
  8
0
  6
Continuous
 62
     7
370
    15
100
AcDbLine
 10
43.609641009
 20
49.5688785157
 30
0.0
 11
41.6612396771
 21
49.5688785157
 31
0.0
  0
LINE
  5
14B
330
1F
100
AcDbEntity
  8
0
  6
Continuous
 62
     7
370
    15
100
AcDbLine
 10
41.6612396771
 20
49.5688785157
 30
0.0
 11
41.354640835
 21
49.4418796441
 31
0.0
  0
LINE
  5
14C
330
1F
100
AcDbEntity
  8
0
  6
Continuous
 62
     7
370
    15
100
AcDbLine
 10
41.354640835
 20
49.4418796441
 30
0.0
 11
39.4106427962
 21
49.4418796441
 31
0.0
  0
ARC
  5
14D
330
1F
100
AcDbEntity
  8
0
  6
Continuous
 62
     7
370
    15
100
AcDbCircle
 10
38.8211380614
 20
48.5020799705
 30
0.0
 40
1.109386452010688
100
AcDbArc
 50
57.9014012296
 51
302.0985987704
  0
LINE
  5
14E
330
1F
100
AcDbEntity
  8
0
  6
Continuous
 62
     7
370
    15
100
AcDbLine
 10
41.354640835
 20
50.1022804818
 30
0.0
 11
41.6612396771
 21
49.9752816102
 31
0.0
  0
LINE
  5
14F
330
1F
100
AcDbEntity
  8
0
  6
Continuous
 62
     7
370
    15
100
AcDbLine
 10
41.6612396771
 20
49.9752816102
 30
0.0
 11
43.609641009
 21
49.9752816102
 31
0.0
  0
ARC
  5
150
330
1F
100
AcDbEntity
  8
0
  6
Continuous
 62
     7
370
    15
100
AcDbCircle
 10
43.3974414625
 20
51.0420799705
 30
0.0
 40
1.087699903466025
100
AcDbArc
 50
281.2500148007
 51
78.7499851993
  0
LINE
  5
151
330
1F
100
AcDbEntity
  8
0
  6
Continuous
 62
     7
370
    15
100
AcDbLine
 10
43.609641009
 20
52.1088782987
 30
0.0
 11
41.6612396771
 21
52.1088782987
 31
0.0
  0
LINE
  5
152
330
1F
100
AcDbEntity
  8
0
  6
Continuous
 62
     7
370
    15
100
AcDbLine
 10
41.6612396771
 20
52.1088782987
 30
0.0
 11
41.354640835
 21
51.9818794271
 31
0.0
  0
LINE
  5
153
330
1F
100
AcDbEntity
  8
0
  6
Continuous
 62
     7
370
    15
100
AcDbLine
 10
41.354640835
 20
51.9818794271
 30
0.0
 11
39.4106427962
 21
51.9818794271
 31
0.0
  0
ARC
  5
154
330
1F
100
AcDbEntity
  8
0
  6
Continuous
 62
     7
370
    15
100
AcDbCircle
 10
38.8211380614
 20
51.0420799705
 30
0.0
 40
1.109386452010682
100
AcDbArc
 50
57.9014012296
 51
302.0985987704
  0
LINE
  5
155
330
1F
100
AcDbEntity
  8
0
  6
Continuous
 62
     7
370
    15
100
AcDbLine
 10
20.749641099
 20
52.1088782987
 30
0.0
 11
18.8012416298
 21
52.1088782987
 31
0.0
  0
ARC
  5
156
330
1F
100
AcDbEntity
  8
0
  6
Continuous
 62
     7
370
    15
100
AcDbCircle
 10
19.0134414625
 20
51.0420799705
 30
0.0
 40
1.087699903466028
100
AcDbArc
 50
101.2500148007
 51
258.7499851993
  0
LINE
  5
157
330
1F
100
AcDbEntity
  8
0
  6
Continuous
 62
     7
370
    15
100
AcDbLine
 10
18.8012416298
 20
49.9752816102
 30
0.0
 11
20.749641099
 21
49.9752816102
 31
0.0
  0
LINE
  5
158
330
1F
100
AcDbEntity
  8
0
  6
Continuous
 62
     7
370
    15
100
AcDbLine
 10
20.749641099
 20
49.9752816102
 30
0.0
 11
21.0562418038
 21
50.1022804818
 31
0.0
  0
LINE
  5
159
330
1F
100
AcDbEntity
  8
0
  6
Continuous
 62
     7
370
    15
100
AcDbLine
 10
21.0562418038
 20
50.1022804818
 30
0.0
 11
23.0002417052
 21
50.1022804818
 31
0.0
  0
ARC
  5
15A
330
1F
100
AcDbEntity
  8
0
  6
Continuous
 62
     7
370
    15
100
AcDbCircle
 10
23.5897448636
 20
51.0420799705
 30
0.0
 40
1.109386452010684
100
AcDbArc
 50
237.9014012296
 51
122.0985987704
  0
LINE
  5
15B
330
1F
100
AcDbEntity
  8
0
  6
Continuous
 62
     7
370
    15
100
AcDbLine
 10
23.0002417052
 20
51.9818794271
 30
0.0
 11
21.0562418038
 21
51.9818794271
 31
0.0
  0
LINE
  5
15C
330
1F
100
AcDbEntity
  8
0
  6
Continuous
 62
     7
370
    15
100
AcDbLine
 10
20.749641099
 20
47.0288787326
 30
0.0
 11
18.8012416298
 21
47.0288787326
 31
0.0
  0
ARC
  5
15D
330
1F
100
AcDbEntity
  8
0
  6
Continuous
 62
     7
370
    15
100
AcDbCircle
 10
19.0134414625
 20
45.9620799705
 30
0.0
 40
1.087699903466026
100
AcDbArc
 50
101.2500148007
 51
258.7499851993
  0
LINE
  5
15E
330
1F
100
AcDbEntity
  8
0
  6
Continuous
 62
     7
370
    15
100
AcDbLine
 10
18.8012416298
 20
44.8952783188
 30
0.0
 11
20.749641099
 21
44.8952783188
 31
0.0
  0
LINE
  5
15F
330
1F
100
AcDbEntity
  8
0
  6
Continuous
 62
     7
370
    15
100
AcDbLine
 10
20.749641099
 20
44.8952783188
 30
0.0
 11
21.0562418038
 21
45.0222809157
 31
0.0
  0
LINE
  5
160
330
1F
100
AcDbEntity
  8
0
  6
Continuous
 62
     7
370
    15
100
AcDbLine
 10
21.0562418038
 20
45.0222809157
 30
0.0
 11
23.0002417052
 21
45.0222809157
 31
0.0
  0
ARC
  5
161
330
1F
100
AcDbEntity
  8
0
  6
Continuous
 62
     7
370
    15
100
AcDbCircle
 10
23.5897448636
 20
45.9620799705
 30
0.0
 40
1.109386452010684
100
AcDbArc
 50
237.9014012296
 51
122.0985987704
  0
LINE
  5
162
330
1F
100
AcDbEntity
  8
0
  6
Continuous
 62
     7
370
    15
100
AcDbLine
 10
23.0002417052
 20
46.9018798611
 30
0.0
 11
21.0562418038
 21
46.9018798611
 31
0.0
  0
LINE
  5
163
330
1F
100
AcDbEntity
  8
0
  6
Continuous
 62
     7
370
    15
100
AcDbLine
 10
20.749641099
 20
41.9488791665
 30
0.0
 11
18.8012416298
 21
41.9488791665
 31
0.0
  0
ARC
  5
164
330
1F
100
AcDbEntity
  8
0
  6
Continuous
 62
     7
370
    15
100
AcDbCircle
 10
19.0134414625
 20
40.8820799705
 30
0.0
 40
1.087699903466025
100
AcDbArc
 50
101.2500148007
 51
258.7499851993
  0
LINE
  5
165
330
1F
100
AcDbEntity
  8
0
  6
Continuous
 62
     7
370
    15
100
AcDbLine
 10
18.8012416298
 20
39.8152787527
 30
0.0
 11
20.749641099
 21
39.8152787527
 31
0.0
  0
LINE
  5
166
330
1F
100
AcDbEntity
  8
0
  6
Continuous
 62
     7
370
    15
100
AcDbLine
 10
20.749641099
 20
39.8152787527
 30
0.0
 11
21.0562418038
 21
39.9422813496
 31
0.0
  0
LINE
  5
167
330
1F
100
AcDbEntity
  8
0
  6
Continuous
 62
     7
370
    15
100
AcDbLine
 10
21.0562418038
 20
39.9422813496
 30
0.0
 11
23.0002417052
 21
39.9422813496
 31
0.0
  0
ARC
  5
168
330
1F
100
AcDbEntity
  8
0
  6
Continuous
 62
     7
370
    15
100
AcDbCircle
 10
23.5897448636
 20
40.8820799705
 30
0.0
 40
1.109386452010688
100
AcDbArc
 50
237.9014012296
 51
122.0985987704
  0
LINE
  5
169
330
1F
100
AcDbEntity
  8
0
  6
Continuous
 62
     7
370
    15
100
AcDbLine
 10
23.0002417052
 20
41.821880295
 30
0.0
 11
21.0562418038
 21
41.821880295
 31
0.0
  0
LINE
  5
16A
330
1F
100
AcDbEntity
  8
0
  6
Continuous
 62
     7
370
    15
100
AcDbLine
 10
20.749641099
 20
36.8688796005
 30
0.0
 11
18.8012416298
 21
36.8688796005
 31
0.0
  0
ARC
  5
16B
330
1F
100
AcDbEntity
  8
0
  6
Continuous
 62
     7
370
    15
100
AcDbCircle
 10
19.0134414625
 20
35.8020799705
 30
0.0
 40
1.087699903466034
100
AcDbArc
 50
101.2500148007
 51
258.7499851993
  0
LINE
  5
16C
330
1F
100
AcDbEntity
  8
0
  6
Continuous
 62
     7
370
    15
100
AcDbLine
 10
18.8012416298
 20
34.7352791867
 30
0.0
 11
20.749641099
 21
34.7352791867
 31
0.0
  0
LINE
  5
16D
330
1F
100
AcDbEntity
  8
0
  6
Continuous
 62
     7
370
    15
100
AcDbLine
 10
20.749641099
 20
34.7352791867
 30
0.0
 11
21.0562418038
 21
34.8622799209
 31
0.0
  0
LINE
  5
16E
330
1F
100
AcDbEntity
  8
0
  6
Continuous
 62
     7
370
    15
100
AcDbLine
 10
21.0562418038
 20
34.8622799209
 30
0.0
 11
23.0002417052
 21
34.8622799209
 31
0.0
  0
ARC
  5
16F
330
1F
100
AcDbEntity
  8
0
  6
Continuous
 62
     7
370
    15
100
AcDbCircle
 10
23.5897448636
 20
35.8020799705
 30
0.0
 40
1.10938645201069
100
AcDbArc
 50
237.9014012296
 51
122.0985987704
  0
LINE
  5
170
330
1F
100
AcDbEntity
  8
0
  6
Continuous
 62
     7
370
    15
100
AcDbLine
 10
23.0002417052
 20
36.7418807289
 30
0.0
 11
21.0562418038
 21
36.7418807289
 31
0.0
  0
LINE
  5
171
330
1F
100
AcDbEntity
  8
0
  6
Continuous
 62
     7
370
    15
100
AcDbLine
 10
20.749641099
 20
26.7088804683
 30
0.0
 11
18.8012416298
 21
26.7088804683
 31
0.0
  0
ARC
  5
172
330
1F
100
AcDbEntity
  8
0
  6
Continuous
 62
     7
370
    15
100
AcDbCircle
 10
19.0134414625
 20
25.6420799705
 30
0.0
 40
1.08769990346603
100
AcDbArc
 50
101.2500148007
 51
258.7499851993
  0
LINE
  5
173
330
1F
100
AcDbEntity
  8
0
  6
Continuous
 62
     7
370
    15
100
AcDbLine
 10
18.8012416298
 20
24.5752800545
 30
0.0
 11
20.749641099
 21
24.5752800545
 31
0.0
  0
LINE
  5
174
330
1F
100
AcDbEntity
  8
0
  6
Continuous
 62
     7
370
    15
100
AcDbLine
 10
20.749641099
 20
24.5752800545
 30
0.0
 11
21.0562418038
 21
24.7022807887
 31
0.0
  0
LINE
  5
175
330
1F
100
AcDbEntity
  8
0
  6
Continuous
 62
     7
370
    15
100
AcDbLine
 10
21.0562418038
 20
24.7022807887
 30
0.0
 11
23.0002417052
 21
24.7022807887
 31
0.0
  0
ARC
  5
176
330
1F
100
AcDbEntity
  8
0
  6
Continuous
 62
     7
370
    15
100
AcDbCircle
 10
23.5897448636
 20
25.6420799705
 30
0.0
 40
1.109386452010685
100
AcDbArc
 50
237.9014012296
 51
122.0985987704
  0
LINE
  5
177
330
1F
100
AcDbEntity
  8
0
  6
Continuous
 62
     7
370
    15
100
AcDbLine
 10
23.0002417052
 20
26.5818797341
 30
0.0
 11
21.0562418038
 21
26.5818797341
 31
0.0
  0
LINE
  5
178
330
1F
100
AcDbEntity
  8
0
  6
Continuous
 62
     7
370
    15
100
AcDbLine
 10
18.4946418563
 20
14.5422797939
 30
0.0
 11
18.8012416298
 21
14.415279991
 31
0.0
  0
LINE
  5
179
330
1F
100
AcDbEntity
  8
0
  6
Continuous
 62
     7
370
    15
100
AcDbLine
 10
18.8012416298
 20
14.415279991
 30
0.0
 11
20.749641099
 21
14.415279991
 31
0.0
  0
LINE
  5
17A
330
1F
100
AcDbEntity
  8
0
  6
Continuous
 62
     7
370
    15
100
AcDbLine
 10
20.749641099
 20
14.415279991
 30
0.0
 11
21.0562418038
 21
14.5422797939
 31
0.0
  0
LINE
  5
17B
330
1F
100
AcDbEntity
  8
0
  6
Continuous
 62
     7
370
    15
100
AcDbLine
 10
21.0562418038
 20
14.5422797939
 30
0.0
 11
23.0002417052
 21
14.5422797939
 31
0.0
  0
ARC
  5
17C
330
1F
100
AcDbEntity
  8
0
  6
Continuous
 62
     7
370
    15
100
AcDbCircle
 10
23.5897448636
 20
15.4820799705
 30
0.0
 40
1.109386452010684
100
AcDbArc
 50
237.9014012296
 51
122.0985987704
  0
LINE
  5
17D
330
1F
100
AcDbEntity
  8
0
  6
Continuous
 62
     7
370
    15
100
AcDbLine
 10
23.0002417052
 20
16.4218796706
 30
0.0
 11
21.0562418038
 21
16.4218796706
 31
0.0
  0
LINE
  5
17E
330
1F
100
AcDbEntity
  8
0
  6
Continuous
 62
     7
370
    15
100
AcDbLine
 10
21.0562418038
 20
16.4218796706
 30
0.0
 11
20.749641099
 21
16.5488804048
 31
0.0
  0
LINE
  5
17F
330
1F
100
AcDbEntity
  8
0
  6
Continuous
 62
     7
370
    15
100
AcDbLine
 10
20.749641099
 20
16.5488804048
 30
0.0
 11
18.8012416298
 21
16.5488804048
 31
0.0
  0
LINE
  5
180
330
1F
100
AcDbEntity
  8
0
  6
Continuous
 62
     7
370
    15
100
AcDbLine
 10
18.8012416298
 20
16.5488804048
 30
0.0
 11
18.4946418563
 21
16.4218796706
 31
0.0
  0
LINE
  5
181
330
1F
100
AcDbEntity
  8
0
  6
Continuous
 62
     7
370
    15
100
AcDbLine
 10
18.4946418563
 20
16.4218796706
 30
0.0
 11
14.5085411901
 21
16.4218796706
 31
0.0
  0
ARC
  5
182
330
1F
100
AcDbEntity
  8
0
  6
Continuous
 62
     7
370
    15
100
AcDbCircle
 10
14.5085414625
 20
15.6689799705
 30
0.0
 40
0.7529000000000021
100
AcDbArc
 50
90.0
 51
180.0
  0
LINE
  5
183
330
1F
100
AcDbEntity
  8
0
  6
Continuous
 62
     7
370
    15
100
AcDbLine
 10
13.7556413943
 20
15.6689798749
 30
0.0
 11
13.7556413943
 21
12.3457769221
 31
0.0
  0
ARC
  5
184
330
1F
100
AcDbEntity
  8
0
  6
Continuous
 62
     7
370
    15
100
AcDbCircle
 10
14.6700414625
 20
11.3927169691
 30
0.0
 40
1.320776810186595
100
AcDbArc
 50
133.8140266111
 51
168.7503437457
  0
LINE
  5
185
330
1F
100
AcDbEntity
  8
0
  6
Continuous
 62
     7
370
    15
100
AcDbLine
 10
13.3746410543
 20
11.6503797761
 30
0.0
 11
13.3746410543
 21
9.1537800907
 31
0.0
  0
ARC
  5
186
330
1F
100
AcDbEntity
  8
0
  6
Continuous
 62
     7
370
    15
100
AcDbCircle
 10
14.6700414625
 20
9.4114799705
 30
0.0
 40
1.320784028522454
100
AcDbArc
 50
191.2512304175
 51
348.7487695825
  0
LINE
  5
187
330
1F
100
AcDbEntity
  8
0
  6
Continuous
 62
     7
370
    15
100
AcDbLine
 10
15.9654416898
 20
9.1537800907
 30
0.0
 11
15.9654416898
 21
11.6503797761
 31
0.0
  0
ARC
  5
188
330
1F
100
AcDbEntity
  8
0
  6
Continuous
 62
     7
370
    15
100
AcDbCircle
 10
14.6700414625
 20
11.3927169691
 30
0.0
 40
1.320776810186593
100
AcDbArc
 50
11.2496562543
 51
43.0480028562
  0
LINE
  5
189
330
1F
100
AcDbEntity
  8
0
  6
Continuous
 62
     7
370
    15
100
AcDbLine
 10
15.635241271
 20
12.2942934102
 30
0.0
 11
15.635241271
 21
14.5422797939
 31
0.0
  0
ARC
  5
18A
330
1F
100
AcDbEntity
  8
0
  6
Continuous
 62
     7
370
    15
100
AcDbCircle
 10
47.4423414625
 20
25.8289799705
 30
0.0
 40
0.7528999999999968
100
AcDbArc
 50
0.0
 51
90.0
  0
LINE
  5
18B
330
1F
100
AcDbEntity
  8
0
  6
Continuous
 62
     7
370
    15
100
AcDbLine
 10
47.4423426027
 20
26.5818797341
 30
0.0
 11
43.9162398512
 21
26.5818797341
 31
0.0
  0
LINE
  5
18C
330
1F
100
AcDbEntity
  8
0
  6
Continuous
 62
     7
370
    15
100
AcDbLine
 10
43.9162398512
 20
26.5818797341
 30
0.0
 11
43.609641009
 21
26.7088804683
 31
0.0
  0
LINE
  5
18D
330
1F
100
AcDbEntity
  8
0
  6
Continuous
 62
     7
370
    15
100
AcDbLine
 10
43.609641009
 20
26.7088804683
 30
0.0
 11
41.6612396771
 21
26.7088804683
 31
0.0
  0
LINE
  5
18E
330
1F
100
AcDbEntity
  8
0
  6
Continuous
 62
     7
370
    15
100
AcDbLine
 10
41.6612396771
 20
26.7088804683
 30
0.0
 11
41.354640835
 21
26.5818797341
 31
0.0
  0
LINE
  5
18F
330
1F
100
AcDbEntity
  8
0
  6
Continuous
 62
     7
370
    15
100
AcDbLine
 10
41.354640835
 20
26.5818797341
 30
0.0
 11
39.4106427962
 21
26.5818797341
 31
0.0
  0
ARC
  5
190
330
1F
100
AcDbEntity
  8
0
  6
Continuous
 62
     7
370
    15
100
AcDbCircle
 10
38.8211380614
 20
25.6420799705
 30
0.0
 40
1.109386452010685
100
AcDbArc
 50
57.9014012296
 51
302.0985987704
  0
LINE
  5
191
330
1F
100
AcDbEntity
  8
0
  6
Continuous
 62
     7
370
    15
100
AcDbLine
 10
39.4106427962
 20
24.7022807887
 30
0.0
 11
41.354640835
 21
24.7022807887
 31
0.0
  0
LINE
  5
192
330
1F
100
AcDbEntity
  8
0
  6
Continuous
 62
     7
370
    15
100
AcDbLine
 10
41.354640835
 20
24.7022807887
 30
0.0
 11
41.6612396771
 21
24.5752800545
 31
0.0
  0
LINE
  5
193
330
1F
100
AcDbEntity
  8
0
  6
Continuous
 62
     7
370
    15
100
AcDbLine
 10
41.6612396771
 20
24.5752800545
 30
0.0
 11
43.609641009
 21
24.5752800545
 31
0.0
  0
LINE
  5
194
330
1F
100
AcDbEntity
  8
0
  6
Continuous
 62
     7
370
    15
100
AcDbLine
 10
43.609641009
 20
24.5752800545
 30
0.0
 11
43.9162398512
 21
24.7022807887
 31
0.0
  0
LINE
  5
195
330
1F
100
AcDbEntity
  8
0
  6
Continuous
 62
     7
370
    15
100
AcDbLine
 10
43.9162398512
 20
24.7022807887
 30
0.0
 11
46.3156397278
 21
24.7022807887
 31
0.0
  0
LINE
  5
196
330
1F
100
AcDbEntity
  8
0
  6
Continuous
 62
     7
370
    15
100
AcDbLine
 10
46.3156397278
 20
24.7022807887
 30
0.0
 11
46.3156397278
 21
18.2586796871
 31
0.0
  0
ARC
  5
197
330
1F
100
AcDbEntity
  8
0
  6
Continuous
 62
     7
370
    15
100
AcDbCircle
 10
47.2554414625
 20
18.0151951077
 30
0.0
 40
0.9708289851546187
100
AcDbArc
 50
165.475084776
 51
14.524915224
  0
LINE
  5
198
330
1F
100
AcDbEntity
  8
0
  6
Continuous
 62
     7
370
    15
100
AcDbLine
 10
43.609641009
 20
41.9488791665
 30
0.0
 11
41.6612396771
 21
41.9488791665
 31
0.0
  0
LINE
  5
199
330
1F
100
AcDbEntity
  8
0
  6
Continuous
 62
     7
370
    15
100
AcDbLine
 10
41.6612396771
 20
41.9488791665
 30
0.0
 11
41.354640835
 21
41.821880295
 31
0.0
  0
LINE
  5
19A
330
1F
100
AcDbEntity
  8
0
  6
Continuous
 62
     7
370
    15
100
AcDbLine
 10
41.354640835
 20
41.821880295
 30
0.0
 11
39.4106427962
 21
41.821880295
 31
0.0
  0
ARC
  5
19B
330
1F
100
AcDbEntity
  8
0
  6
Continuous
 62
     7
370
    15
100
AcDbCircle
 10
38.8211380614
 20
40.8820799705
 30
0.0
 40
1.109386452010688
100
AcDbArc
 50
57.9014012296
 51
302.0985987704
  0
LINE
  5
19C
330
1F
100
AcDbEntity
  8
0
  6
Continuous
 62
     7
370
    15
100
AcDbLine
 10
39.4106427962
 20
39.9422813496
 30
0.0
 11
41.354640835
 21
39.9422813496
 31
0.0
  0
LINE
  5
19D
330
1F
100
AcDbEntity
  8
0
  6
Continuous
 62
     7
370
    15
100
AcDbLine
 10
41.354640835
 20
39.9422813496
 30
0.0
 11
41.6612396771
 21
39.8152787527
 31
0.0
  0
LINE
  5
19E
330
1F
100
AcDbEntity
  8
0
  6
Continuous
 62
     7
370
    15
100
AcDbLine
 10
41.6612396771
 20
39.8152787527
 30
0.0
 11
43.609641009
 21
39.8152787527
 31
0.0
  0
LINE
  5
19F
330
1F
100
AcDbEntity
  8
0
  6
Continuous
 62
     7
370
    15
100
AcDbLine
 10
43.609641009
 20
39.8152787527
 30
0.0
 11
43.9162398512
 21
39.9422813496
 31
0.0
  0
LINE
  5
1A0
330
1F
100
AcDbEntity
  8
0
  6
Continuous
 62
     7
370
    15
100
AcDbLine
 10
43.9162398512
 20
39.9422813496
 30
0.0
 11
47.0188404257
 21
39.9422813496
 31
0.0
  0
ARC
  5
1A1
330
1F
100
AcDbEntity
  8
0
  6
Continuous
 62
     7
370
    15
100
AcDbCircle
 10
47.263254427
 20
40.8820799705
 30
0.0
 40
0.9710621696064075
100
AcDbArc
 50
255.4220740254
 51
104.5779259746
  0
LINE
  5
1A2
330
1F
100
AcDbEntity
  8
0
  6
Continuous
 62
     7
370
    15
100
AcDbLine
 10
47.0188404257
 20
41.821880295
 30
0.0
 11
43.9162398512
 21
41.821880295
 31
0.0
  0
LINE
  5
1A3
330
1F
100
AcDbEntity
  8
0
  6
Continuous
 62
     7
370
    15
100
AcDbLine
 10
27.065241226
 20
8.8018798558
 30
0.0
 11
27.065241226
 21
23.2889801553
 31
0.0
  0
ARC
  5
1A4
330
1F
100
AcDbEntity
  8
0
  6
Continuous
 62
     7
370
    15
100
AcDbCircle
 10
26.3123414625
 20
23.2889799705
 30
0.0
 40
0.7529000000000003
100
AcDbArc
 50
0.0
 51
90.0
  0
LINE
  5
1A5
330
1F
100
AcDbEntity
  8
0
  6
Continuous
 62
     7
370
    15
100
AcDbLine
 10
26.3123414302
 20
24.0418799511
 30
0.0
 11
24.1706422353
 21
24.0418799511
 31
0.0
  0
ARC
  5
1A6
330
1F
100
AcDbEntity
  8
0
  6
Continuous
 62
     7
370
    15
100
AcDbCircle
 10
23.5854414625
 20
23.1494456201
 30
0.0
 40
1.067191693072353
100
AcDbArc
 50
56.7457615026
 51
123.2542384974
  0
LINE
  5
1A7
330
1F
100
AcDbEntity
  8
0
  6
Continuous
 62
     7
370
    15
100
AcDbLine
 10
23.0002417052
 20
24.0418799511
 30
0.0
 11
21.0562418038
 21
24.0418799511
 31
0.0
  0
LINE
  5
1A8
330
1F
100
AcDbEntity
  8
0
  6
Continuous
 62
     7
370
    15
100
AcDbLine
 10
21.0562418038
 20
24.0418799511
 30
0.0
 11
20.749641099
 21
24.1688806853
 31
0.0
  0
LINE
  5
1A9
330
1F
100
AcDbEntity
  8
0
  6
Continuous
 62
     7
370
    15
100
AcDbLine
 10
20.749641099
 20
24.1688806853
 30
0.0
 11
18.8012416298
 21
24.1688806853
 31
0.0
  0
LINE
  5
1AA
330
1F
100
AcDbEntity
  8
0
  6
Continuous
 62
     7
370
    15
100
AcDbLine
 10
18.8012416298
 20
24.1688806853
 30
0.0
 11
18.4946418563
 21
24.0418799511
 31
0.0
  0
LINE
  5
1AB
330
1F
100
AcDbEntity
  8
0
  6
Continuous
 62
     7
370
    15
100
AcDbLine
 10
18.4946418563
 20
24.0418799511
 30
0.0
 11
17.0322418967
 21
24.0418799511
 31
0.0
  0
ARC
  5
1AC
330
1F
100
AcDbEntity
  8
0
  6
Continuous
 62
     7
370
    15
100
AcDbCircle
 10
15.9654414625
 20
23.8716255273
 30
0.0
 40
1.08030033575275
100
AcDbArc
 50
9.0675712083
 51
170.9324287917
  0
LINE
  5
1AD
330
1F
100
AcDbEntity
  8
0
  6
Continuous
 62
     7
370
    15
100
AcDbLine
 10
14.8986414829
 20
24.0418799511
 30
0.0
 11
14.4922411824
 21
24.0418799511
 31
0.0
  0
ARC
  5
1AE
330
1F
100
AcDbEntity
  8
0
  6
Continuous
 62
     7
370
    15
100
AcDbCircle
 10
13.4254414625
 20
23.8716255273
 30
0.0
 40
1.080300335752753
100
AcDbArc
 50
9.0675712083
 51
29.5479529388
  0
LINE
  5
1AF
330
1F
100
AcDbEntity
  8
0
  6
Continuous
 62
     7
370
    15
100
AcDbLine
 10
14.3652413795
 20
24.4043767741
 30
0.0
 11
14.3652413795
 21
32.1789793959
 31
0.0
  0
ARC
  5
1B0
330
1F
100
AcDbEntity
  8
0
  6
Continuous
 62
     7
370
    15
100
AcDbCircle
 10
13.6123414625
 20
32.1789799705
 30
0.0
 40
0.7529000000000039
100
AcDbArc
 50
0.0
 51
90.0
  0
LINE
  5
1B1
330
1F
100
AcDbEntity
  8
0
  6
Continuous
 62
     7
370
    15
100
AcDbLine
 10
13.6123415837
 20
32.9318791917
 30
0.0
 11
12.0952413241
 21
32.9318791917
 31
0.0
  0
LINE
  5
1B2
330
1F
100
AcDbEntity
  8
0
  6
Continuous
 62
     7
370
    15
100
AcDbLine
 10
12.0952413241
 20
32.9318791917
 30
0.0
 11
12.0952413241
 21
38.1054785392
 31
0.0
  0
ARC
  5
1B3
330
1F
100
AcDbEntity
  8
0
  6
Continuous
 62
     7
370
    15
100
AcDbCircle
 10
11.1554414625
 20
38.3489648334
 30
0.0
 40
0.970828985154623
100
AcDbArc
 50
345.475084776
 51
194.524915224
  0
LINE
  5
1B4
330
1F
100
AcDbEntity
  8
0
  6
Continuous
 62
     7
370
    15
100
AcDbLine
 10
10.2156414474
 20
38.1054785392
 30
0.0
 11
10.2156414474
 21
31.8051800421
 31
0.0
  0
ARC
  5
1B5
330
1F
100
AcDbEntity
  8
0
  6
Continuous
 62
     7
370
    15
100
AcDbCircle
 10
10.9685414625
 20
31.8051799705
 30
0.0
 40
0.7529000000000039
100
AcDbArc
 50
180.0
 51
270.0
  0
LINE
  5
1B6
330
1F
100
AcDbEntity
  8
0
  6
Continuous
 62
     7
370
    15
100
AcDbLine
 10
10.9685412431
 20
31.0522802463
 30
0.0
 11
12.4856415028
 21
31.0522802463
 31
0.0
  0
LINE
  5
1B7
330
1F
100
AcDbEntity
  8
0
  6
Continuous
 62
     7
370
    15
100
AcDbLine
 10
12.4856415028
 20
31.0522802463
 30
0.0
 11
12.4856415028
 21
24.4043767741
 31
0.0
  0
ARC
  5
1B8
330
1F
100
AcDbEntity
  8
0
  6
Continuous
 62
     7
370
    15
100
AcDbCircle
 10
13.4254414625
 20
23.8716255273
 30
0.0
 40
1.080300335752749
100
AcDbArc
 50
150.4520470612
 51
170.9324287917
  0
LINE
  5
1B9
330
1F
100
AcDbEntity
  8
0
  6
Continuous
 62
     7
370
    15
100
AcDbLine
 10
12.3586412342
 20
24.0418799511
 30
0.0
 11
11.9522413993
 21
24.0418799511
 31
0.0
  0
ARC
  5
1BA
330
1F
100
AcDbEntity
  8
0
  6
Continuous
 62
     7
370
    15
100
AcDbCircle
 10
10.8854414625
 20
23.8716255273
 30
0.0
 40
1.08030033575275
100
AcDbArc
 50
9.0675712083
 51
170.9324287917
  0
LINE
  5
1BB
330
1F
100
AcDbEntity
  8
0
  6
Continuous
 62
     7
370
    15
100
AcDbLine
 10
9.8186414512
 20
24.0418799511
 30
0.0
 11
9.4122416163
 21
24.0418799511
 31
0.0
  0
ARC
  5
1BC
330
1F
100
AcDbEntity
  8
0
  6
Continuous
 62
     7
370
    15
100
AcDbCircle
 10
8.3421191398
 20
23.8530187003
 30
0.0
 40
1.086660188333987
100
AcDbArc
 50
10.0088186078
 51
51.5560243161
  0
ARC
  5
1BD
330
1F
100
AcDbEntity
  8
0
  6
Continuous
 62
     7
370
    15
100
AcDbCircle
 10
8.3622351108
 20
28.1820799705
 30
0.0
 40
3.539206351706037
100
AcDbArc
 50
280.6736662459
 51
136.2546478395
  0
LINE
  5
1BE
330
1F
100
AcDbEntity
  8
0
  6
Continuous
 62
     7
370
    15
100
AcDbLine
 10
5.80544151
 20
30.6292791209
 30
0.0
 11
5.80544151
 21
51.1348787984
 31
0.0
  0
ARC
  5
1BF
330
1F
100
AcDbEntity
  8
0
  6
Continuous
 62
     7
370
    15
100
AcDbCircle
 10
8.3644859278
 20
53.5496740573
 30
0.0
 40
3.518513756865338
100
AcDbArc
 50
223.3387836698
 51
46.979179787
  0
LINE
  5
1C0
330
1F
100
AcDbEntity
  8
0
  6
Continuous
 62
     7
370
    15
100
AcDbLine
 10
10.7650416726
 20
56.1220813832
 30
0.0
 11
51.5976431603
 21
56.1220813832
 31
0.0
  0
ARC
  5
1C1
330
1F
100
AcDbEntity
  8
0
  6
Continuous
 62
     7
370
    15
100
AcDbCircle
 10
54.0362997188
 20
53.5717314388
 30
0.0
 40
3.528644459924151
100
AcDbArc
 50
133.7175177567
 51
316.7258231382
  0
LINE
  5
1C2
330
1F
100
AcDbEntity
  8
0
  6
Continuous
 62
     7
370
    15
100
AcDbLine
 10
56.6054428751
 20
51.1528794012
 30
0.0
 11
56.6054428751
 21
10.2912797882
 31
0.0
  0
ARC
  5
1C3
330
1F
100
AcDbEntity
  8
0
  6
Continuous
 62
     7
370
    15
100
AcDbCircle
 10
54.0362997188
 20
7.8724285023
 30
0.0
 40
3.528644459924158
100
AcDbArc
 50
43.2741768618
 51
226.2824822433
  0
LINE
  5
1C4
330
1F
100
AcDbEntity
  8
0
  6
Continuous
 62
     7
370
    15
100
AcDbLine
 10
51.5976431603
 20
5.322080018
 30
0.0
 11
5.80544151
 21
5.322080018
 31
0.0
  0
LINE
  5
1C5
330
1F
100
AcDbEntity
  8
0
  6
Continuous
 62
     7
370
    15
100
AcDbLine
 10
5.80544151
 20
5.322080018
 30
0.0
 11
5.80544151
 21
25.7348791054
 31
0.0
  0
ARC
  5
1C6
330
1F
100
AcDbEntity
  8
0
  6
Continuous
 62
     7
370
    15
100
AcDbCircle
 10
8.3622351108
 20
28.1820799705
 30
0.0
 40
3.539206351706035
100
AcDbArc
 50
223.7453521605
 51
258.7938617603
  0
ARC
  5
1C7
330
1F
100
AcDbEntity
  8
0
  6
Continuous
 62
     7
370
    15
100
AcDbCircle
 10
8.3421191398
 20
23.8530187003
 30
0.0
 40
1.086660188333987
100
AcDbArc
 50
127.9115036901
 51
168.143783514
  0
LINE
  5
1C8
330
1F
100
AcDbEntity
  8
0
  6
Continuous
 62
     7
370
    15
100
AcDbLine
 10
7.2786414353
 20
24.0762792817
 30
0.0
 11
7.2786414353
 21
22.1278798124
 31
0.0
  0
ARC
  5
1C9
330
1F
100
AcDbEntity
  8
0
  6
Continuous
 62
     7
370
    15
100
AcDbCircle
 10
8.3423715566
 20
22.3354855291
 30
0.0
 40
1.083799696004776
100
AcDbArc
 50
191.0434549968
 51
350.8039428814
  0
LINE
  5
1CA
330
1F
100
AcDbEntity
  8
0
  6
Continuous
 62
     7
370
    15
100
AcDbLine
 10
9.4122416163
 20
22.162279143
 30
0.0
 11
9.8186414512
 21
22.162279143
 31
0.0
  0
ARC
  5
1CB
330
1F
100
AcDbEntity
  8
0
  6
Continuous
 62
     7
370
    15
100
AcDbCircle
 10
10.8854414625
 20
22.3325344137
 30
0.0
 40
1.08030033575275
100
AcDbArc
 50
189.0675712083
 51
350.9324287917
  0
LINE
  5
1CC
330
1F
100
AcDbEntity
  8
0
  6
Continuous
 62
     7
370
    15
100
AcDbLine
 10
11.9522413993
 20
22.162279143
 30
0.0
 11
12.3586412342
 21
22.162279143
 31
0.0
  0
ARC
  5
1CD
330
1F
100
AcDbEntity
  8
0
  6
Continuous
 62
     7
370
    15
100
AcDbCircle
 10
13.4254414625
 20
22.3325344137
 30
0.0
 40
1.080300335752752
100
AcDbArc
 50
189.0675712083
 51
350.9324287917
  0
LINE
  5
1CE
330
1F
100
AcDbEntity
  8
0
  6
Continuous
 62
     7
370
    15
100
AcDbLine
 10
14.4922411824
 20
22.162279143
 30
0.0
 11
14.8986414829
 21
22.162279143
 31
0.0
  0
ARC
  5
1CF
330
1F
100
AcDbEntity
  8
0
  6
Continuous
 62
     7
370
    15
100
AcDbCircle
 10
15.9654414625
 20
22.3325344137
 30
0.0
 40
1.08030033575275
100
AcDbArc
 50
189.0675712083
 51
350.9324287917
  0
LINE
  5
1D0
330
1F
100
AcDbEntity
  8
0
  6
Continuous
 62
     7
370
    15
100
AcDbLine
 10
17.0322418967
 20
22.162279143
 30
0.0
 11
18.4946418563
 21
22.162279143
 31
0.0
  0
LINE
  5
1D1
330
1F
100
AcDbEntity
  8
0
  6
Continuous
 62
     7
370
    15
100
AcDbLine
 10
18.4946418563
 20
22.162279143
 30
0.0
 11
18.8012416298
 21
22.0352802715
 31
0.0
  0
LINE
  5
1D2
330
1F
100
AcDbEntity
  8
0
  6
Continuous
 62
     7
370
    15
100
AcDbLine
 10
18.8012416298
 20
22.0352802715
 30
0.0
 11
20.749641099
 21
22.0352802715
 31
0.0
  0
LINE
  5
1D3
330
1F
100
AcDbEntity
  8
0
  6
Continuous
 62
     7
370
    15
100
AcDbLine
 10
20.749641099
 20
22.0352802715
 30
0.0
 11
21.0562418038
 21
22.162279143
 31
0.0
  0
LINE
  5
1D4
330
1F
100
AcDbEntity
  8
0
  6
Continuous
 62
     7
370
    15
100
AcDbLine
 10
21.0562418038
 20
22.162279143
 30
0.0
 11
23.0002417052
 21
22.162279143
 31
0.0
  0
ARC
  5
1D5
330
1F
100
AcDbEntity
  8
0
  6
Continuous
 62
     7
370
    15
100
AcDbCircle
 10
23.5854414625
 20
23.0547143209
 30
0.0
 40
1.067191693072365
100
AcDbArc
 50
236.7457615026
 51
303.2542384974
  0
LINE
  5
1D6
330
1F
100
AcDbEntity
  8
0
  6
Continuous
 62
     7
370
    15
100
AcDbLine
 10
24.1706422353
 20
22.162279143
 30
0.0
 11
25.1856422806
 21
22.162279143
 31
0.0
  0
LINE
  5
1D7
330
1F
100
AcDbEntity
  8
0
  6
Continuous
 62
     7
370
    15
100
AcDbLine
 10
25.1856422806
 20
22.162279143
 30
0.0
 11
25.1856422806
 21
7.6751800077
 31
0.0
  0
ARC
  5
1D8
330
1F
100
AcDbEntity
  8
0
  6
Continuous
 62
     7
370
    15
100
AcDbCircle
 10
25.9385414625
 20
7.6751799705
 30
0.0
 40
0.7529000000000012
100
AcDbArc
 50
180.0
 51
270.0
  0
LINE
  5
1D9
330
1F
100
AcDbEntity
  8
0
  6
Continuous
 62
     7
370
    15
100
AcDbLine
 10
25.9385420764
 20
6.9222799791
 30
0.0
 11
47.9023414487
 21
6.9222799791
 31
0.0
  0
ARC
  5
1DA
330
1F
100
AcDbEntity
  8
0
  6
Continuous
 62
     7
370
    15
100
AcDbCircle
 10
47.9023414625
 20
7.6751799705
 30
0.0
 40
0.7529000000000039
100
AcDbArc
 50
270.0
 51
0.0
  0
LINE
  5
1DB
330
1F
100
AcDbEntity
  8
0
  6
Continuous
 62
     7
370
    15
100
AcDbLine
 10
48.6552412445
 20
7.6751800077
 30
0.0
 11
48.6552412445
 21
12.0022800109
 31
0.0
  0
LINE
  5
1DC
330
1F
100
AcDbEntity
  8
0
  6
Continuous
 62
     7
370
    15
100
AcDbLine
 10
48.6552412445
 20
12.0022800109
 30
0.0
 11
51.4423432583
 21
12.0022800109
 31
0.0
  0
ARC
  5
1DD
330
1F
100
AcDbEntity
  8
0
  6
Continuous
 62
     7
370
    15
100
AcDbCircle
 10
51.4423414625
 20
12.7551799705
 30
0.0
 40
0.7529000000000039
100
AcDbArc
 50
270.0
 51
0.0
  0
LINE
  5
1DE
330
1F
100
AcDbEntity
  8
0
  6
Continuous
 62
     7
370
    15
100
AcDbLine
 10
52.1952430541
 20
12.7551798067
 30
0.0
 11
52.1952430541
 21
40.6454783222
 31
0.0
  0
ARC
  5
1DF
330
1F
100
AcDbEntity
  8
0
  6
Continuous
 62
     7
370
    15
100
AcDbCircle
 10
51.2554414625
 20
40.8898929351
 30
0.0
 40
0.9710621696064039
100
AcDbArc
 50
345.4220740254
 51
194.5779259746
  0
LINE
  5
1E0
330
1F
100
AcDbEntity
  8
0
  6
Continuous
 62
     7
370
    15
100
AcDbLine
 10
50.3156403834
 20
40.6454783222
 30
0.0
 11
50.3156403834
 21
13.8818798876
 31
0.0
  0
LINE
  5
1E1
330
1F
100
AcDbEntity
  8
0
  6
Continuous
 62
     7
370
    15
100
AcDbLine
 10
50.3156403834
 20
13.8818798876
 30
0.0
 11
47.5285420949
 21
13.8818798876
 31
0.0
  0
ARC
  5
1E2
330
1F
100
AcDbEntity
  8
0
  6
Continuous
 62
     7
370
    15
100
AcDbCircle
 10
47.5285414625
 20
13.1289799705
 30
0.0
 40
0.7529000000000021
100
AcDbArc
 50
90.0
 51
180.0
  0
LINE
  5
1E3
330
1F
100
AcDbEntity
  8
0
  6
Continuous
 62
     7
370
    15
100
AcDbLine
 10
46.7756422991
 20
13.1289800918
 30
0.0
 11
46.7756422991
 21
8.8018798558
 31
0.0
  0
LINE
  5
1E4
330
1F
100
AcDbEntity
  8
0
  6
Continuous
 62
     7
370
    15
100
AcDbLine
 10
32.8752412284
 20
8.8018798558
 30
0.0
 11
46.7756422991
 21
8.8018798558
 31
0.0
  0
LINE
  5
1E5
330
1F
100
AcDbEntity
  8
0
  6
Continuous
 62
     7
370
    15
100
AcDbLine
 10
32.8752412284
 20
12.2558800793
 30
0.0
 11
32.8752412284
 21
8.8018798558
 31
0.0
  0
ARC
  5
1E6
330
1F
100
AcDbEntity
  8
0
  6
Continuous
 62
     7
370
    15
100
AcDbCircle
 10
32.2054414625
 20
12.9420799705
 30
0.0
 40
0.9589069193618325
100
AcDbArc
 50
314.307075979
 51
225.692924021
  0
LINE
  5
1E7
330
1F
100
AcDbEntity
  8
0
  6
Continuous
 62
     7
370
    15
100
AcDbLine
 10
31.5356417382
 20
12.2558800793
 30
0.0
 11
31.5356417382
 21
8.8018798558
 31
0.0
  0
ARC
  5
1E8
330
1F
100
AcDbEntity
  8
0
  6
Continuous
 62
     7
370
    15
100
AcDbCircle
 10
19.0134414625
 20
12.9420799705
 30
0.0
 40
1.087699903466026
100
AcDbArc
 50
101.2500148007
 51
258.7499851993
  0
LINE
  5
1E9
330
1F
100
AcDbEntity
  8
0
  6
Continuous
 62
     7
370
    15
100
AcDbLine
 10
18.8012416298
 20
11.8752797423
 30
0.0
 11
20.749641099
 21
11.8752797423
 31
0.0
  0
LINE
  5
1EA
330
1F
100
AcDbEntity
  8
0
  6
Continuous
 62
     7
370
    15
100
AcDbLine
 10
20.749641099
 20
11.8752797423
 30
0.0
 11
21.0562418038
 21
12.0022800109
 31
0.0
  0
LINE
  5
1EB
330
1F
100
AcDbEntity
  8
0
  6
Continuous
 62
     7
370
    15
100
AcDbLine
 10
21.0562418038
 20
12.0022800109
 30
0.0
 11
23.0002417052
 21
12.0022800109
 31
0.0
  0
ARC
  5
1EC
330
1F
100
AcDbEntity
  8
0
  6
Continuous
 62
     7
370
    15
100
AcDbCircle
 10
23.5897448636
 20
12.9420799705
 30
0.0
 40
1.109386452010685
100
AcDbArc
 50
237.9014012296
 51
122.0985987704
  0
LINE
  5
1ED
330
1F
100
AcDbEntity
  8
0
  6
Continuous
 62
     7
370
    15
100
AcDbLine
 10
23.0002417052
 20
13.8818798876
 30
0.0
 11
21.0562418038
 21
13.8818798876
 31
0.0
  0
LINE
  5
1EE
330
1F
100
AcDbEntity
  8
0
  6
Continuous
 62
     7
370
    15
100
AcDbLine
 10
4.8354414617
 20
57.0920799217
 30
0.0
 11
4.8354414617
 21
4.3520799698
 31
0.0
  0
LINE
  5
1EF
330
1F
100
AcDbEntity
  8
0
  6
Continuous
 62
     7
370
    15
100
AcDbLine
 10
57.2754400606
 20
57.0920799217
 30
0.0
 11
4.8354414617
 21
57.0920799217
 31
0.0
  0
LINE
  5
1F0
330
1F
100
AcDbEntity
  8
0
  6
Continuous
 62
     7
370
    15
100
AcDbLine
 10
57.2754400606
 20
4.3520799698
 30
0.0
 11
57.2754400606
 21
57.0920799217
 31
0.0
  0
LINE
  5
1F1
330
1F
100
AcDbEntity
  8
0
  6
Continuous
 62
     7
370
    15
100
AcDbLine
 10
4.8354414617
 20
4.3520799698
 30
0.0
 11
57.2754400606
 21
4.3520799698
 31
0.0
  0
CIRCLE
  5
1F2
330
1F
100
AcDbEntity
  8
0
  6
Continuous
 62
     7
370
    15
100
AcDbCircle
 10
32.2054414625
 20
12.9420799705
 30
0.0
 40
0.5
  0
CIRCLE
  5
1F3
330
1F
100
AcDbEntity
  8
0
  6
Continuous
 62
     7
370
    15
100
AcDbCircle
 10
51.2554414625
 20
18.0220799705
 30
0.0
 40
0.5
  0
CIRCLE
  5
1F4
330
1F
100
AcDbEntity
  8
0
  6
Continuous
 62
     7
370
    15
100
AcDbCircle
 10
51.2554414625
 20
40.8820799705
 30
0.0
 40
0.5
  0
CIRCLE
  5
1F5
330
1F
100
AcDbEntity
  8
0
  6
Continuous
 62
     7
370
    15
100
AcDbCircle
 10
11.1554414625
 20
38.3420799705
 30
0.0
 40
0.5000000000000018
  0
CIRCLE
  5
1F6
330
1F
100
AcDbEntity
  8
0
  6
Continuous
 62
     7
370
    15
100
AcDbCircle
 10
8.3454414625
 20
23.1020799705
 30
0.0
 40
0.6000000000000005
  0
CIRCLE
  5
1F7
330
1F
100
AcDbEntity
  8
0
  6
Continuous
 62
     7
370
    15
100
AcDbCircle
 10
10.8854414625
 20
23.1020799705
 30
0.0
 40
0.6000000000000032
  0
CIRCLE
  5
1F8
330
1F
100
AcDbEntity
  8
0
  6
Continuous
 62
     7
370
    15
100
AcDbCircle
 10
13.4254414625
 20
23.1020799705
 30
0.0
 40
0.6000000000000032
  0
CIRCLE
  5
1F9
330
1F
100
AcDbEntity
  8
0
  6
Continuous
 62
     7
370
    15
100
AcDbCircle
 10
15.9654414625
 20
23.1020799705
 30
0.0
 40
0.5999999999999996
  0
CIRCLE
  5
1FA
330
1F
100
AcDbEntity
  8
0
  6
Continuous
 62
     7
370
    15
100
AcDbCircle
 10
19.7754414625
 20
23.1020799705
 30
0.0
 40
0.6000000000000014
  0
CIRCLE
  5
1FB
330
1F
100
AcDbEntity
  8
0
  6
Continuous
 62
     7
370
    15
100
AcDbCircle
 10
23.5854414625
 20
23.1020799705
 30
0.0
 40
0.5999999999999979
  0
CIRCLE
  5
1FC
330
1F
100
AcDbEntity
  8
0
  6
Continuous
 62
     7
370
    15
100
AcDbCircle
 10
54.0362997188
 20
53.5717314388
 30
0.0
 40
1.200000000000003
  0
CIRCLE
  5
1FD
330
1F
100
AcDbEntity
  8
0
  6
Continuous
 62
     7
370
    15
100
AcDbCircle
 10
8.3644859278
 20
53.5496740573
 30
0.0
 40
1.199999999999999
  0
CIRCLE
  5
1FE
330
1F
100
AcDbEntity
  8
0
  6
Continuous
 62
     7
370
    15
100
AcDbCircle
 10
8.3622351108
 20
28.1820799705
 30
0.0
 40
1.199999999999999
  0
CIRCLE
  5
1FF
330
1F
100
AcDbEntity
  8
0
  6
Continuous
 62
     7
370
    15
100
AcDbCircle
 10
54.0362997188
 20
7.8724285023
 30
0.0
 40
1.199999999999989
  0
CIRCLE
  5
200
330
1F
100
AcDbEntity
  8
0
  6
Continuous
 62
     7
370
    15
100
AcDbCircle
 10
19.7754414625
 20
12.9420799705
 30
0.0
 40
0.6000000000000014
  0
CIRCLE
  5
201
330
1F
100
AcDbEntity
  8
0
  6
Continuous
 62
     7
370
    15
100
AcDbCircle
 10
23.5854414625
 20
12.9420799705
 30
0.0
 40
0.5999999999999979
  0
CIRCLE
  5
202
330
1F
100
AcDbEntity
  8
0
  6
Continuous
 62
     7
370
    15
100
AcDbCircle
 10
23.5854414625
 20
43.4220799705
 30
0.0
 40
0.5999999999999979
  0
CIRCLE
  5
203
330
1F
100
AcDbEntity
  8
0
  6
Continuous
 62
     7
370
    15
100
AcDbCircle
 10
19.7754414625
 20
43.4220799705
 30
0.0
 40
0.6000000000000014
  0
CIRCLE
  5
204
330
1F
100
AcDbEntity
  8
0
  6
Continuous
 62
     7
370
    15
100
AcDbCircle
 10
19.7754414625
 20
48.5020799705
 30
0.0
 40
0.6000000000000014
  0
CIRCLE
  5
205
330
1F
100
AcDbEntity
  8
0
  6
Continuous
 62
     7
370
    15
100
AcDbCircle
 10
23.5854414625
 20
48.5020799705
 30
0.0
 40
0.5999999999999979
  0
CIRCLE
  5
206
330
1F
100
AcDbEntity
  8
0
  6
Continuous
 62
     7
370
    15
100
AcDbCircle
 10
28.2054414625
 20
12.9420799705
 30
0.0
 40
0.5
  0
CIRCLE
  5
207
330
1F
100
AcDbEntity
  8
0
  6
Continuous
 62
     7
370
    15
100
AcDbCircle
 10
23.5854414625
 20
30.7220799705
 30
0.0
 40
0.5999999999999979
  0
CIRCLE
  5
208
330
1F
100
AcDbEntity
  8
0
  6
Continuous
 62
     7
370
    15
100
AcDbCircle
 10
19.7754414625
 20
30.7220799705
 30
0.0
 40
0.6000000000000014
  0
CIRCLE
  5
209
330
1F
100
AcDbEntity
  8
0
  6
Continuous
 62
     7
370
    15
100
AcDbCircle
 10
42.6354414625
 20
15.4820799705
 30
0.0
 40
0.6000000000000014
  0
CIRCLE
  5
20A
330
1F
100
AcDbEntity
  8
0
  6
Continuous
 62
     7
370
    15
100
AcDbCircle
 10
38.8254414625
 20
15.4820799705
 30
0.0
 40
0.5999999999999872
  0
CIRCLE
  5
20B
330
1F
100
AcDbEntity
  8
0
  6
Continuous
 62
     7
370
    15
100
AcDbCircle
 10
38.8254414625
 20
18.0220799705
 30
0.0
 40
0.5999999999999872
  0
CIRCLE
  5
20C
330
1F
100
AcDbEntity
  8
0
  6
Continuous
 62
     7
370
    15
100
AcDbCircle
 10
42.6354414625
 20
18.0220799705
 30
0.0
 40
0.6000000000000014
  0
CIRCLE
  5
20D
330
1F
100
AcDbEntity
  8
0
  6
Continuous
 62
     7
370
    15
100
AcDbCircle
 10
42.6354414625
 20
20.5620799705
 30
0.0
 40
0.6000000000000014
  0
CIRCLE
  5
20E
330
1F
100
AcDbEntity
  8
0
  6
Continuous
 62
     7
370
    15
100
AcDbCircle
 10
38.8254414625
 20
20.5620799705
 30
0.0
 40
0.5999999999999872
  0
CIRCLE
  5
20F
330
1F
100
AcDbEntity
  8
0
  6
Continuous
 62
     7
370
    15
100
AcDbCircle
 10
38.8211380614
 20
28.1820799705
 30
0.0
 40
0.5999999999999872
  0
CIRCLE
  5
210
330
1F
100
AcDbEntity
  8
0
  6
Continuous
 62
     7
370
    15
100
AcDbCircle
 10
42.6354414625
 20
28.1820799705
 30
0.0
 40
0.6000000000000014
  0
CIRCLE
  5
211
330
1F
100
AcDbEntity
  8
0
  6
Continuous
 62
     7
370
    15
100
AcDbCircle
 10
38.8254414625
 20
12.9420799705
 30
0.0
 40
0.5999999999999872
  0
CIRCLE
  5
212
330
1F
100
AcDbEntity
  8
0
  6
Continuous
 62
     7
370
    15
100
AcDbCircle
 10
42.6354414625
 20
12.9420799705
 30
0.0
 40
0.6000000000000014
  0
CIRCLE
  5
213
330
1F
100
AcDbEntity
  8
0
  6
Continuous
 62
     7
370
    15
100
AcDbCircle
 10
42.6354414625
 20
38.3420799705
 30
0.0
 40
0.6000000000000014
  0
CIRCLE
  5
214
330
1F
100
AcDbEntity
  8
0
  6
Continuous
 62
     7
370
    15
100
AcDbCircle
 10
38.8254414625
 20
38.3420799705
 30
0.0
 40
0.5999999999999872
  0
CIRCLE
  5
215
330
1F
100
AcDbEntity
  8
0
  6
Continuous
 62
     7
370
    15
100
AcDbCircle
 10
42.6354414625
 20
45.9620799705
 30
0.0
 40
0.6000000000000014
  0
CIRCLE
  5
216
330
1F
100
AcDbEntity
  8
0
  6
Continuous
 62
     7
370
    15
100
AcDbCircle
 10
38.8254414625
 20
45.9620799705
 30
0.0
 40
0.5999999999999872
  0
CIRCLE
  5
217
330
1F
100
AcDbEntity
  8
0
  6
Continuous
 62
     7
370
    15
100
AcDbCircle
 10
38.8254414625
 20
48.5020799705
 30
0.0
 40
0.5999999999999872
  0
CIRCLE
  5
218
330
1F
100
AcDbEntity
  8
0
  6
Continuous
 62
     7
370
    15
100
AcDbCircle
 10
42.6354414625
 20
48.5020799705
 30
0.0
 40
0.6000000000000014
  0
CIRCLE
  5
219
330
1F
100
AcDbEntity
  8
0
  6
Continuous
 62
     7
370
    15
100
AcDbCircle
 10
42.6354414625
 20
51.0420799705
 30
0.0
 40
0.6000000000000014
  0
CIRCLE
  5
21A
330
1F
100
AcDbEntity
  8
0
  6
Continuous
 62
     7
370
    15
100
AcDbCircle
 10
38.8254414625
 20
51.0420799705
 30
0.0
 40
0.5999999999999872
  0
CIRCLE
  5
21B
330
1F
100
AcDbEntity
  8
0
  6
Continuous
 62
     7
370
    15
100
AcDbCircle
 10
23.5854414625
 20
51.0420799705
 30
0.0
 40
0.5999999999999979
  0
CIRCLE
  5
21C
330
1F
100
AcDbEntity
  8
0
  6
Continuous
 62
     7
370
    15
100
AcDbCircle
 10
19.7754414625
 20
51.0420799705
 30
0.0
 40
0.6000000000000014
  0
CIRCLE
  5
21D
330
1F
100
AcDbEntity
  8
0
  6
Continuous
 62
     7
370
    15
100
AcDbCircle
 10
42.6354414625
 20
10.4020799705
 30
0.0
 40
0.6000000000000014
  0
CIRCLE
  5
21E
330
1F
100
AcDbEntity
  8
0
  6
Continuous
 62
     7
370
    15
100
AcDbCircle
 10
38.8254414625
 20
10.4020799705
 30
0.0
 40
0.5999999999999872
  0
CIRCLE
  5
21F
330
1F
100
AcDbEntity
  8
0
  6
Continuous
 62
     7
370
    15
100
AcDbCircle
 10
38.8254414625
 20
35.8020799705
 30
0.0
 40
0.5999999999999872
  0
CIRCLE
  5
220
330
1F
100
AcDbEntity
  8
0
  6
Continuous
 62
     7
370
    15
100
AcDbCircle
 10
42.6354414625
 20
35.8020799705
 30
0.0
 40
0.6000000000000014
  0
CIRCLE
  5
221
330
1F
100
AcDbEntity
  8
0
  6
Continuous
 62
     7
370
    15
100
AcDbCircle
 10
19.7754414625
 20
35.8020799705
 30
0.0
 40
0.6000000000000014
  0
CIRCLE
  5
222
330
1F
100
AcDbEntity
  8
0
  6
Continuous
 62
     7
370
    15
100
AcDbCircle
 10
23.5854414625
 20
35.8020799705
 30
0.0
 40
0.5999999999999979
  0
CIRCLE
  5
223
330
1F
100
AcDbEntity
  8
0
  6
Continuous
 62
     7
370
    15
100
AcDbCircle
 10
23.5854414625
 20
25.6420799705
 30
0.0
 40
0.5999999999999979
  0
CIRCLE
  5
224
330
1F
100
AcDbEntity
  8
0
  6
Continuous
 62
     7
370
    15
100
AcDbCircle
 10
19.7754414625
 20
25.6420799705
 30
0.0
 40
0.6000000000000014
  0
CIRCLE
  5
225
330
1F
100
AcDbEntity
  8
0
  6
Continuous
 62
     7
370
    15
100
AcDbCircle
 10
23.5854414625
 20
15.4820799705
 30
0.0
 40
0.5999999999999979
  0
CIRCLE
  5
226
330
1F
100
AcDbEntity
  8
0
  6
Continuous
 62
     7
370
    15
100
AcDbCircle
 10
19.7754414625
 20
15.4820799705
 30
0.0
 40
0.6000000000000014
  0
CIRCLE
  5
227
330
1F
100
AcDbEntity
  8
0
  6
Continuous
 62
     7
370
    15
100
AcDbCircle
 10
14.6700414625
 20
10.4020799705
 30
0.0
 40
0.9000000000000004
  0
CIRCLE
  5
228
330
1F
100
AcDbEntity
  8
0
  6
Continuous
 62
     7
370
    15
100
AcDbCircle
 10
47.2554414625
 20
18.0220799705
 30
0.0
 40
0.5
  0
CIRCLE
  5
229
330
1F
100
AcDbEntity
  8
0
  6
Continuous
 62
     7
370
    15
100
AcDbCircle
 10
42.6354414625
 20
25.6420799705
 30
0.0
 40
0.6000000000000014
  0
CIRCLE
  5
22A
330
1F
100
AcDbEntity
  8
0
  6
Continuous
 62
     7
370
    15
100
AcDbCircle
 10
38.8254414625
 20
25.6420799705
 30
0.0
 40
0.5999999999999872
  0
CIRCLE
  5
22B
330
1F
100
AcDbEntity
  8
0
  6
Continuous
 62
     7
370
    15
100
AcDbCircle
 10
49.2554414625
 20
18.0220799705
 30
0.0
 40
0.5
  0
CIRCLE
  5
22C
330
1F
100
AcDbEntity
  8
0
  6
Continuous
 62
     7
370
    15
100
AcDbCircle
 10
23.5854414625
 20
45.9620799705
 30
0.0
 40
0.5999999999999979
  0
CIRCLE
  5
22D
330
1F
100
AcDbEntity
  8
0
  6
Continuous
 62
     7
370
    15
100
AcDbCircle
 10
19.7754414625
 20
45.9620799705
 30
0.0
 40
0.6000000000000014
  0
CIRCLE
  5
22E
330
1F
100
AcDbEntity
  8
0
  6
Continuous
 62
     7
370
    15
100
AcDbCircle
 10
19.7754414625
 20
40.8820799705
 30
0.0
 40
0.6000000000000014
  0
CIRCLE
  5
22F
330
1F
100
AcDbEntity
  8
0
  6
Continuous
 62
     7
370
    15
100
AcDbCircle
 10
23.5854414625
 20
40.8820799705
 30
0.0
 40
0.5999999999999979
  0
CIRCLE
  5
230
330
1F
100
AcDbEntity
  8
0
  6
Continuous
 62
     7
370
    15
100
AcDbCircle
 10
23.5854414625
 20
38.3420799705
 30
0.0
 40
0.5999999999999979
  0
CIRCLE
  5
231
330
1F
100
AcDbEntity
  8
0
  6
Continuous
 62
     7
370
    15
100
AcDbCircle
 10
19.7754414625
 20
38.3420799705
 30
0.0
 40
0.6000000000000014
  0
CIRCLE
  5
232
330
1F
100
AcDbEntity
  8
0
  6
Continuous
 62
     7
370
    15
100
AcDbCircle
 10
23.5854414625
 20
10.4020799705
 30
0.0
 40
0.5999999999999979
  0
CIRCLE
  5
233
330
1F
100
AcDbEntity
  8
0
  6
Continuous
 62
     7
370
    15
100
AcDbCircle
 10
19.7754414625
 20
10.4020799705
 30
0.0
 40
0.6000000000000014
  0
CIRCLE
  5
234
330
1F
100
AcDbEntity
  8
0
  6
Continuous
 62
     7
370
    15
100
AcDbCircle
 10
30.2054414625
 20
12.9420799705
 30
0.0
 40
0.5
  0
CIRCLE
  5
235
330
1F
100
AcDbEntity
  8
0
  6
Continuous
 62
     7
370
    15
100
AcDbCircle
 10
38.8254414625
 20
43.4220799705
 30
0.0
 40
0.5999999999999872
  0
CIRCLE
  5
236
330
1F
100
AcDbEntity
  8
0
  6
Continuous
 62
     7
370
    15
100
AcDbCircle
 10
42.6354414625
 20
43.4220799705
 30
0.0
 40
0.6000000000000014
  0
CIRCLE
  5
237
330
1F
100
AcDbEntity
  8
0
  6
Continuous
 62
     7
370
    15
100
AcDbCircle
 10
49.2554414625
 20
40.8820799705
 30
0.0
 40
0.5
  0
CIRCLE
  5
238
330
1F
100
AcDbEntity
  8
0
  6
Continuous
 62
     7
370
    15
100
AcDbCircle
 10
42.6354414625
 20
40.8820799705
 30
0.0
 40
0.6000000000000014
  0
CIRCLE
  5
239
330
1F
100
AcDbEntity
  8
0
  6
Continuous
 62
     7
370
    15
100
AcDbCircle
 10
38.8254414625
 20
40.8820799705
 30
0.0
 40
0.5999999999999872
  0
CIRCLE
  5
23A
330
1F
100
AcDbEntity
  8
0
  6
Continuous
 62
     7
370
    15
100
AcDbCircle
 10
47.2554414625
 20
40.8820799705
 30
0.0
 40
0.5
  0
CIRCLE
  5
23B
330
1F
100
AcDbEntity
  8
0
  6
Continuous
 62
     7
370
    15
100
AcDbCircle
 10
13.1554414625
 20
38.3420799705
 30
0.0
 40
0.5000000000000018
  0
CIRCLE
  5
23C
330
1F
100
AcDbEntity
  8
0
  6
Continuous
 62
     7
370
    15
100
AcDbCircle
 10
23.5854414625
 20
20.5620799705
 30
0.0
 40
0.5999999999999979
  0
CIRCLE
  5
23D
330
1F
100
AcDbEntity
  8
0
  6
Continuous
 62
     7
370
    15
100
AcDbCircle
 10
19.7754414625
 20
20.5620799705
 30
0.0
 40
0.6000000000000014
  0
CIRCLE
  5
23E
330
1F
100
AcDbEntity
  8
0
  6
Continuous
 62
     7
370
    15
100
AcDbCircle
 10
19.7754414625
 20
28.1820799705
 30
0.0
 40
0.6000000000000014
  0
CIRCLE
  5
23F
330
1F
100
AcDbEntity
  8
0
  6
Continuous
 62
     7
370
    15
100
AcDbCircle
 10
23.5854414625
 20
28.1820799705
 30
0.0
 40
0.5999999999999979
  0
CIRCLE
  5
240
330
1F
100
AcDbEntity
  8
0
  6
Continuous
 62
     7
370
    15
100
AcDbCircle
 10
42.6354414625
 20
30.7220799705
 30
0.0
 40
0.6000000000000014
  0
CIRCLE
  5
241
330
1F
100
AcDbEntity
  8
0
  6
Continuous
 62
     7
370
    15
100
AcDbCircle
 10
38.8254414625
 20
30.7220799705
 30
0.0
 40
0.5999999999999872
  0
CIRCLE
  5
242
330
1F
100
AcDbEntity
  8
0
  6
Continuous
 62
     7
370
    15
100
AcDbCircle
 10
42.6354414625
 20
33.2620799705
 30
0.0
 40
0.6000000000000014
  0
CIRCLE
  5
243
330
1F
100
AcDbEntity
  8
0
  6
Continuous
 62
     7
370
    15
100
AcDbCircle
 10
38.8254414625
 20
33.2620799705
 30
0.0
 40
0.5999999999999872
  0
CIRCLE
  5
244
330
1F
100
AcDbEntity
  8
0
  6
Continuous
 62
     7
370
    15
100
AcDbCircle
 10
19.7754414625
 20
33.2620799705
 30
0.0
 40
0.6000000000000014
  0
CIRCLE
  5
245
330
1F
100
AcDbEntity
  8
0
  6
Continuous
 62
     7
370
    15
100
AcDbCircle
 10
23.5854414625
 20
33.2620799705
 30
0.0
 40
0.5999999999999979
  0
CIRCLE
  5
246
330
1F
100
AcDbEntity
  8
0
  6
Continuous
 62
     7
370
    15
100
AcDbCircle
 10
15.1554414625
 20
38.3420799705
 30
0.0
 40
0.4999999999999982
  0
LINE
  5
247
330
1F
100
AcDbEntity
  8
DEFONCE
100
AcDbLine
 10
4.8354414625
 20
57.0920799705
 30
0.0
 11
4.8354414625
 21
4.3520799705
 31
0.0
  0
LINE
  5
248
330
1F
100
AcDbEntity
  8
DEFONCE
100
AcDbLine
 10
57.2754414625
 20
57.0920799705
 30
0.0
 11
4.8354414625
 21
57.0920799705
 31
0.0
  0
LINE
  5
249
330
1F
100
AcDbEntity
  8
DEFONCE
100
AcDbLine
 10
57.2754414625
 20
4.3520799705
 30
0.0
 11
57.2754414625
 21
57.0920799705
 31
0.0
  0
LINE
  5
24A
330
1F
100
AcDbEntity
  8
DEFONCE
100
AcDbLine
 10
4.8354414625
 20
4.3520799705
 30
0.0
 11
57.2754414625
 21
4.3520799705
 31
0.0
  0
LINE
  5
24B
330
1F
100
AcDbEntity
  8
GRAVURE
100
AcDbLine
 10
5.8054414625
 20
5.3220799705
 30
0.0
 11
5.8054414625
 21
25.7348799705
 31
0.0
  0
LINE
  5
24C
330
1F
100
AcDbEntity
  8
GRAVURE
100
AcDbLine
 10
41.3546414625
 20
34.2018799705
 30
0.0
 11
39.4106414625
 21
34.2018799705
 31
0.0
  0
LINE
  5
24D
330
1F
100
AcDbEntity
  8
GRAVURE
100
AcDbLine
 10
39.4106414625
 20
32.3222799705
 30
0.0
 11
41.3546414625
 21
32.3222799705
 31
0.0
  0
LINE
  5
24E
330
1F
100
AcDbEntity
  8
GRAVURE
100
AcDbLine
 10
41.3546414625
 20
32.3222799705
 30
0.0
 11
41.6612414625
 21
32.1952799705
 31
0.0
  0
LINE
  5
24F
330
1F
100
AcDbEntity
  8
GRAVURE
100
AcDbLine
 10
41.6612414625
 20
32.1952799705
 30
0.0
 11
43.6096414625
 21
32.1952799705
 31
0.0
  0
LINE
  5
250
330
1F
100
AcDbEntity
  8
GRAVURE
100
AcDbLine
 10
43.6096414625
 20
34.3288799705
 30
0.0
 11
41.6612414625
 21
34.3288799705
 31
0.0
  0
LINE
  5
251
330
1F
100
AcDbEntity
  8
GRAVURE
100
AcDbLine
 10
41.6612414625
 20
34.3288799705
 30
0.0
 11
41.3546414625
 21
34.2018799705
 31
0.0
  0
LINE
  5
252
330
1F
100
AcDbEntity
  8
GRAVURE
100
AcDbLine
 10
41.3546414625
 20
29.1218799705
 30
0.0
 11
39.4106414625
 21
29.1218799705
 31
0.0
  0
LINE
  5
253
330
1F
100
AcDbEntity
  8
GRAVURE
100
AcDbLine
 10
39.4106414625
 20
27.2422799705
 30
0.0
 11
41.3546414625
 21
27.2422799705
 31
0.0
  0
LINE
  5
254
330
1F
100
AcDbEntity
  8
GRAVURE
100
AcDbLine
 10
41.3546414625
 20
27.2422799705
 30
0.0
 11
41.6612414625
 21
27.1152799705
 31
0.0
  0
LINE
  5
255
330
1F
100
AcDbEntity
  8
GRAVURE
100
AcDbLine
 10
41.6612414625
 20
27.1152799705
 30
0.0
 11
43.6096414625
 21
27.1152799705
 31
0.0
  0
LINE
  5
256
330
1F
100
AcDbEntity
  8
GRAVURE
100
AcDbLine
 10
43.6096414625
 20
29.2488799705
 30
0.0
 11
41.6612414625
 21
29.2488799705
 31
0.0
  0
LINE
  5
257
330
1F
100
AcDbEntity
  8
GRAVURE
100
AcDbLine
 10
41.6612414625
 20
29.2488799705
 30
0.0
 11
41.3546414625
 21
29.1218799705
 31
0.0
  0
LINE
  5
258
330
1F
100
AcDbEntity
  8
GRAVURE
100
AcDbLine
 10
43.6096414625
 20
31.7888799705
 30
0.0
 11
41.6612414625
 21
31.7888799705
 31
0.0
  0
LINE
  5
259
330
1F
100
AcDbEntity
  8
GRAVURE
100
AcDbLine
 10
41.6612414625
 20
29.6552799705
 30
0.0
 11
43.6096414625
 21
29.6552799705
 31
0.0
  0
LINE
  5
25A
330
1F
100
AcDbEntity
  8
GRAVURE
100
AcDbLine
 10
41.3546414625
 20
29.7822799705
 30
0.0
 11
41.6612414625
 21
29.6552799705
 31
0.0
  0
LINE
  5
25B
330
1F
100
AcDbEntity
  8
GRAVURE
100
AcDbLine
 10
39.4106414625
 20
29.7822799705
 30
0.0
 11
41.3546414625
 21
29.7822799705
 31
0.0
  0
LINE
  5
25C
330
1F
100
AcDbEntity
  8
GRAVURE
100
AcDbLine
 10
41.3546414625
 20
31.6618799705
 30
0.0
 11
39.4106414625
 21
31.6618799705
 31
0.0
  0
LINE
  5
25D
330
1F
100
AcDbEntity
  8
GRAVURE
100
AcDbLine
 10
41.6612414625
 20
31.7888799705
 30
0.0
 11
41.3546414625
 21
31.6618799705
 31
0.0
  0
LINE
  5
25E
330
1F
100
AcDbEntity
  8
GRAVURE
100
AcDbLine
 10
20.7496414625
 20
49.5688799705
 30
0.0
 11
18.8012414625
 21
49.5688799705
 31
0.0
  0
LINE
  5
25F
330
1F
100
AcDbEntity
  8
GRAVURE
100
AcDbLine
 10
18.8012414625
 20
47.4352799705
 30
0.0
 11
20.7496414625
 21
47.4352799705
 31
0.0
  0
LINE
  5
260
330
1F
100
AcDbEntity
  8
GRAVURE
100
AcDbLine
 10
20.7496414625
 20
47.4352799705
 30
0.0
 11
21.0562414625
 21
47.5622799705
 31
0.0
  0
LINE
  5
261
330
1F
100
AcDbEntity
  8
GRAVURE
100
AcDbLine
 10
21.0562414625
 20
47.5622799705
 30
0.0
 11
23.0002414625
 21
47.5622799705
 31
0.0
  0
LINE
  5
262
330
1F
100
AcDbEntity
  8
GRAVURE
100
AcDbLine
 10
23.0002414625
 20
49.4418799705
 30
0.0
 11
21.0562414625
 21
49.4418799705
 31
0.0
  0
LINE
  5
263
330
1F
100
AcDbEntity
  8
GRAVURE
100
AcDbLine
 10
21.0562414625
 20
49.4418799705
 30
0.0
 11
20.7496414625
 21
49.5688799705
 31
0.0
  0
LINE
  5
264
330
1F
100
AcDbEntity
  8
GRAVURE
100
AcDbLine
 10
20.7496414625
 20
52.1088799705
 30
0.0
 11
18.8012414625
 21
52.1088799705
 31
0.0
  0
LINE
  5
265
330
1F
100
AcDbEntity
  8
GRAVURE
100
AcDbLine
 10
21.0562414625
 20
51.9818799705
 30
0.0
 11
20.7496414625
 21
52.1088799705
 31
0.0
  0
LINE
  5
266
330
1F
100
AcDbEntity
  8
GRAVURE
100
AcDbLine
 10
23.0002414625
 20
51.9818799705
 30
0.0
 11
21.0562414625
 21
51.9818799705
 31
0.0
  0
LINE
  5
267
330
1F
100
AcDbEntity
  8
GRAVURE
100
AcDbLine
 10
21.0562414625
 20
50.1022799705
 30
0.0
 11
23.0002414625
 21
50.1022799705
 31
0.0
  0
LINE
  5
268
330
1F
100
AcDbEntity
  8
GRAVURE
100
AcDbLine
 10
20.7496414625
 20
49.9752799705
 30
0.0
 11
21.0562414625
 21
50.1022799705
 31
0.0
  0
LINE
  5
269
330
1F
100
AcDbEntity
  8
GRAVURE
100
AcDbLine
 10
18.8012414625
 20
49.9752799705
 30
0.0
 11
20.7496414625
 21
49.9752799705
 31
0.0
  0
LINE
  5
26A
330
1F
100
AcDbEntity
  8
GRAVURE
100
AcDbLine
 10
20.7496414625
 20
44.4888799705
 30
0.0
 11
18.8012414625
 21
44.4888799705
 31
0.0
  0
LINE
  5
26B
330
1F
100
AcDbEntity
  8
GRAVURE
100
AcDbLine
 10
18.8012414625
 20
42.3552799705
 30
0.0
 11
20.7496414625
 21
42.3552799705
 31
0.0
  0
LINE
  5
26C
330
1F
100
AcDbEntity
  8
GRAVURE
100
AcDbLine
 10
20.7496414625
 20
42.3552799705
 30
0.0
 11
21.0562414625
 21
42.4822799705
 31
0.0
  0
LINE
  5
26D
330
1F
100
AcDbEntity
  8
GRAVURE
100
AcDbLine
 10
21.0562414625
 20
42.4822799705
 30
0.0
 11
23.0002414625
 21
42.4822799705
 31
0.0
  0
LINE
  5
26E
330
1F
100
AcDbEntity
  8
GRAVURE
100
AcDbLine
 10
23.0002414625
 20
44.3618799705
 30
0.0
 11
21.0562414625
 21
44.3618799705
 31
0.0
  0
LINE
  5
26F
330
1F
100
AcDbEntity
  8
GRAVURE
100
AcDbLine
 10
21.0562414625
 20
44.3618799705
 30
0.0
 11
20.7496414625
 21
44.4888799705
 31
0.0
  0
LINE
  5
270
330
1F
100
AcDbEntity
  8
GRAVURE
100
AcDbLine
 10
20.7496414625
 20
47.0288799705
 30
0.0
 11
18.8012414625
 21
47.0288799705
 31
0.0
  0
LINE
  5
271
330
1F
100
AcDbEntity
  8
GRAVURE
100
AcDbLine
 10
21.0562414625
 20
46.9018799705
 30
0.0
 11
20.7496414625
 21
47.0288799705
 31
0.0
  0
LINE
  5
272
330
1F
100
AcDbEntity
  8
GRAVURE
100
AcDbLine
 10
23.0002414625
 20
46.9018799705
 30
0.0
 11
21.0562414625
 21
46.9018799705
 31
0.0
  0
LINE
  5
273
330
1F
100
AcDbEntity
  8
GRAVURE
100
AcDbLine
 10
21.0562414625
 20
45.0222799705
 30
0.0
 11
23.0002414625
 21
45.0222799705
 31
0.0
  0
LINE
  5
274
330
1F
100
AcDbEntity
  8
GRAVURE
100
AcDbLine
 10
20.7496414625
 20
44.8952799705
 30
0.0
 11
21.0562414625
 21
45.0222799705
 31
0.0
  0
LINE
  5
275
330
1F
100
AcDbEntity
  8
GRAVURE
100
AcDbLine
 10
18.8012414625
 20
44.8952799705
 30
0.0
 11
20.7496414625
 21
44.8952799705
 31
0.0
  0
LINE
  5
276
330
1F
100
AcDbEntity
  8
GRAVURE
100
AcDbLine
 10
41.3546414625
 20
16.4218799705
 30
0.0
 11
39.4106414625
 21
16.4218799705
 31
0.0
  0
LINE
  5
277
330
1F
100
AcDbEntity
  8
GRAVURE
100
AcDbLine
 10
39.4106414625
 20
14.5422799705
 30
0.0
 11
41.3546414625
 21
14.5422799705
 31
0.0
  0
LINE
  5
278
330
1F
100
AcDbEntity
  8
GRAVURE
100
AcDbLine
 10
41.3546414625
 20
14.5422799705
 30
0.0
 11
41.6612414625
 21
14.4152799705
 31
0.0
  0
LINE
  5
279
330
1F
100
AcDbEntity
  8
GRAVURE
100
AcDbLine
 10
41.6612414625
 20
14.4152799705
 30
0.0
 11
43.6096414625
 21
14.4152799705
 31
0.0
  0
LINE
  5
27A
330
1F
100
AcDbEntity
  8
GRAVURE
100
AcDbLine
 10
43.6096414625
 20
16.5488799705
 30
0.0
 11
41.6612414625
 21
16.5488799705
 31
0.0
  0
LINE
  5
27B
330
1F
100
AcDbEntity
  8
GRAVURE
100
AcDbLine
 10
41.6612414625
 20
16.5488799705
 30
0.0
 11
41.3546414625
 21
16.4218799705
 31
0.0
  0
LINE
  5
27C
330
1F
100
AcDbEntity
  8
GRAVURE
100
AcDbLine
 10
41.3546414625
 20
18.9618799705
 30
0.0
 11
39.4106414625
 21
18.9618799705
 31
0.0
  0
LINE
  5
27D
330
1F
100
AcDbEntity
  8
GRAVURE
100
AcDbLine
 10
41.6612414625
 20
19.0888799705
 30
0.0
 11
41.3546414625
 21
18.9618799705
 31
0.0
  0
LINE
  5
27E
330
1F
100
AcDbEntity
  8
GRAVURE
100
AcDbLine
 10
43.6096414625
 20
19.0888799705
 30
0.0
 11
41.6612414625
 21
19.0888799705
 31
0.0
  0
LINE
  5
27F
330
1F
100
AcDbEntity
  8
GRAVURE
100
AcDbLine
 10
41.6612414625
 20
16.9552799705
 30
0.0
 11
43.6096414625
 21
16.9552799705
 31
0.0
  0
LINE
  5
280
330
1F
100
AcDbEntity
  8
GRAVURE
100
AcDbLine
 10
41.3546414625
 20
17.0822799705
 30
0.0
 11
41.6612414625
 21
16.9552799705
 31
0.0
  0
LINE
  5
281
330
1F
100
AcDbEntity
  8
GRAVURE
100
AcDbLine
 10
39.4106414625
 20
17.0822799705
 30
0.0
 11
41.3546414625
 21
17.0822799705
 31
0.0
  0
LINE
  5
282
330
1F
100
AcDbEntity
  8
GRAVURE
100
AcDbLine
 10
20.7496414625
 20
39.4088799705
 30
0.0
 11
18.8012414625
 21
39.4088799705
 31
0.0
  0
LINE
  5
283
330
1F
100
AcDbEntity
  8
GRAVURE
100
AcDbLine
 10
18.8012414625
 20
37.2752799705
 30
0.0
 11
20.7496414625
 21
37.2752799705
 31
0.0
  0
LINE
  5
284
330
1F
100
AcDbEntity
  8
GRAVURE
100
AcDbLine
 10
20.7496414625
 20
37.2752799705
 30
0.0
 11
21.0562414625
 21
37.4022799705
 31
0.0
  0
LINE
  5
285
330
1F
100
AcDbEntity
  8
GRAVURE
100
AcDbLine
 10
21.0562414625
 20
37.4022799705
 30
0.0
 11
23.0002414625
 21
37.4022799705
 31
0.0
  0
LINE
  5
286
330
1F
100
AcDbEntity
  8
GRAVURE
100
AcDbLine
 10
23.0002414625
 20
39.2818799705
 30
0.0
 11
21.0562414625
 21
39.2818799705
 31
0.0
  0
LINE
  5
287
330
1F
100
AcDbEntity
  8
GRAVURE
100
AcDbLine
 10
21.0562414625
 20
39.2818799705
 30
0.0
 11
20.7496414625
 21
39.4088799705
 31
0.0
  0
LINE
  5
288
330
1F
100
AcDbEntity
  8
GRAVURE
100
AcDbLine
 10
20.7496414625
 20
41.9488799705
 30
0.0
 11
18.8012414625
 21
41.9488799705
 31
0.0
  0
LINE
  5
289
330
1F
100
AcDbEntity
  8
GRAVURE
100
AcDbLine
 10
21.0562414625
 20
41.8218799705
 30
0.0
 11
20.7496414625
 21
41.9488799705
 31
0.0
  0
LINE
  5
28A
330
1F
100
AcDbEntity
  8
GRAVURE
100
AcDbLine
 10
23.0002414625
 20
41.8218799705
 30
0.0
 11
21.0562414625
 21
41.8218799705
 31
0.0
  0
LINE
  5
28B
330
1F
100
AcDbEntity
  8
GRAVURE
100
AcDbLine
 10
21.0562414625
 20
39.9422799705
 30
0.0
 11
23.0002414625
 21
39.9422799705
 31
0.0
  0
LINE
  5
28C
330
1F
100
AcDbEntity
  8
GRAVURE
100
AcDbLine
 10
20.7496414625
 20
39.8152799705
 30
0.0
 11
21.0562414625
 21
39.9422799705
 31
0.0
  0
LINE
  5
28D
330
1F
100
AcDbEntity
  8
GRAVURE
100
AcDbLine
 10
18.8012414625
 20
39.8152799705
 30
0.0
 11
20.7496414625
 21
39.8152799705
 31
0.0
  0
LINE
  5
28E
330
1F
100
AcDbEntity
  8
GRAVURE
100
AcDbLine
 10
41.3546414625
 20
11.3418799705
 30
0.0
 11
39.4106414625
 21
11.3418799705
 31
0.0
  0
LINE
  5
28F
330
1F
100
AcDbEntity
  8
GRAVURE
100
AcDbLine
 10
39.4106414625
 20
9.4622799705
 30
0.0
 11
41.3546414625
 21
9.4622799705
 31
0.0
  0
LINE
  5
290
330
1F
100
AcDbEntity
  8
GRAVURE
100
AcDbLine
 10
41.3546414625
 20
9.4622799705
 30
0.0
 11
41.6612414625
 21
9.3352799705
 31
0.0
  0
LINE
  5
291
330
1F
100
AcDbEntity
  8
GRAVURE
100
AcDbLine
 10
41.6612414625
 20
9.3352799705
 30
0.0
 11
43.6096414625
 21
9.3352799705
 31
0.0
  0
LINE
  5
292
330
1F
100
AcDbEntity
  8
GRAVURE
100
AcDbLine
 10
43.6096414625
 20
11.4688799705
 30
0.0
 11
41.6612414625
 21
11.4688799705
 31
0.0
  0
LINE
  5
293
330
1F
100
AcDbEntity
  8
GRAVURE
100
AcDbLine
 10
41.6612414625
 20
11.4688799705
 30
0.0
 11
41.3546414625
 21
11.3418799705
 31
0.0
  0
LINE
  5
294
330
1F
100
AcDbEntity
  8
GRAVURE
100
AcDbLine
 10
43.6096414625
 20
14.0088799705
 30
0.0
 11
41.6612414625
 21
14.0088799705
 31
0.0
  0
LINE
  5
295
330
1F
100
AcDbEntity
  8
GRAVURE
100
AcDbLine
 10
41.6612414625
 20
11.8752799705
 30
0.0
 11
43.6096414625
 21
11.8752799705
 31
0.0
  0
LINE
  5
296
330
1F
100
AcDbEntity
  8
GRAVURE
100
AcDbLine
 10
41.3546414625
 20
12.0022799705
 30
0.0
 11
41.6612414625
 21
11.8752799705
 31
0.0
  0
LINE
  5
297
330
1F
100
AcDbEntity
  8
GRAVURE
100
AcDbLine
 10
39.4106414625
 20
12.0022799705
 30
0.0
 11
41.3546414625
 21
12.0022799705
 31
0.0
  0
LINE
  5
298
330
1F
100
AcDbEntity
  8
GRAVURE
100
AcDbLine
 10
41.3546414625
 20
13.8818799705
 30
0.0
 11
39.4106414625
 21
13.8818799705
 31
0.0
  0
LINE
  5
299
330
1F
100
AcDbEntity
  8
GRAVURE
100
AcDbLine
 10
41.6612414625
 20
14.0088799705
 30
0.0
 11
41.3546414625
 21
13.8818799705
 31
0.0
  0
LINE
  5
29A
330
1F
100
AcDbEntity
  8
GRAVURE
100
AcDbLine
 10
21.0562414625
 20
34.8622799705
 30
0.0
 11
23.0002414625
 21
34.8622799705
 31
0.0
  0
LINE
  5
29B
330
1F
100
AcDbEntity
  8
GRAVURE
100
AcDbLine
 10
23.0002414625
 20
36.7418799705
 30
0.0
 11
21.0562414625
 21
36.7418799705
 31
0.0
  0
LINE
  5
29C
330
1F
100
AcDbEntity
  8
GRAVURE
100
AcDbLine
 10
21.0562414625
 20
36.7418799705
 30
0.0
 11
20.7496414625
 21
36.8688799705
 31
0.0
  0
LINE
  5
29D
330
1F
100
AcDbEntity
  8
GRAVURE
100
AcDbLine
 10
20.7496414625
 20
36.8688799705
 30
0.0
 11
18.8012414625
 21
36.8688799705
 31
0.0
  0
LINE
  5
29E
330
1F
100
AcDbEntity
  8
GRAVURE
100
AcDbLine
 10
18.8012414625
 20
34.7352799705
 30
0.0
 11
20.7496414625
 21
34.7352799705
 31
0.0
  0
LINE
  5
29F
330
1F
100
AcDbEntity
  8
GRAVURE
100
AcDbLine
 10
20.7496414625
 20
34.7352799705
 30
0.0
 11
21.0562414625
 21
34.8622799705
 31
0.0
  0
LINE
  5
2A0
330
1F
100
AcDbEntity
  8
GRAVURE
100
AcDbLine
 10
41.6612414625
 20
19.4952799705
 30
0.0
 11
43.6096414625
 21
19.4952799705
 31
0.0
  0
LINE
  5
2A1
330
1F
100
AcDbEntity
  8
GRAVURE
100
AcDbLine
 10
43.6096414625
 20
21.6288799705
 30
0.0
 11
41.6612414625
 21
21.6288799705
 31
0.0
  0
LINE
  5
2A2
330
1F
100
AcDbEntity
  8
GRAVURE
100
AcDbLine
 10
41.6612414625
 20
21.6288799705
 30
0.0
 11
41.3546414625
 21
21.5018799705
 31
0.0
  0
LINE
  5
2A3
330
1F
100
AcDbEntity
  8
GRAVURE
100
AcDbLine
 10
41.3546414625
 20
21.5018799705
 30
0.0
 11
39.4106414625
 21
21.5018799705
 31
0.0
  0
LINE
  5
2A4
330
1F
100
AcDbEntity
  8
GRAVURE
100
AcDbLine
 10
39.4106414625
 20
19.6222799705
 30
0.0
 11
41.3546414625
 21
19.6222799705
 31
0.0
  0
LINE
  5
2A5
330
1F
100
AcDbEntity
  8
GRAVURE
100
AcDbLine
 10
41.3546414625
 20
19.6222799705
 30
0.0
 11
41.6612414625
 21
19.4952799705
 31
0.0
  0
LINE
  5
2A6
330
1F
100
AcDbEntity
  8
GRAVURE
100
AcDbLine
 10
21.0562414625
 20
31.6618799705
 30
0.0
 11
20.7496414625
 21
31.7888799705
 31
0.0
  0
LINE
  5
2A7
330
1F
100
AcDbEntity
  8
GRAVURE
100
AcDbLine
 10
20.7496414625
 20
31.7888799705
 30
0.0
 11
18.8012414625
 21
31.7888799705
 31
0.0
  0
LINE
  5
2A8
330
1F
100
AcDbEntity
  8
GRAVURE
100
AcDbLine
 10
18.8012414625
 20
29.6552799705
 30
0.0
 11
20.7496414625
 21
29.6552799705
 31
0.0
  0
LINE
  5
2A9
330
1F
100
AcDbEntity
  8
GRAVURE
100
AcDbLine
 10
20.7496414625
 20
29.6552799705
 30
0.0
 11
21.0562414625
 21
29.7822799705
 31
0.0
  0
LINE
  5
2AA
330
1F
100
AcDbEntity
  8
GRAVURE
100
AcDbLine
 10
21.0562414625
 20
29.7822799705
 30
0.0
 11
23.0002414625
 21
29.7822799705
 31
0.0
  0
LINE
  5
2AB
330
1F
100
AcDbEntity
  8
GRAVURE
100
AcDbLine
 10
24.1706414625
 20
29.7822799705
 30
0.0
 11
27.2656414625
 21
29.7822799705
 31
0.0
  0
LINE
  5
2AC
330
1F
100
AcDbEntity
  8
GRAVURE
100
AcDbLine
 10
27.2656414625
 20
29.7822799705
 30
0.0
 11
27.2656414625
 21
13.1786799705
 31
0.0
  0
LINE
  5
2AD
330
1F
100
AcDbEntity
  8
GRAVURE
100
AcDbLine
 10
29.1452414625
 20
13.1786799705
 30
0.0
 11
29.1452414625
 21
30.9089799705
 31
0.0
  0
LINE
  5
2AE
330
1F
100
AcDbEntity
  8
GRAVURE
100
AcDbLine
 10
28.3923414625
 20
31.6618799705
 30
0.0
 11
24.1706414625
 21
31.6618799705
 31
0.0
  0
LINE
  5
2AF
330
1F
100
AcDbEntity
  8
GRAVURE
100
AcDbLine
 10
23.0002414625
 20
31.6618799705
 30
0.0
 11
21.0562414625
 21
31.6618799705
 31
0.0
  0
LINE
  5
2B0
330
1F
100
AcDbEntity
  8
GRAVURE
100
AcDbLine
 10
23.0002414625
 20
34.2018799705
 30
0.0
 11
21.0562414625
 21
34.2018799705
 31
0.0
  0
LINE
  5
2B1
330
1F
100
AcDbEntity
  8
GRAVURE
100
AcDbLine
 10
21.0562414625
 20
34.2018799705
 30
0.0
 11
20.7496414625
 21
34.3288799705
 31
0.0
  0
LINE
  5
2B2
330
1F
100
AcDbEntity
  8
GRAVURE
100
AcDbLine
 10
20.7496414625
 20
34.3288799705
 30
0.0
 11
18.8012414625
 21
34.3288799705
 31
0.0
  0
LINE
  5
2B3
330
1F
100
AcDbEntity
  8
GRAVURE
100
AcDbLine
 10
18.8012414625
 20
34.3288799705
 30
0.0
 11
18.4946414625
 21
34.2018799705
 31
0.0
  0
LINE
  5
2B4
330
1F
100
AcDbEntity
  8
GRAVURE
100
AcDbLine
 10
18.4946414625
 20
34.2018799705
 30
0.0
 11
16.0952414625
 21
34.2018799705
 31
0.0
  0
LINE
  5
2B5
330
1F
100
AcDbEntity
  8
GRAVURE
100
AcDbLine
 10
16.0952414625
 20
34.2018799705
 30
0.0
 11
16.0952414625
 21
38.1054799705
 31
0.0
  0
LINE
  5
2B6
330
1F
100
AcDbEntity
  8
GRAVURE
100
AcDbLine
 10
14.2156414625
 20
38.1054799705
 30
0.0
 11
14.2156414625
 21
33.0751799705
 31
0.0
  0
LINE
  5
2B7
330
1F
100
AcDbEntity
  8
GRAVURE
100
AcDbLine
 10
14.9685414625
 20
32.3222799705
 30
0.0
 11
18.4946414625
 21
32.3222799705
 31
0.0
  0
LINE
  5
2B8
330
1F
100
AcDbEntity
  8
GRAVURE
100
AcDbLine
 10
18.4946414625
 20
32.3222799705
 30
0.0
 11
18.8012414625
 21
32.1952799705
 31
0.0
  0
LINE
  5
2B9
330
1F
100
AcDbEntity
  8
GRAVURE
100
AcDbLine
 10
18.8012414625
 20
32.1952799705
 30
0.0
 11
20.7496414625
 21
32.1952799705
 31
0.0
  0
LINE
  5
2BA
330
1F
100
AcDbEntity
  8
GRAVURE
100
AcDbLine
 10
20.7496414625
 20
32.1952799705
 30
0.0
 11
21.0562414625
 21
32.3222799705
 31
0.0
  0
LINE
  5
2BB
330
1F
100
AcDbEntity
  8
GRAVURE
100
AcDbLine
 10
21.0562414625
 20
32.3222799705
 30
0.0
 11
23.0002414625
 21
32.3222799705
 31
0.0
  0
LINE
  5
2BC
330
1F
100
AcDbEntity
  8
GRAVURE
100
AcDbLine
 10
23.0002414625
 20
26.5818799705
 30
0.0
 11
21.0562414625
 21
26.5818799705
 31
0.0
  0
LINE
  5
2BD
330
1F
100
AcDbEntity
  8
GRAVURE
100
AcDbLine
 10
21.0562414625
 20
26.5818799705
 30
0.0
 11
20.7496414625
 21
26.7088799705
 31
0.0
  0
LINE
  5
2BE
330
1F
100
AcDbEntity
  8
GRAVURE
100
AcDbLine
 10
20.7496414625
 20
26.7088799705
 30
0.0
 11
18.8012414625
 21
26.7088799705
 31
0.0
  0
LINE
  5
2BF
330
1F
100
AcDbEntity
  8
GRAVURE
100
AcDbLine
 10
18.8012414625
 20
24.5752799705
 30
0.0
 11
20.7496414625
 21
24.5752799705
 31
0.0
  0
LINE
  5
2C0
330
1F
100
AcDbEntity
  8
GRAVURE
100
AcDbLine
 10
20.7496414625
 20
24.5752799705
 30
0.0
 11
21.0562414625
 21
24.7022799705
 31
0.0
  0
LINE
  5
2C1
330
1F
100
AcDbEntity
  8
GRAVURE
100
AcDbLine
 10
21.0562414625
 20
24.7022799705
 30
0.0
 11
23.0002414625
 21
24.7022799705
 31
0.0
  0
LINE
  5
2C2
330
1F
100
AcDbEntity
  8
GRAVURE
100
AcDbLine
 10
21.0562414625
 20
29.1218799705
 30
0.0
 11
20.7496414625
 21
29.2488799705
 31
0.0
  0
LINE
  5
2C3
330
1F
100
AcDbEntity
  8
GRAVURE
100
AcDbLine
 10
20.7496414625
 20
29.2488799705
 30
0.0
 11
18.8012414625
 21
29.2488799705
 31
0.0
  0
LINE
  5
2C4
330
1F
100
AcDbEntity
  8
GRAVURE
100
AcDbLine
 10
18.8012414625
 20
27.1152799705
 30
0.0
 11
20.7496414625
 21
27.1152799705
 31
0.0
  0
LINE
  5
2C5
330
1F
100
AcDbEntity
  8
GRAVURE
100
AcDbLine
 10
20.7496414625
 20
27.1152799705
 30
0.0
 11
21.0562414625
 21
27.2422799705
 31
0.0
  0
LINE
  5
2C6
330
1F
100
AcDbEntity
  8
GRAVURE
100
AcDbLine
 10
21.0562414625
 20
27.2422799705
 30
0.0
 11
23.0002414625
 21
27.2422799705
 31
0.0
  0
LINE
  5
2C7
330
1F
100
AcDbEntity
  8
GRAVURE
100
AcDbLine
 10
23.0002414625
 20
29.1218799705
 30
0.0
 11
21.0562414625
 21
29.1218799705
 31
0.0
  0
LINE
  5
2C8
330
1F
100
AcDbEntity
  8
GRAVURE
100
AcDbLine
 10
20.7496414625
 20
21.6288799705
 30
0.0
 11
18.8012414625
 21
21.6288799705
 31
0.0
  0
LINE
  5
2C9
330
1F
100
AcDbEntity
  8
GRAVURE
100
AcDbLine
 10
18.8012414625
 20
19.4952799705
 30
0.0
 11
20.7496414625
 21
19.4952799705
 31
0.0
  0
LINE
  5
2CA
330
1F
100
AcDbEntity
  8
GRAVURE
100
AcDbLine
 10
20.7496414625
 20
19.4952799705
 30
0.0
 11
21.0562414625
 21
19.6222799705
 31
0.0
  0
LINE
  5
2CB
330
1F
100
AcDbEntity
  8
GRAVURE
100
AcDbLine
 10
21.0562414625
 20
19.6222799705
 30
0.0
 11
23.0002414625
 21
19.6222799705
 31
0.0
  0
LINE
  5
2CC
330
1F
100
AcDbEntity
  8
GRAVURE
100
AcDbLine
 10
23.0002414625
 20
21.5018799705
 30
0.0
 11
21.0562414625
 21
21.5018799705
 31
0.0
  0
LINE
  5
2CD
330
1F
100
AcDbEntity
  8
GRAVURE
100
AcDbLine
 10
21.0562414625
 20
21.5018799705
 30
0.0
 11
20.7496414625
 21
21.6288799705
 31
0.0
  0
LINE
  5
2CE
330
1F
100
AcDbEntity
  8
GRAVURE
100
AcDbLine
 10
20.7496414625
 20
11.4688799705
 30
0.0
 11
18.8012414625
 21
11.4688799705
 31
0.0
  0
LINE
  5
2CF
330
1F
100
AcDbEntity
  8
GRAVURE
100
AcDbLine
 10
18.8012414625
 20
9.3352799705
 30
0.0
 11
20.7496414625
 21
9.3352799705
 31
0.0
  0
LINE
  5
2D0
330
1F
100
AcDbEntity
  8
GRAVURE
100
AcDbLine
 10
20.7496414625
 20
9.3352799705
 30
0.0
 11
21.0562414625
 21
9.4622799705
 31
0.0
  0
LINE
  5
2D1
330
1F
100
AcDbEntity
  8
GRAVURE
100
AcDbLine
 10
21.0562414625
 20
9.4622799705
 30
0.0
 11
23.0002414625
 21
9.4622799705
 31
0.0
  0
LINE
  5
2D2
330
1F
100
AcDbEntity
  8
GRAVURE
100
AcDbLine
 10
23.0002414625
 20
11.3418799705
 30
0.0
 11
21.0562414625
 21
11.3418799705
 31
0.0
  0
LINE
  5
2D3
330
1F
100
AcDbEntity
  8
GRAVURE
100
AcDbLine
 10
21.0562414625
 20
11.3418799705
 30
0.0
 11
20.7496414625
 21
11.4688799705
 31
0.0
  0
LINE
  5
2D4
330
1F
100
AcDbEntity
  8
GRAVURE
100
AcDbLine
 10
20.7496414625
 20
14.0088799705
 30
0.0
 11
18.8012414625
 21
14.0088799705
 31
0.0
  0
LINE
  5
2D5
330
1F
100
AcDbEntity
  8
GRAVURE
100
AcDbLine
 10
21.0562414625
 20
13.8818799705
 30
0.0
 11
20.7496414625
 21
14.0088799705
 31
0.0
  0
LINE
  5
2D6
330
1F
100
AcDbEntity
  8
GRAVURE
100
AcDbLine
 10
23.0002414625
 20
13.8818799705
 30
0.0
 11
21.0562414625
 21
13.8818799705
 31
0.0
  0
LINE
  5
2D7
330
1F
100
AcDbEntity
  8
GRAVURE
100
AcDbLine
 10
21.0562414625
 20
12.0022799705
 30
0.0
 11
23.0002414625
 21
12.0022799705
 31
0.0
  0
LINE
  5
2D8
330
1F
100
AcDbEntity
  8
GRAVURE
100
AcDbLine
 10
20.7496414625
 20
11.8752799705
 30
0.0
 11
21.0562414625
 21
12.0022799705
 31
0.0
  0
LINE
  5
2D9
330
1F
100
AcDbEntity
  8
GRAVURE
100
AcDbLine
 10
18.8012414625
 20
11.8752799705
 30
0.0
 11
20.7496414625
 21
11.8752799705
 31
0.0
  0
LINE
  5
2DA
330
1F
100
AcDbEntity
  8
GRAVURE
100
AcDbLine
 10
48.1952414625
 20
18.2586799705
 30
0.0
 11
48.1952414625
 21
25.8289799705
 31
0.0
  0
LINE
  5
2DB
330
1F
100
AcDbEntity
  8
GRAVURE
100
AcDbLine
 10
46.3156414625
 20
24.7022799705
 30
0.0
 11
46.3156414625
 21
18.2586799705
 31
0.0
  0
LINE
  5
2DC
330
1F
100
AcDbEntity
  8
GRAVURE
100
AcDbLine
 10
43.9162414625
 20
24.7022799705
 30
0.0
 11
46.3156414625
 21
24.7022799705
 31
0.0
  0
LINE
  5
2DD
330
1F
100
AcDbEntity
  8
GRAVURE
100
AcDbLine
 10
43.6096414625
 20
24.5752799705
 30
0.0
 11
43.9162414625
 21
24.7022799705
 31
0.0
  0
LINE
  5
2DE
330
1F
100
AcDbEntity
  8
GRAVURE
100
AcDbLine
 10
41.6612414625
 20
24.5752799705
 30
0.0
 11
43.6096414625
 21
24.5752799705
 31
0.0
  0
LINE
  5
2DF
330
1F
100
AcDbEntity
  8
GRAVURE
100
AcDbLine
 10
41.3546414625
 20
24.7022799705
 30
0.0
 11
41.6612414625
 21
24.5752799705
 31
0.0
  0
LINE
  5
2E0
330
1F
100
AcDbEntity
  8
GRAVURE
100
AcDbLine
 10
39.4106414625
 20
24.7022799705
 30
0.0
 11
41.3546414625
 21
24.7022799705
 31
0.0
  0
LINE
  5
2E1
330
1F
100
AcDbEntity
  8
GRAVURE
100
AcDbLine
 10
41.3546414625
 20
26.5818799705
 30
0.0
 11
39.4106414625
 21
26.5818799705
 31
0.0
  0
LINE
  5
2E2
330
1F
100
AcDbEntity
  8
GRAVURE
100
AcDbLine
 10
41.6612414625
 20
26.7088799705
 30
0.0
 11
41.3546414625
 21
26.5818799705
 31
0.0
  0
LINE
  5
2E3
330
1F
100
AcDbEntity
  8
GRAVURE
100
AcDbLine
 10
43.6096414625
 20
26.7088799705
 30
0.0
 11
41.6612414625
 21
26.7088799705
 31
0.0
  0
LINE
  5
2E4
330
1F
100
AcDbEntity
  8
GRAVURE
100
AcDbLine
 10
43.9162414625
 20
26.5818799705
 30
0.0
 11
43.6096414625
 21
26.7088799705
 31
0.0
  0
LINE
  5
2E5
330
1F
100
AcDbEntity
  8
GRAVURE
100
AcDbLine
 10
47.4423414625
 20
26.5818799705
 30
0.0
 11
43.9162414625
 21
26.5818799705
 31
0.0
  0
LINE
  5
2E6
330
1F
100
AcDbEntity
  8
GRAVURE
100
AcDbLine
 10
43.6096414625
 20
39.4088799705
 30
0.0
 11
41.6612414625
 21
39.4088799705
 31
0.0
  0
LINE
  5
2E7
330
1F
100
AcDbEntity
  8
GRAVURE
100
AcDbLine
 10
41.6612414625
 20
39.4088799705
 30
0.0
 11
41.3546414625
 21
39.2818799705
 31
0.0
  0
LINE
  5
2E8
330
1F
100
AcDbEntity
  8
GRAVURE
100
AcDbLine
 10
41.3546414625
 20
39.2818799705
 30
0.0
 11
39.4106414625
 21
39.2818799705
 31
0.0
  0
LINE
  5
2E9
330
1F
100
AcDbEntity
  8
GRAVURE
100
AcDbLine
 10
39.4106414625
 20
37.4022799705
 30
0.0
 11
41.3546414625
 21
37.4022799705
 31
0.0
  0
LINE
  5
2EA
330
1F
100
AcDbEntity
  8
GRAVURE
100
AcDbLine
 10
41.3546414625
 20
37.4022799705
 30
0.0
 11
41.6612414625
 21
37.2752799705
 31
0.0
  0
LINE
  5
2EB
330
1F
100
AcDbEntity
  8
GRAVURE
100
AcDbLine
 10
41.6612414625
 20
37.2752799705
 30
0.0
 11
43.6096414625
 21
37.2752799705
 31
0.0
  0
LINE
  5
2EC
330
1F
100
AcDbEntity
  8
GRAVURE
100
AcDbLine
 10
46.7756414625
 20
8.8018799705
 30
0.0
 11
33.4152414625
 21
8.8018799705
 31
0.0
  0
LINE
  5
2ED
330
1F
100
AcDbEntity
  8
GRAVURE
100
AcDbLine
 10
33.4152414625
 20
8.8018799705
 30
0.0
 11
32.8752414625
 21
8.8018799705
 31
0.0
  0
LINE
  5
2EE
330
1F
100
AcDbEntity
  8
GRAVURE
100
AcDbLine
 10
32.8752414625
 20
8.8018799705
 30
0.0
 11
32.8752414625
 21
12.2558799705
 31
0.0
  0
LINE
  5
2EF
330
1F
100
AcDbEntity
  8
GRAVURE
100
AcDbLine
 10
31.5356414625
 20
12.2558799705
 30
0.0
 11
31.5356414625
 21
8.8018799705
 31
0.0
  0
LINE
  5
2F0
330
1F
100
AcDbEntity
  8
GRAVURE
100
AcDbLine
 10
31.5356414625
 20
8.8018799705
 30
0.0
 11
27.0652414625
 21
8.8018799705
 31
0.0
  0
LINE
  5
2F1
330
1F
100
AcDbEntity
  8
GRAVURE
100
AcDbLine
 10
27.0652414625
 20
8.8018799705
 30
0.0
 11
27.0652414625
 21
23.2889799705
 31
0.0
  0
LINE
  5
2F2
330
1F
100
AcDbEntity
  8
GRAVURE
100
AcDbLine
 10
26.3123414625
 20
24.0418799705
 30
0.0
 11
24.1706414625
 21
24.0418799705
 31
0.0
  0
LINE
  5
2F3
330
1F
100
AcDbEntity
  8
GRAVURE
100
AcDbLine
 10
23.0002414625
 20
24.0418799705
 30
0.0
 11
21.0562414625
 21
24.0418799705
 31
0.0
  0
LINE
  5
2F4
330
1F
100
AcDbEntity
  8
GRAVURE
100
AcDbLine
 10
21.0562414625
 20
24.0418799705
 30
0.0
 11
20.7496414625
 21
24.1688799705
 31
0.0
  0
LINE
  5
2F5
330
1F
100
AcDbEntity
  8
GRAVURE
100
AcDbLine
 10
20.7496414625
 20
24.1688799705
 30
0.0
 11
18.8012414625
 21
24.1688799705
 31
0.0
  0
LINE
  5
2F6
330
1F
100
AcDbEntity
  8
GRAVURE
100
AcDbLine
 10
18.8012414625
 20
24.1688799705
 30
0.0
 11
18.4946414625
 21
24.0418799705
 31
0.0
  0
LINE
  5
2F7
330
1F
100
AcDbEntity
  8
GRAVURE
100
AcDbLine
 10
18.4946414625
 20
24.0418799705
 30
0.0
 11
17.0322414625
 21
24.0418799705
 31
0.0
  0
LINE
  5
2F8
330
1F
100
AcDbEntity
  8
GRAVURE
100
AcDbLine
 10
14.8986414625
 20
24.0418799705
 30
0.0
 11
14.4922414625
 21
24.0418799705
 31
0.0
  0
LINE
  5
2F9
330
1F
100
AcDbEntity
  8
GRAVURE
100
AcDbLine
 10
14.3652414625
 20
24.4043776042
 30
0.0
 11
14.3652414625
 21
32.1789799705
 31
0.0
  0
LINE
  5
2FA
330
1F
100
AcDbEntity
  8
GRAVURE
100
AcDbLine
 10
13.6123414625
 20
32.9318799705
 30
0.0
 11
12.0952414625
 21
32.9318799705
 31
0.0
  0
LINE
  5
2FB
330
1F
100
AcDbEntity
  8
GRAVURE
100
AcDbLine
 10
12.0952414625
 20
32.9318799705
 30
0.0
 11
12.0952414625
 21
38.1054799705
 31
0.0
  0
LINE
  5
2FC
330
1F
100
AcDbEntity
  8
GRAVURE
100
AcDbLine
 10
10.2156414625
 20
38.1054799705
 30
0.0
 11
10.2156414625
 21
31.8051799705
 31
0.0
  0
LINE
  5
2FD
330
1F
100
AcDbEntity
  8
GRAVURE
100
AcDbLine
 10
10.9685414625
 20
31.0522799705
 30
0.0
 11
12.4856414625
 21
31.0522799705
 31
0.0
  0
LINE
  5
2FE
330
1F
100
AcDbEntity
  8
GRAVURE
100
AcDbLine
 10
12.4856414625
 20
31.0522799705
 30
0.0
 11
12.4856414625
 21
24.4043776042
 31
0.0
  0
LINE
  5
2FF
330
1F
100
AcDbEntity
  8
GRAVURE
100
AcDbLine
 10
12.3586414625
 20
24.0418799705
 30
0.0
 11
11.9522414625
 21
24.0418799705
 31
0.0
  0
LINE
  5
300
330
1F
100
AcDbEntity
  8
GRAVURE
100
AcDbLine
 10
9.8186414625
 20
24.0418799705
 30
0.0
 11
9.4122414625
 21
24.0418799705
 31
0.0
  0
LINE
  5
301
330
1F
100
AcDbEntity
  8
GRAVURE
100
AcDbLine
 10
7.2786414625
 20
24.0762799705
 30
0.0
 11
7.2786414625
 21
22.1278799705
 31
0.0
  0
LINE
  5
302
330
1F
100
AcDbEntity
  8
GRAVURE
100
AcDbLine
 10
9.4122414625
 20
22.1622799705
 30
0.0
 11
9.8186414625
 21
22.1622799705
 31
0.0
  0
LINE
  5
303
330
1F
100
AcDbEntity
  8
GRAVURE
100
AcDbLine
 10
11.9522414625
 20
22.1622799705
 30
0.0
 11
12.3586414625
 21
22.1622799705
 31
0.0
  0
LINE
  5
304
330
1F
100
AcDbEntity
  8
GRAVURE
100
AcDbLine
 10
14.4922414625
 20
22.1622799705
 30
0.0
 11
14.8986414625
 21
22.1622799705
 31
0.0
  0
LINE
  5
305
330
1F
100
AcDbEntity
  8
GRAVURE
100
AcDbLine
 10
17.0322414625
 20
22.1622799705
 30
0.0
 11
18.4946414625
 21
22.1622799705
 31
0.0
  0
LINE
  5
306
330
1F
100
AcDbEntity
  8
GRAVURE
100
AcDbLine
 10
18.4946414625
 20
22.1622799705
 30
0.0
 11
18.8012414625
 21
22.0352799705
 31
0.0
  0
LINE
  5
307
330
1F
100
AcDbEntity
  8
GRAVURE
100
AcDbLine
 10
18.8012414625
 20
22.0352799705
 30
0.0
 11
20.7496414625
 21
22.0352799705
 31
0.0
  0
LINE
  5
308
330
1F
100
AcDbEntity
  8
GRAVURE
100
AcDbLine
 10
20.7496414625
 20
22.0352799705
 30
0.0
 11
21.0562414625
 21
22.1622799705
 31
0.0
  0
LINE
  5
309
330
1F
100
AcDbEntity
  8
GRAVURE
100
AcDbLine
 10
21.0562414625
 20
22.1622799705
 30
0.0
 11
23.0002414625
 21
22.1622799705
 31
0.0
  0
LINE
  5
30A
330
1F
100
AcDbEntity
  8
GRAVURE
100
AcDbLine
 10
24.1706414625
 20
22.1622799705
 30
0.0
 11
25.1856414625
 21
22.1622799705
 31
0.0
  0
LINE
  5
30B
330
1F
100
AcDbEntity
  8
GRAVURE
100
AcDbLine
 10
25.1856414625
 20
22.1622799705
 30
0.0
 11
25.1856414625
 21
7.6751799705
 31
0.0
  0
LINE
  5
30C
330
1F
100
AcDbEntity
  8
GRAVURE
100
AcDbLine
 10
25.9385414625
 20
6.9222799705
 30
0.0
 11
47.9023414625
 21
6.9222799705
 31
0.0
  0
LINE
  5
30D
330
1F
100
AcDbEntity
  8
GRAVURE
100
AcDbLine
 10
48.6552414625
 20
7.6751799705
 30
0.0
 11
48.6552414625
 21
12.0022799705
 31
0.0
  0
LINE
  5
30E
330
1F
100
AcDbEntity
  8
GRAVURE
100
AcDbLine
 10
48.6552414625
 20
12.0022799705
 30
0.0
 11
51.4423414625
 21
12.0022799705
 31
0.0
  0
LINE
  5
30F
330
1F
100
AcDbEntity
  8
GRAVURE
100
AcDbLine
 10
52.1952414625
 20
12.7551799705
 30
0.0
 11
52.1952414625
 21
17.7854799705
 31
0.0
  0
LINE
  5
310
330
1F
100
AcDbEntity
  8
GRAVURE
100
AcDbLine
 10
52.1952414625
 20
17.7854799705
 30
0.0
 11
52.1952414625
 21
18.2586799705
 31
0.0
  0
LINE
  5
311
330
1F
100
AcDbEntity
  8
GRAVURE
100
AcDbLine
 10
52.1952414625
 20
18.2586799705
 30
0.0
 11
52.1952414625
 21
40.6454799705
 31
0.0
  0
LINE
  5
312
330
1F
100
AcDbEntity
  8
GRAVURE
100
AcDbLine
 10
50.3156414625
 20
40.6454799705
 30
0.0
 11
50.3156414625
 21
18.2586799705
 31
0.0
  0
LINE
  5
313
330
1F
100
AcDbEntity
  8
GRAVURE
100
AcDbLine
 10
50.3156414625
 20
18.2586799705
 30
0.0
 11
50.3156414625
 21
17.7854799705
 31
0.0
  0
LINE
  5
314
330
1F
100
AcDbEntity
  8
GRAVURE
100
AcDbLine
 10
50.3156414625
 20
17.7854799705
 30
0.0
 11
50.3156414625
 21
13.8818799705
 31
0.0
  0
LINE
  5
315
330
1F
100
AcDbEntity
  8
GRAVURE
100
AcDbLine
 10
50.3156414625
 20
13.8818799705
 30
0.0
 11
47.5285414625
 21
13.8818799705
 31
0.0
  0
LINE
  5
316
330
1F
100
AcDbEntity
  8
GRAVURE
100
AcDbLine
 10
46.7756414625
 20
13.1289799705
 30
0.0
 11
46.7756414625
 21
8.8018799705
 31
0.0
  0
LINE
  5
317
330
1F
100
AcDbEntity
  8
GRAVURE
100
AcDbLine
 10
41.3546414625
 20
41.8218799705
 30
0.0
 11
39.4106414625
 21
41.8218799705
 31
0.0
  0
LINE
  5
318
330
1F
100
AcDbEntity
  8
GRAVURE
100
AcDbLine
 10
39.4106414625
 20
39.9422799705
 30
0.0
 11
41.3546414625
 21
39.9422799705
 31
0.0
  0
LINE
  5
319
330
1F
100
AcDbEntity
  8
GRAVURE
100
AcDbLine
 10
41.3546414625
 20
39.9422799705
 30
0.0
 11
41.6612414625
 21
39.8152799705
 31
0.0
  0
LINE
  5
31A
330
1F
100
AcDbEntity
  8
GRAVURE
100
AcDbLine
 10
41.6612414625
 20
39.8152799705
 30
0.0
 11
43.6096414625
 21
39.8152799705
 31
0.0
  0
LINE
  5
31B
330
1F
100
AcDbEntity
  8
GRAVURE
100
AcDbLine
 10
43.6096414625
 20
39.8152799705
 30
0.0
 11
43.9162414625
 21
39.9422799705
 31
0.0
  0
LINE
  5
31C
330
1F
100
AcDbEntity
  8
GRAVURE
100
AcDbLine
 10
43.9162414625
 20
39.9422799705
 30
0.0
 11
47.0188414625
 21
39.9422799705
 31
0.0
  0
LINE
  5
31D
330
1F
100
AcDbEntity
  8
GRAVURE
100
AcDbLine
 10
47.0188414625
 20
41.8218799705
 30
0.0
 11
43.9162414625
 21
41.8218799705
 31
0.0
  0
LINE
  5
31E
330
1F
100
AcDbEntity
  8
GRAVURE
100
AcDbLine
 10
43.9162414625
 20
41.8218799705
 30
0.0
 11
43.6096414625
 21
41.9488799705
 31
0.0
  0
LINE
  5
31F
330
1F
100
AcDbEntity
  8
GRAVURE
100
AcDbLine
 10
43.6096414625
 20
41.9488799705
 30
0.0
 11
41.6612414625
 21
41.9488799705
 31
0.0
  0
LINE
  5
320
330
1F
100
AcDbEntity
  8
GRAVURE
100
AcDbLine
 10
41.6612414625
 20
41.9488799705
 30
0.0
 11
41.3546414625
 21
41.8218799705
 31
0.0
  0
LINE
  5
321
330
1F
100
AcDbEntity
  8
GRAVURE
100
AcDbLine
 10
49.4423414625
 20
44.3618799705
 30
0.0
 11
43.9162414625
 21
44.3618799705
 31
0.0
  0
LINE
  5
322
330
1F
100
AcDbEntity
  8
GRAVURE
100
AcDbLine
 10
43.9162414625
 20
44.3618799705
 30
0.0
 11
43.6096414625
 21
44.4888799705
 31
0.0
  0
LINE
  5
323
330
1F
100
AcDbEntity
  8
GRAVURE
100
AcDbLine
 10
43.6096414625
 20
44.4888799705
 30
0.0
 11
41.6612414625
 21
44.4888799705
 31
0.0
  0
LINE
  5
324
330
1F
100
AcDbEntity
  8
GRAVURE
100
AcDbLine
 10
41.6612414625
 20
44.4888799705
 30
0.0
 11
41.3546414625
 21
44.3618799705
 31
0.0
  0
LINE
  5
325
330
1F
100
AcDbEntity
  8
GRAVURE
100
AcDbLine
 10
41.3546414625
 20
44.3618799705
 30
0.0
 11
39.4106414625
 21
44.3618799705
 31
0.0
  0
LINE
  5
326
330
1F
100
AcDbEntity
  8
GRAVURE
100
AcDbLine
 10
39.4106414625
 20
42.4822799705
 30
0.0
 11
41.3546414625
 21
42.4822799705
 31
0.0
  0
LINE
  5
327
330
1F
100
AcDbEntity
  8
GRAVURE
100
AcDbLine
 10
41.3546414625
 20
42.4822799705
 30
0.0
 11
41.6612414625
 21
42.3552799705
 31
0.0
  0
LINE
  5
328
330
1F
100
AcDbEntity
  8
GRAVURE
100
AcDbLine
 10
41.6612414625
 20
42.3552799705
 30
0.0
 11
43.6096414625
 21
42.3552799705
 31
0.0
  0
LINE
  5
329
330
1F
100
AcDbEntity
  8
GRAVURE
100
AcDbLine
 10
43.6096414625
 20
42.3552799705
 30
0.0
 11
43.9162414625
 21
42.4822799705
 31
0.0
  0
LINE
  5
32A
330
1F
100
AcDbEntity
  8
GRAVURE
100
AcDbLine
 10
43.9162414625
 20
42.4822799705
 30
0.0
 11
48.3156414625
 21
42.4822799705
 31
0.0
  0
LINE
  5
32B
330
1F
100
AcDbEntity
  8
GRAVURE
100
AcDbLine
 10
48.3156414625
 20
42.4822799705
 30
0.0
 11
48.3156414625
 21
41.1186799705
 31
0.0
  0
LINE
  5
32C
330
1F
100
AcDbEntity
  8
GRAVURE
100
AcDbLine
 10
50.1952414625
 20
41.1186799705
 30
0.0
 11
50.1952414625
 21
43.6089799705
 31
0.0
  0
LINE
  5
32D
330
1F
100
AcDbEntity
  8
GRAVURE
100
AcDbLine
 10
39.4106414625
 20
34.8622799705
 30
0.0
 11
41.3546414625
 21
34.8622799705
 31
0.0
  0
LINE
  5
32E
330
1F
100
AcDbEntity
  8
GRAVURE
100
AcDbLine
 10
41.3546414625
 20
34.8622799705
 30
0.0
 11
41.6612414625
 21
34.7352799705
 31
0.0
  0
LINE
  5
32F
330
1F
100
AcDbEntity
  8
GRAVURE
100
AcDbLine
 10
41.6612414625
 20
34.7352799705
 30
0.0
 11
43.6096414625
 21
34.7352799705
 31
0.0
  0
LINE
  5
330
330
1F
100
AcDbEntity
  8
GRAVURE
100
AcDbLine
 10
43.6096414625
 20
36.8688799705
 30
0.0
 11
41.6612414625
 21
36.8688799705
 31
0.0
  0
LINE
  5
331
330
1F
100
AcDbEntity
  8
GRAVURE
100
AcDbLine
 10
41.6612414625
 20
36.8688799705
 30
0.0
 11
41.3546414625
 21
36.7418799705
 31
0.0
  0
LINE
  5
332
330
1F
100
AcDbEntity
  8
GRAVURE
100
AcDbLine
 10
41.3546414625
 20
36.7418799705
 30
0.0
 11
39.4106414625
 21
36.7418799705
 31
0.0
  0
LINE
  5
333
330
1F
100
AcDbEntity
  8
GRAVURE
100
AcDbLine
 10
41.3546414625
 20
51.9818799705
 30
0.0
 11
39.4106414625
 21
51.9818799705
 31
0.0
  0
LINE
  5
334
330
1F
100
AcDbEntity
  8
GRAVURE
100
AcDbLine
 10
39.4106414625
 20
50.1022799705
 30
0.0
 11
41.3546414625
 21
50.1022799705
 31
0.0
  0
LINE
  5
335
330
1F
100
AcDbEntity
  8
GRAVURE
100
AcDbLine
 10
41.3546414625
 20
50.1022799705
 30
0.0
 11
41.6612414625
 21
49.9752799705
 31
0.0
  0
LINE
  5
336
330
1F
100
AcDbEntity
  8
GRAVURE
100
AcDbLine
 10
41.6612414625
 20
49.9752799705
 30
0.0
 11
43.6096414625
 21
49.9752799705
 31
0.0
  0
LINE
  5
337
330
1F
100
AcDbEntity
  8
GRAVURE
100
AcDbLine
 10
43.6096414625
 20
52.1088799705
 30
0.0
 11
41.6612414625
 21
52.1088799705
 31
0.0
  0
LINE
  5
338
330
1F
100
AcDbEntity
  8
GRAVURE
100
AcDbLine
 10
41.6612414625
 20
52.1088799705
 30
0.0
 11
41.3546414625
 21
51.9818799705
 31
0.0
  0
LINE
  5
339
330
1F
100
AcDbEntity
  8
GRAVURE
100
AcDbLine
 10
41.6612414625
 20
47.4352799705
 30
0.0
 11
43.6096414625
 21
47.4352799705
 31
0.0
  0
LINE
  5
33A
330
1F
100
AcDbEntity
  8
GRAVURE
100
AcDbLine
 10
43.6096414625
 20
49.5688799705
 30
0.0
 11
41.6612414625
 21
49.5688799705
 31
0.0
  0
LINE
  5
33B
330
1F
100
AcDbEntity
  8
GRAVURE
100
AcDbLine
 10
41.6612414625
 20
49.5688799705
 30
0.0
 11
41.3546414625
 21
49.4418799705
 31
0.0
  0
LINE
  5
33C
330
1F
100
AcDbEntity
  8
GRAVURE
100
AcDbLine
 10
41.3546414625
 20
49.4418799705
 30
0.0
 11
39.4106414625
 21
49.4418799705
 31
0.0
  0
LINE
  5
33D
330
1F
100
AcDbEntity
  8
GRAVURE
100
AcDbLine
 10
39.4106414625
 20
47.5622799705
 30
0.0
 11
41.3546414625
 21
47.5622799705
 31
0.0
  0
LINE
  5
33E
330
1F
100
AcDbEntity
  8
GRAVURE
100
AcDbLine
 10
41.3546414625
 20
47.5622799705
 30
0.0
 11
41.6612414625
 21
47.4352799705
 31
0.0
  0
LINE
  5
33F
330
1F
100
AcDbEntity
  8
GRAVURE
100
AcDbLine
 10
41.3546414625
 20
46.9018799705
 30
0.0
 11
39.4106414625
 21
46.9018799705
 31
0.0
  0
LINE
  5
340
330
1F
100
AcDbEntity
  8
GRAVURE
100
AcDbLine
 10
39.4106414625
 20
45.0222799705
 30
0.0
 11
41.3546414625
 21
45.0222799705
 31
0.0
  0
LINE
  5
341
330
1F
100
AcDbEntity
  8
GRAVURE
100
AcDbLine
 10
41.3546414625
 20
45.0222799705
 30
0.0
 11
41.6612414625
 21
44.8952799705
 31
0.0
  0
LINE
  5
342
330
1F
100
AcDbEntity
  8
GRAVURE
100
AcDbLine
 10
41.6612414625
 20
44.8952799705
 30
0.0
 11
43.6096414625
 21
44.8952799705
 31
0.0
  0
LINE
  5
343
330
1F
100
AcDbEntity
  8
GRAVURE
100
AcDbLine
 10
43.6096414625
 20
47.0288799705
 30
0.0
 11
41.6612414625
 21
47.0288799705
 31
0.0
  0
LINE
  5
344
330
1F
100
AcDbEntity
  8
GRAVURE
100
AcDbLine
 10
41.6612414625
 20
47.0288799705
 30
0.0
 11
41.3546414625
 21
46.9018799705
 31
0.0
  0
LINE
  5
345
330
1F
100
AcDbEntity
  8
GRAVURE
100
AcDbLine
 10
51.5976414625
 20
5.3220799705
 30
0.0
 11
5.8054414625
 21
5.3220799705
 31
0.0
  0
LINE
  5
346
330
1F
100
AcDbEntity
  8
GRAVURE
100
AcDbLine
 10
56.6054414625
 20
51.1528799705
 30
0.0
 11
56.6054414625
 21
10.2912799705
 31
0.0
  0
LINE
  5
347
330
1F
100
AcDbEntity
  8
GRAVURE
100
AcDbLine
 10
10.7650414625
 20
56.1220799705
 30
0.0
 11
51.5976414625
 21
56.1220799705
 31
0.0
  0
LINE
  5
348
330
1F
100
AcDbEntity
  8
GRAVURE
100
AcDbLine
 10
5.8054414625
 20
30.6292799705
 30
0.0
 11
5.8054414625
 21
51.1348799705
 31
0.0
  0
LINE
  5
349
330
1F
100
AcDbEntity
  8
GRAVURE
100
AcDbLine
 10
15.6352414625
 20
12.2942935561
 30
0.0
 11
15.6352414625
 21
14.5422799705
 31
0.0
  0
LINE
  5
34A
330
1F
100
AcDbEntity
  8
GRAVURE
100
AcDbLine
 10
15.6352414625
 20
14.5422799705
 30
0.0
 11
18.4946414625
 21
14.5422799705
 31
0.0
  0
LINE
  5
34B
330
1F
100
AcDbEntity
  8
GRAVURE
100
AcDbLine
 10
18.4946414625
 20
14.5422799705
 30
0.0
 11
18.8012414625
 21
14.4152799705
 31
0.0
  0
LINE
  5
34C
330
1F
100
AcDbEntity
  8
GRAVURE
100
AcDbLine
 10
18.8012414625
 20
14.4152799705
 30
0.0
 11
20.7496414625
 21
14.4152799705
 31
0.0
  0
LINE
  5
34D
330
1F
100
AcDbEntity
  8
GRAVURE
100
AcDbLine
 10
20.7496414625
 20
14.4152799705
 30
0.0
 11
21.0562414625
 21
14.5422799705
 31
0.0
  0
LINE
  5
34E
330
1F
100
AcDbEntity
  8
GRAVURE
100
AcDbLine
 10
21.0562414625
 20
14.5422799705
 30
0.0
 11
23.0002414625
 21
14.5422799705
 31
0.0
  0
LINE
  5
34F
330
1F
100
AcDbEntity
  8
GRAVURE
100
AcDbLine
 10
23.0002414625
 20
16.4218799705
 30
0.0
 11
21.0562414625
 21
16.4218799705
 31
0.0
  0
LINE
  5
350
330
1F
100
AcDbEntity
  8
GRAVURE
100
AcDbLine
 10
21.0562414625
 20
16.4218799705
 30
0.0
 11
20.7496414625
 21
16.5488799705
 31
0.0
  0
LINE
  5
351
330
1F
100
AcDbEntity
  8
GRAVURE
100
AcDbLine
 10
20.7496414625
 20
16.5488799705
 30
0.0
 11
18.8012414625
 21
16.5488799705
 31
0.0
  0
LINE
  5
352
330
1F
100
AcDbEntity
  8
GRAVURE
100
AcDbLine
 10
18.8012414625
 20
16.5488799705
 30
0.0
 11
18.4946414625
 21
16.4218799705
 31
0.0
  0
LINE
  5
353
330
1F
100
AcDbEntity
  8
GRAVURE
100
AcDbLine
 10
18.4946414625
 20
16.4218799705
 30
0.0
 11
16.5398414625
 21
16.4218799705
 31
0.0
  0
LINE
  5
354
330
1F
100
AcDbEntity
  8
GRAVURE
100
AcDbLine
 10
16.5398414625
 20
16.4218799705
 30
0.0
 11
15.3910414625
 21
16.4218799705
 31
0.0
  0
LINE
  5
355
330
1F
100
AcDbEntity
  8
GRAVURE
100
AcDbLine
 10
15.3910414625
 20
16.4218799705
 30
0.0
 11
14.5085414625
 21
16.4218799705
 31
0.0
  0
LINE
  5
356
330
1F
100
AcDbEntity
  8
GRAVURE
100
AcDbLine
 10
13.7556414625
 20
15.6689799705
 30
0.0
 11
13.7556414625
 21
12.3457773147
 31
0.0
  0
LINE
  5
357
330
1F
100
AcDbEntity
  8
GRAVURE
100
AcDbLine
 10
13.3746414625
 20
11.6503799705
 30
0.0
 11
13.3746414625
 21
9.1537799705
 31
0.0
  0
LINE
  5
358
330
1F
100
AcDbEntity
  8
GRAVURE
100
AcDbLine
 10
15.9654414625
 20
9.1537799705
 30
0.0
 11
15.9654414625
 21
11.6503799705
 31
0.0
  0
ARC
  5
359
330
1F
100
AcDbEntity
  8
GRAVURE
100
AcDbCircle
 10
38.8211380614
 20
33.2620799705
 30
0.0
 40
1.109386452010688
100
AcDbArc
 50
57.9014012296
 51
302.0985987704
  0
ARC
  5
35A
330
1F
100
AcDbEntity
  8
GRAVURE
100
AcDbCircle
 10
43.3974414625
 20
33.2620799705
 30
0.0
 40
1.087699903466025
100
AcDbArc
 50
281.2500148007
 51
78.7499851993
  0
ARC
  5
35B
330
1F
100
AcDbEntity
  8
GRAVURE
100
AcDbCircle
 10
38.8211380614
 20
28.1820799705
 30
0.0
 40
1.109386452010685
100
AcDbArc
 50
57.9014012296
 51
302.0985987704
  0
ARC
  5
35C
330
1F
100
AcDbEntity
  8
GRAVURE
100
AcDbCircle
 10
43.3974414625
 20
28.1820799705
 30
0.0
 40
1.087699903466025
100
AcDbArc
 50
281.2500148007
 51
78.7499851993
  0
ARC
  5
35D
330
1F
100
AcDbEntity
  8
GRAVURE
100
AcDbCircle
 10
43.3974414625
 20
30.7220799705
 30
0.0
 40
1.087699903466025
100
AcDbArc
 50
281.2500148007
 51
78.7499851993
  0
ARC
  5
35E
330
1F
100
AcDbEntity
  8
GRAVURE
100
AcDbCircle
 10
38.8211380614
 20
30.7220799705
 30
0.0
 40
1.109386452010688
100
AcDbArc
 50
57.9014012296
 51
302.0985987704
  0
ARC
  5
35F
330
1F
100
AcDbEntity
  8
GRAVURE
100
AcDbCircle
 10
19.0134414625
 20
48.5020799705
 30
0.0
 40
1.087699903466036
100
AcDbArc
 50
101.2500148007
 51
258.7499851993
  0
ARC
  5
360
330
1F
100
AcDbEntity
  8
GRAVURE
100
AcDbCircle
 10
23.5897448636
 20
48.5020799705
 30
0.0
 40
1.109386452010682
100
AcDbArc
 50
237.9014012296
 51
122.0985987704
  0
ARC
  5
361
330
1F
100
AcDbEntity
  8
GRAVURE
100
AcDbCircle
 10
19.0134414625
 20
51.0420799705
 30
0.0
 40
1.087699903466028
100
AcDbArc
 50
101.2500148007
 51
258.7499851993
  0
ARC
  5
362
330
1F
100
AcDbEntity
  8
GRAVURE
100
AcDbCircle
 10
23.5897448636
 20
51.0420799705
 30
0.0
 40
1.109386452010684
100
AcDbArc
 50
237.9014012296
 51
122.0985987704
  0
ARC
  5
363
330
1F
100
AcDbEntity
  8
GRAVURE
100
AcDbCircle
 10
19.0134414625
 20
43.4220799705
 30
0.0
 40
1.087699903466025
100
AcDbArc
 50
101.2500148007
 51
258.7499851993
  0
ARC
  5
364
330
1F
100
AcDbEntity
  8
GRAVURE
100
AcDbCircle
 10
23.5897448636
 20
43.4220799705
 30
0.0
 40
1.109386452010684
100
AcDbArc
 50
237.9014012296
 51
122.0985987704
  0
ARC
  5
365
330
1F
100
AcDbEntity
  8
GRAVURE
100
AcDbCircle
 10
19.0134414625
 20
45.9620799705
 30
0.0
 40
1.087699903466026
100
AcDbArc
 50
101.2500148007
 51
258.7499851993
  0
ARC
  5
366
330
1F
100
AcDbEntity
  8
GRAVURE
100
AcDbCircle
 10
23.5897448636
 20
45.9620799705
 30
0.0
 40
1.109386452010684
100
AcDbArc
 50
237.9014012296
 51
122.0985987704
  0
ARC
  5
367
330
1F
100
AcDbEntity
  8
GRAVURE
100
AcDbCircle
 10
38.8211380614
 20
15.4820799705
 30
0.0
 40
1.109386452010684
100
AcDbArc
 50
57.9014012296
 51
302.0985987704
  0
ARC
  5
368
330
1F
100
AcDbEntity
  8
GRAVURE
100
AcDbCircle
 10
43.3974414625
 20
15.4820799705
 30
0.0
 40
1.087699903466028
100
AcDbArc
 50
281.2500148007
 51
78.7499851993
  0
ARC
  5
369
330
1F
100
AcDbEntity
  8
GRAVURE
100
AcDbCircle
 10
43.3974414625
 20
18.0220799705
 30
0.0
 40
1.087699903466025
100
AcDbArc
 50
281.2500148007
 51
78.7499851993
  0
ARC
  5
36A
330
1F
100
AcDbEntity
  8
GRAVURE
100
AcDbCircle
 10
38.8211380614
 20
18.0220799705
 30
0.0
 40
1.109386452010685
100
AcDbArc
 50
57.9014012296
 51
302.0985987704
  0
ARC
  5
36B
330
1F
100
AcDbEntity
  8
GRAVURE
100
AcDbCircle
 10
19.0134414625
 20
38.3420799705
 30
0.0
 40
1.087699903466026
100
AcDbArc
 50
101.2500148007
 51
258.7499851993
  0
ARC
  5
36C
330
1F
100
AcDbEntity
  8
GRAVURE
100
AcDbCircle
 10
23.5897448636
 20
38.3420799705
 30
0.0
 40
1.109386452010682
100
AcDbArc
 50
237.9014012296
 51
122.0985987704
  0
ARC
  5
36D
330
1F
100
AcDbEntity
  8
GRAVURE
100
AcDbCircle
 10
19.0134414625
 20
40.8820799705
 30
0.0
 40
1.087699903466025
100
AcDbArc
 50
101.2500148007
 51
258.7499851993
  0
ARC
  5
36E
330
1F
100
AcDbEntity
  8
GRAVURE
100
AcDbCircle
 10
23.5897448636
 20
40.8820799705
 30
0.0
 40
1.109386452010682
100
AcDbArc
 50
237.9014012296
 51
122.0985987704
  0
ARC
  5
36F
330
1F
100
AcDbEntity
  8
GRAVURE
100
AcDbCircle
 10
38.8211380614
 20
10.4020799705
 30
0.0
 40
1.109386452010685
100
AcDbArc
 50
57.9014012296
 51
302.0985987704
  0
ARC
  5
370
330
1F
100
AcDbEntity
  8
GRAVURE
100
AcDbCircle
 10
43.3974414625
 20
10.4020799705
 30
0.0
 40
1.087699903466025
100
AcDbArc
 50
281.2500148007
 51
78.7499851993
  0
ARC
  5
371
330
1F
100
AcDbEntity
  8
GRAVURE
100
AcDbCircle
 10
43.3974414625
 20
12.9420799705
 30
0.0
 40
1.087699903466025
100
AcDbArc
 50
281.2500148007
 51
78.7499851993
  0
ARC
  5
372
330
1F
100
AcDbEntity
  8
GRAVURE
100
AcDbCircle
 10
38.8211380614
 20
12.9420799705
 30
0.0
 40
1.109386452010685
100
AcDbArc
 50
57.9014012296
 51
302.0985987704
  0
ARC
  5
373
330
1F
100
AcDbEntity
  8
GRAVURE
100
AcDbCircle
 10
23.5897448636
 20
35.8020799705
 30
0.0
 40
1.109386452010684
100
AcDbArc
 50
237.9014012296
 51
122.0985987704
  0
ARC
  5
374
330
1F
100
AcDbEntity
  8
GRAVURE
100
AcDbCircle
 10
19.0134414625
 20
35.8020799705
 30
0.0
 40
1.087699903466027
100
AcDbArc
 50
101.2500148007
 51
258.7499851993
  0
ARC
  5
375
330
1F
100
AcDbEntity
  8
GRAVURE
100
AcDbCircle
 10
43.3974414625
 20
20.5620799705
 30
0.0
 40
1.087699903466025
100
AcDbArc
 50
281.2500148007
 51
78.7499851993
  0
ARC
  5
376
330
1F
100
AcDbEntity
  8
GRAVURE
100
AcDbCircle
 10
38.8211380614
 20
20.5620799705
 30
0.0
 40
1.109386452010685
100
AcDbArc
 50
57.9014012296
 51
302.0985987704
  0
ARC
  5
377
330
1F
100
AcDbEntity
  8
GRAVURE
100
AcDbCircle
 10
19.0134414625
 20
30.7220799705
 30
0.0
 40
1.087699903466025
100
AcDbArc
 50
101.2500148007
 51
258.7499851993
  0
ARC
  5
378
330
1F
100
AcDbEntity
  8
GRAVURE
100
AcDbCircle
 10
23.5854414625
 20
30.6747143209
 30
0.0
 40
1.067191693072365
100
AcDbArc
 50
236.7457615026
 51
303.2542384974
  0
ARC
  5
379
330
1F
100
AcDbEntity
  8
GRAVURE
100
AcDbCircle
 10
28.2054414625
 20
12.934267006
 30
0.0
 40
0.971062169606404
100
AcDbArc
 50
165.4220740254
 51
14.5779259746
  0
ARC
  5
37A
330
1F
100
AcDbEntity
  8
GRAVURE
100
AcDbCircle
 10
28.3923414625
 20
30.9089799705
 30
0.0
 40
0.7529000000000075
100
AcDbArc
 50
0.0
 51
90.0
  0
ARC
  5
37B
330
1F
100
AcDbEntity
  8
GRAVURE
100
AcDbCircle
 10
23.5854414625
 20
30.7694456201
 30
0.0
 40
1.067191693072359
100
AcDbArc
 50
56.7457615026
 51
123.2542384974
  0
ARC
  5
37C
330
1F
100
AcDbEntity
  8
GRAVURE
100
AcDbCircle
 10
23.5897448636
 20
33.2620799705
 30
0.0
 40
1.109386452010682
100
AcDbArc
 50
237.9014012296
 51
122.0985987704
  0
ARC
  5
37D
330
1F
100
AcDbEntity
  8
GRAVURE
100
AcDbCircle
 10
15.1554414625
 20
38.3489648334
 30
0.0
 40
0.9708289851546212
100
AcDbArc
 50
345.475084776
 51
194.524915224
  0
ARC
  5
37E
330
1F
100
AcDbEntity
  8
GRAVURE
100
AcDbCircle
 10
14.9685414625
 20
33.0751799705
 30
0.0
 40
0.7529000000000003
100
AcDbArc
 50
180.0
 51
270.0
  0
ARC
  5
37F
330
1F
100
AcDbEntity
  8
GRAVURE
100
AcDbCircle
 10
19.0134414625
 20
25.6420799705
 30
0.0
 40
1.08769990346603
100
AcDbArc
 50
101.2500148007
 51
258.7499851993
  0
ARC
  5
380
330
1F
100
AcDbEntity
  8
GRAVURE
100
AcDbCircle
 10
23.5897448636
 20
25.6420799705
 30
0.0
 40
1.109386452010685
100
AcDbArc
 50
237.9014012296
 51
122.0985987704
  0
ARC
  5
381
330
1F
100
AcDbEntity
  8
GRAVURE
100
AcDbCircle
 10
19.0134414625
 20
28.1820799705
 30
0.0
 40
1.087699903466026
100
AcDbArc
 50
101.2500148007
 51
258.7499851993
  0
ARC
  5
382
330
1F
100
AcDbEntity
  8
GRAVURE
100
AcDbCircle
 10
23.5897448636
 20
28.1820799705
 30
0.0
 40
1.109386452010685
100
AcDbArc
 50
237.9014012296
 51
122.0985987704
  0
ARC
  5
383
330
1F
100
AcDbEntity
  8
GRAVURE
100
AcDbCircle
 10
19.0134414625
 20
20.5620799705
 30
0.0
 40
1.087699903466026
100
AcDbArc
 50
101.2500148007
 51
258.7499851993
  0
ARC
  5
384
330
1F
100
AcDbEntity
  8
GRAVURE
100
AcDbCircle
 10
23.5897448636
 20
20.5620799705
 30
0.0
 40
1.109386452010685
100
AcDbArc
 50
237.9014012296
 51
122.0985987704
  0
ARC
  5
385
330
1F
100
AcDbEntity
  8
GRAVURE
100
AcDbCircle
 10
19.0134414625
 20
10.4020799705
 30
0.0
 40
1.087699903466026
100
AcDbArc
 50
101.2500148007
 51
258.7499851993
  0
ARC
  5
386
330
1F
100
AcDbEntity
  8
GRAVURE
100
AcDbCircle
 10
23.5897448636
 20
10.4020799705
 30
0.0
 40
1.109386452010685
100
AcDbArc
 50
237.9014012296
 51
122.0985987704
  0
ARC
  5
387
330
1F
100
AcDbEntity
  8
GRAVURE
100
AcDbCircle
 10
19.0134414625
 20
12.9420799705
 30
0.0
 40
1.087699903466026
100
AcDbArc
 50
101.2500148007
 51
258.7499851993
  0
ARC
  5
388
330
1F
100
AcDbEntity
  8
GRAVURE
100
AcDbCircle
 10
23.5897448636
 20
12.9420799705
 30
0.0
 40
1.109386452010685
100
AcDbArc
 50
237.9014012296
 51
122.0985987704
  0
ARC
  5
389
330
1F
100
AcDbEntity
  8
GRAVURE
100
AcDbCircle
 10
47.2554414625
 20
18.0151951077
 30
0.0
 40
0.9708289851546187
100
AcDbArc
 50
165.475084776
 51
14.524915224
  0
ARC
  5
38A
330
1F
100
AcDbEntity
  8
GRAVURE
100
AcDbCircle
 10
38.8211380614
 20
25.6420799705
 30
0.0
 40
1.109386452010685
100
AcDbArc
 50
57.9014012296
 51
302.0985987704
  0
ARC
  5
38B
330
1F
100
AcDbEntity
  8
GRAVURE
100
AcDbCircle
 10
47.4423414625
 20
25.8289799705
 30
0.0
 40
0.7529000000000003
100
AcDbArc
 50
0.0
 51
90.0
  0
ARC
  5
38C
330
1F
100
AcDbEntity
  8
GRAVURE
100
AcDbCircle
 10
38.8211380614
 20
38.3420799705
 30
0.0
 40
1.109386452010688
100
AcDbArc
 50
57.9014012296
 51
302.0985987704
  0
ARC
  5
38D
330
1F
100
AcDbEntity
  8
GRAVURE
100
AcDbCircle
 10
43.3974414625
 20
38.3420799705
 30
0.0
 40
1.087699903466028
100
AcDbArc
 50
281.2500148007
 51
78.7499851993
  0
ARC
  5
38E
330
1F
100
AcDbEntity
  8
GRAVURE
100
AcDbCircle
 10
38.8211380614
 20
40.8820799705
 30
0.0
 40
1.109386452010688
100
AcDbArc
 50
57.9014012296
 51
302.0985987704
  0
ARC
  5
38F
330
1F
100
AcDbEntity
  8
GRAVURE
100
AcDbCircle
 10
47.263254427
 20
40.8820799705
 30
0.0
 40
0.9710621696064075
100
AcDbArc
 50
255.4220740254
 51
104.5779259746
  0
ARC
  5
390
330
1F
100
AcDbEntity
  8
GRAVURE
100
AcDbCircle
 10
38.8211380614
 20
43.4220799705
 30
0.0
 40
1.109386452010682
100
AcDbArc
 50
57.9014012296
 51
302.0985987704
  0
ARC
  5
391
330
1F
100
AcDbEntity
  8
GRAVURE
100
AcDbCircle
 10
32.2054414625
 20
12.9420799705
 30
0.0
 40
0.9589069193618325
100
AcDbArc
 50
314.307075979
 51
225.692924021
  0
ARC
  5
392
330
1F
100
AcDbEntity
  8
GRAVURE
100
AcDbCircle
 10
26.3123414625
 20
23.2889799705
 30
0.0
 40
0.7529000000000003
100
AcDbArc
 50
0.0
 51
90.0
  0
ARC
  5
393
330
1F
100
AcDbEntity
  8
GRAVURE
100
AcDbCircle
 10
23.5854414625
 20
23.1494456201
 30
0.0
 40
1.067191693072353
100
AcDbArc
 50
56.7457615026
 51
123.2542384974
  0
ARC
  5
394
330
1F
100
AcDbEntity
  8
GRAVURE
100
AcDbCircle
 10
15.9654414625
 20
23.8716255273
 30
0.0
 40
1.08030033575275
100
AcDbArc
 50
9.0675712083
 51
170.9324287917
  0
ARC
  5
395
330
1F
100
AcDbEntity
  8
GRAVURE
100
AcDbCircle
 10
13.4254414625
 20
23.8716255273
 30
0.0
 40
1.080300335752753
100
AcDbArc
 50
9.0675712083
 51
29.5479529388
  0
ARC
  5
396
330
1F
100
AcDbEntity
  8
GRAVURE
100
AcDbCircle
 10
13.6123414625
 20
32.1789799705
 30
0.0
 40
0.7529000000000039
100
AcDbArc
 50
0.0
 51
90.0
  0
ARC
  5
397
330
1F
100
AcDbEntity
  8
GRAVURE
100
AcDbCircle
 10
11.1554414625
 20
38.3489648334
 30
0.0
 40
0.970828985154623
100
AcDbArc
 50
345.475084776
 51
194.524915224
  0
ARC
  5
398
330
1F
100
AcDbEntity
  8
GRAVURE
100
AcDbCircle
 10
10.9685414625
 20
31.8051799705
 30
0.0
 40
0.7529000000000039
100
AcDbArc
 50
180.0
 51
270.0
  0
ARC
  5
399
330
1F
100
AcDbEntity
  8
GRAVURE
100
AcDbCircle
 10
13.4254414625
 20
23.8716255273
 30
0.0
 40
1.080300335752749
100
AcDbArc
 50
150.4520470612
 51
170.9324287917
  0
ARC
  5
39A
330
1F
100
AcDbEntity
  8
GRAVURE
100
AcDbCircle
 10
10.8854414625
 20
23.8716255273
 30
0.0
 40
1.08030033575275
100
AcDbArc
 50
9.0675712083
 51
170.9324287917
  0
ARC
  5
39B
330
1F
100
AcDbEntity
  8
GRAVURE
100
AcDbCircle
 10
8.3421191398
 20
23.8530187003
 30
0.0
 40
1.086660188333985
100
AcDbArc
 50
10.0088186078
 51
168.143783514
  0
ARC
  5
39C
330
1F
100
AcDbEntity
  8
GRAVURE
100
AcDbCircle
 10
8.3423715566
 20
22.3354855291
 30
0.0
 40
1.083799696004773
100
AcDbArc
 50
191.0434549968
 51
350.8039428814
  0
ARC
  5
39D
330
1F
100
AcDbEntity
  8
GRAVURE
100
AcDbCircle
 10
10.8854414625
 20
22.3325344137
 30
0.0
 40
1.08030033575275
100
AcDbArc
 50
189.0675712083
 51
350.9324287917
  0
ARC
  5
39E
330
1F
100
AcDbEntity
  8
GRAVURE
100
AcDbCircle
 10
13.4254414625
 20
22.3325344137
 30
0.0
 40
1.080300335752752
100
AcDbArc
 50
189.0675712083
 51
350.9324287917
  0
ARC
  5
39F
330
1F
100
AcDbEntity
  8
GRAVURE
100
AcDbCircle
 10
15.9654414625
 20
22.3325344137
 30
0.0
 40
1.08030033575275
100
AcDbArc
 50
189.0675712083
 51
350.9324287917
  0
ARC
  5
3A0
330
1F
100
AcDbEntity
  8
GRAVURE
100
AcDbCircle
 10
23.5854414625
 20
23.0547143209
 30
0.0
 40
1.067191693072365
100
AcDbArc
 50
236.7457615026
 51
303.2542384974
  0
ARC
  5
3A1
330
1F
100
AcDbEntity
  8
GRAVURE
100
AcDbCircle
 10
25.9385414625
 20
7.6751799705
 30
0.0
 40
0.7529000000000012
100
AcDbArc
 50
180.0
 51
270.0
  0
ARC
  5
3A2
330
1F
100
AcDbEntity
  8
GRAVURE
100
AcDbCircle
 10
47.9023414625
 20
7.6751799705
 30
0.0
 40
0.7529000000000039
100
AcDbArc
 50
270.0
 51
0.0
  0
ARC
  5
3A3
330
1F
100
AcDbEntity
  8
GRAVURE
100
AcDbCircle
 10
51.4423414625
 20
12.7551799705
 30
0.0
 40
0.7529000000000039
100
AcDbArc
 50
270.0
 51
0.0
  0
ARC
  5
3A4
330
1F
100
AcDbEntity
  8
GRAVURE
100
AcDbCircle
 10
51.2554414625
 20
40.8898929351
 30
0.0
 40
0.9710621696064039
100
AcDbArc
 50
345.4220740254
 51
194.5779259746
  0
ARC
  5
3A5
330
1F
100
AcDbEntity
  8
GRAVURE
100
AcDbCircle
 10
47.5285414625
 20
13.1289799705
 30
0.0
 40
0.7529000000000021
100
AcDbArc
 50
90.0
 51
180.0
  0
ARC
  5
3A6
330
1F
100
AcDbEntity
  8
GRAVURE
100
AcDbCircle
 10
49.2554414625
 20
40.8715644838
 30
0.0
 40
0.9717459049461747
100
AcDbArc
 50
165.267858496
 51
14.732141504
  0
ARC
  5
3A7
330
1F
100
AcDbEntity
  8
GRAVURE
100
AcDbCircle
 10
49.4423414625
 20
43.6089799705
 30
0.0
 40
0.7529000000000039
100
AcDbArc
 50
0.0
 51
90.0
  0
ARC
  5
3A8
330
1F
100
AcDbEntity
  8
GRAVURE
100
AcDbCircle
 10
38.8211380614
 20
35.8020799705
 30
0.0
 40
1.109386452010688
100
AcDbArc
 50
57.9014012296
 51
302.0985987704
  0
ARC
  5
3A9
330
1F
100
AcDbEntity
  8
GRAVURE
100
AcDbCircle
 10
43.3974414625
 20
35.8020799705
 30
0.0
 40
1.087699903466025
100
AcDbArc
 50
281.2500148007
 51
78.7499851993
  0
CIRCLE
  5
3AA
330
1F
100
AcDbEntity
  8
GRAVURE
100
AcDbCircle
 10
49.2554414625
 20
18.0220799705
 30
0.0
 40
0.9775806514042715
  0
CIRCLE
  5
3AB
330
1F
100
AcDbEntity
  8
GRAVURE
100
AcDbCircle
 10
13.1554414625
 20
38.3420799705
 30
0.0
 40
0.9775486944393027
  0
ARC
  5
3AC
330
1F
100
AcDbEntity
  8
GRAVURE
100
AcDbCircle
 10
38.8211380614
 20
51.0420799705
 30
0.0
 40
1.109386452010682
100
AcDbArc
 50
57.9014012296
 51
302.0985987704
  0
ARC
  5
3AD
330
1F
100
AcDbEntity
  8
GRAVURE
100
AcDbCircle
 10
43.3974414625
 20
51.0420799705
 30
0.0
 40
1.087699903466025
100
AcDbArc
 50
281.2500148007
 51
78.7499851993
  0
ARC
  5
3AE
330
1F
100
AcDbEntity
  8
GRAVURE
100
AcDbCircle
 10
43.3974414625
 20
48.5020799705
 30
0.0
 40
1.087699903466028
100
AcDbArc
 50
281.2500148007
 51
78.7499851993
  0
ARC
  5
3AF
330
1F
100
AcDbEntity
  8
GRAVURE
100
AcDbCircle
 10
38.8211380614
 20
48.5020799705
 30
0.0
 40
1.109386452010688
100
AcDbArc
 50
57.9014012296
 51
302.0985987704
  0
ARC
  5
3B0
330
1F
100
AcDbEntity
  8
GRAVURE
100
AcDbCircle
 10
38.8211380614
 20
45.9620799705
 30
0.0
 40
1.109386452010682
100
AcDbArc
 50
57.9014012296
 51
302.0985987704
  0
ARC
  5
3B1
330
1F
100
AcDbEntity
  8
GRAVURE
100
AcDbCircle
 10
43.3974414625
 20
45.9620799705
 30
0.0
 40
1.087699903466025
100
AcDbArc
 50
281.2500148007
 51
78.7499851993
  0
ARC
  5
3B2
330
1F
100
AcDbEntity
  8
GRAVURE
100
AcDbCircle
 10
23.5897448636
 20
15.4820799705
 30
0.0
 40
1.109386452010684
100
AcDbArc
 50
237.9014012296
 51
122.0985987704
  0
ARC
  5
3B3
330
1F
100
AcDbEntity
  8
GRAVURE
100
AcDbCircle
 10
14.5085414625
 20
15.6689799705
 30
0.0
 40
0.7529000000000021
100
AcDbArc
 50
90.0
 51
180.0
  0
ARC
  5
3B4
330
1F
100
AcDbEntity
  8
GRAVURE
100
AcDbCircle
 10
14.6700414625
 20
11.3927169691
 30
0.0
 40
1.320776810186592
100
AcDbArc
 50
133.8140266111
 51
168.7503437457
  0
ARC
  5
3B5
330
1F
100
AcDbEntity
  8
GRAVURE
100
AcDbCircle
 10
14.6700414625
 20
9.4114799705
 30
0.0
 40
1.320784028522454
100
AcDbArc
 50
191.2512304175
 51
348.7487695825
  0
ARC
  5
3B6
330
1F
100
AcDbEntity
  8
GRAVURE
100
AcDbCircle
 10
14.6700414625
 20
11.3927169691
 30
0.0
 40
1.320776810186593
100
AcDbArc
 50
11.2496562543
 51
43.0480028562
  0
ARC
  5
3B7
330
1F
100
AcDbEntity
  8
GRAVURE
100
AcDbCircle
 10
8.3622351108
 20
28.1820799705
 30
0.0
 40
3.539206351706035
100
AcDbArc
 50
223.7453521605
 51
258.7938617603
  0
ARC
  5
3B8
330
1F
100
AcDbEntity
  8
GRAVURE
100
AcDbCircle
 10
54.0362997188
 20
7.8724285023
 30
0.0
 40
3.528644459924156
100
AcDbArc
 50
43.2741768618
 51
226.2824822433
  0
ARC
  5
3B9
330
1F
100
AcDbEntity
  8
GRAVURE
100
AcDbCircle
 10
54.0362997188
 20
53.5717314388
 30
0.0
 40
3.528644459924149
100
AcDbArc
 50
133.7175177567
 51
316.7258231382
  0
ARC
  5
3BA
330
1F
100
AcDbEntity
  8
GRAVURE
100
AcDbCircle
 10
8.3644859278
 20
53.5496740573
 30
0.0
 40
3.518513756865338
100
AcDbArc
 50
223.3387836698
 51
46.979179787
  0
ARC
  5
3BB
330
1F
100
AcDbEntity
  8
GRAVURE
100
AcDbCircle
 10
8.3622351108
 20
28.1820799705
 30
0.0
 40
3.539206351706037
100
AcDbArc
 50
280.6736662459
 51
136.2546478395
  0
CIRCLE
  5
3BC
330
1F
100
AcDbEntity
  8
PERCAGE_-_1MM
100
AcDbCircle
 10
9.1554414625
 20
38.3420799705
 30
0.0
 40
0.4999999999999988
  0
CIRCLE
  5
3BD
330
1F
100
AcDbEntity
  8
PERCAGE_-_1MM
100
AcDbCircle
 10
11.1554414625
 20
38.3420799705
 30
0.0
 40
0.4999999999999988
  0
CIRCLE
  5
3BE
330
1F
100
AcDbEntity
  8
PERCAGE_-_1MM
100
AcDbCircle
 10
13.1554414625
 20
38.3420799705
 30
0.0
 40
0.4999999999999988
  0
CIRCLE
  5
3BF
330
1F
100
AcDbEntity
  8
PERCAGE_-_1MM
100
AcDbCircle
 10
15.1554414625
 20
38.3420799705
 30
0.0
 40
0.4999999999999954
  0
CIRCLE
  5
3C0
330
1F
100
AcDbEntity
  8
PERCAGE_-_1MM
100
AcDbCircle
 10
28.2054414625
 20
12.9420799705
 30
0.0
 40
0.4999999999999983
  0
CIRCLE
  5
3C1
330
1F
100
AcDbEntity
  8
PERCAGE_-_1MM
100
AcDbCircle
 10
30.2054414625
 20
12.9420799705
 30
0.0
 40
0.5000000000000017
  0
CIRCLE
  5
3C2
330
1F
100
AcDbEntity
  8
PERCAGE_-_1MM
100
AcDbCircle
 10
32.2054414625
 20
12.9420799705
 30
0.0
 40
0.500000000000005
  0
CIRCLE
  5
3C3
330
1F
100
AcDbEntity
  8
PERCAGE_-_1MM
100
AcDbCircle
 10
34.2054414625
 20
12.9420799705
 30
0.0
 40
0.4999999999999983
  0
CIRCLE
  5
3C4
330
1F
100
AcDbEntity
  8
PERCAGE_-_1MM
100
AcDbCircle
 10
47.2554414625
 20
18.0220799705
 30
0.0
 40
0.5000000000000056
  0
CIRCLE
  5
3C5
330
1F
100
AcDbEntity
  8
PERCAGE_-_1MM
100
AcDbCircle
 10
49.2554414625
 20
18.0220799705
 30
0.0
 40
0.4999999999999988
  0
CIRCLE
  5
3C6
330
1F
100
AcDbEntity
  8
PERCAGE_-_1MM
100
AcDbCircle
 10
51.2554414625
 20
18.0220799705
 30
0.0
 40
0.4999999999999988
  0
CIRCLE
  5
3C7
330
1F
100
AcDbEntity
  8
PERCAGE_-_1MM
100
AcDbCircle
 10
53.2554414625
 20
18.0220799705
 30
0.0
 40
0.4999999999999988
  0
CIRCLE
  5
3C8
330
1F
100
AcDbEntity
  8
PERCAGE_-_1MM
100
AcDbCircle
 10
47.2554414625
 20
40.8820799705
 30
0.0
 40
0.5000000000000056
  0
CIRCLE
  5
3C9
330
1F
100
AcDbEntity
  8
PERCAGE_-_1MM
100
AcDbCircle
 10
49.2554414625
 20
40.8820799705
 30
0.0
 40
0.4999999999999988
  0
CIRCLE
  5
3CA
330
1F
100
AcDbEntity
  8
PERCAGE_-_1MM
100
AcDbCircle
 10
51.2554414625
 20
40.8820799705
 30
0.0
 40
0.4999999999999988
  0
CIRCLE
  5
3CB
330
1F
100
AcDbEntity
  8
PERCAGE_-_1MM
100
AcDbCircle
 10
53.2554414625
 20
40.8820799705
 30
0.0
 40
0.4999999999999988
  0
CIRCLE
  5
3CC
330
1F
100
AcDbEntity
  8
PERCAGE_-_1_2MM
100
AcDbCircle
 10
19.7754414625
 20
51.0420799705
 30
0.0
 40
0.5999999999999998
  0
CIRCLE
  5
3CD
330
1F
100
AcDbEntity
  8
PERCAGE_-_1_2MM
100
AcDbCircle
 10
23.5854414625
 20
51.0420799705
 30
0.0
 40
0.5999999999999998
  0
CIRCLE
  5
3CE
330
1F
100
AcDbEntity
  8
PERCAGE_-_1_2MM
100
AcDbCircle
 10
19.7754414625
 20
48.5020799705
 30
0.0
 40
0.5999999999999998
  0
CIRCLE
  5
3CF
330
1F
100
AcDbEntity
  8
PERCAGE_-_1_2MM
100
AcDbCircle
 10
23.5854414625
 20
48.5020799705
 30
0.0
 40
0.5999999999999998
  0
CIRCLE
  5
3D0
330
1F
100
AcDbEntity
  8
PERCAGE_-_1_2MM
100
AcDbCircle
 10
19.7754414625
 20
45.9620799705
 30
0.0
 40
0.5999999999999998
  0
CIRCLE
  5
3D1
330
1F
100
AcDbEntity
  8
PERCAGE_-_1_2MM
100
AcDbCircle
 10
23.5854414625
 20
45.9620799705
 30
0.0
 40
0.5999999999999998
  0
CIRCLE
  5
3D2
330
1F
100
AcDbEntity
  8
PERCAGE_-_1_2MM
100
AcDbCircle
 10
19.7754414625
 20
43.4220799705
 30
0.0
 40
0.6000000000000019
  0
CIRCLE
  5
3D3
330
1F
100
AcDbEntity
  8
PERCAGE_-_1_2MM
100
AcDbCircle
 10
23.5854414625
 20
43.4220799705
 30
0.0
 40
0.6000000000000019
  0
CIRCLE
  5
3D4
330
1F
100
AcDbEntity
  8
PERCAGE_-_1_2MM
100
AcDbCircle
 10
19.7754414625
 20
40.8820799705
 30
0.0
 40
0.6000000000000019
  0
CIRCLE
  5
3D5
330
1F
100
AcDbEntity
  8
PERCAGE_-_1_2MM
100
AcDbCircle
 10
23.5854414625
 20
40.8820799705
 30
0.0
 40
0.6000000000000019
  0
CIRCLE
  5
3D6
330
1F
100
AcDbEntity
  8
PERCAGE_-_1_2MM
100
AcDbCircle
 10
19.7754414625
 20
38.3420799705
 30
0.0
 40
0.6000000000000019
  0
CIRCLE
  5
3D7
330
1F
100
AcDbEntity
  8
PERCAGE_-_1_2MM
100
AcDbCircle
 10
23.5854414625
 20
38.3420799705
 30
0.0
 40
0.6000000000000019
  0
CIRCLE
  5
3D8
330
1F
100
AcDbEntity
  8
PERCAGE_-_1_2MM
100
AcDbCircle
 10
19.7754414625
 20
35.8020799705
 30
0.0
 40
0.5999999999999998
  0
CIRCLE
  5
3D9
330
1F
100
AcDbEntity
  8
PERCAGE_-_1_2MM
100
AcDbCircle
 10
23.5854414625
 20
35.8020799705
 30
0.0
 40
0.5999999999999998
  0
CIRCLE
  5
3DA
330
1F
100
AcDbEntity
  8
PERCAGE_-_1_2MM
100
AcDbCircle
 10
19.7754414625
 20
33.2620799705
 30
0.0
 40
0.5999999999999998
  0
CIRCLE
  5
3DB
330
1F
100
AcDbEntity
  8
PERCAGE_-_1_2MM
100
AcDbCircle
 10
23.5854414625
 20
33.2620799705
 30
0.0
 40
0.5999999999999998
  0
CIRCLE
  5
3DC
330
1F
100
AcDbEntity
  8
PERCAGE_-_1_2MM
100
AcDbCircle
 10
19.7754414625
 20
30.7220799705
 30
0.0
 40
0.5999999999999998
  0
CIRCLE
  5
3DD
330
1F
100
AcDbEntity
  8
PERCAGE_-_1_2MM
100
AcDbCircle
 10
23.5854414625
 20
30.7220799705
 30
0.0
 40
0.5999999999999998
  0
CIRCLE
  5
3DE
330
1F
100
AcDbEntity
  8
PERCAGE_-_1_2MM
100
AcDbCircle
 10
19.7754414625
 20
28.1820799705
 30
0.0
 40
0.6000000000000009
  0
CIRCLE
  5
3DF
330
1F
100
AcDbEntity
  8
PERCAGE_-_1_2MM
100
AcDbCircle
 10
23.5854414625
 20
28.1820799705
 30
0.0
 40
0.6000000000000009
  0
CIRCLE
  5
3E0
330
1F
100
AcDbEntity
  8
PERCAGE_-_1_2MM
100
AcDbCircle
 10
23.5854414625
 20
25.6420799705
 30
0.0
 40
0.5999999999999998
  0
CIRCLE
  5
3E1
330
1F
100
AcDbEntity
  8
PERCAGE_-_1_2MM
100
AcDbCircle
 10
19.7754414625
 20
25.6420799705
 30
0.0
 40
0.5999999999999998
  0
CIRCLE
  5
3E2
330
1F
100
AcDbEntity
  8
PERCAGE_-_1_2MM
100
AcDbCircle
 10
19.7754414625
 20
23.1020799705
 30
0.0
 40
0.5999999999999998
  0
CIRCLE
  5
3E3
330
1F
100
AcDbEntity
  8
PERCAGE_-_1_2MM
100
AcDbCircle
 10
23.5854414625
 20
23.1020799705
 30
0.0
 40
0.5999999999999998
  0
CIRCLE
  5
3E4
330
1F
100
AcDbEntity
  8
PERCAGE_-_1_2MM
100
AcDbCircle
 10
15.9654414625
 20
23.1020799705
 30
0.0
 40
0.5999999999999998
  0
CIRCLE
  5
3E5
330
1F
100
AcDbEntity
  8
PERCAGE_-_1_2MM
100
AcDbCircle
 10
13.4254414625
 20
23.1020799705
 30
0.0
 40
0.6000000000000031
  0
CIRCLE
  5
3E6
330
1F
100
AcDbEntity
  8
PERCAGE_-_1_2MM
100
AcDbCircle
 10
10.8854414625
 20
23.1020799705
 30
0.0
 40
0.6000000000000031
  0
CIRCLE
  5
3E7
330
1F
100
AcDbEntity
  8
PERCAGE_-_1_2MM
100
AcDbCircle
 10
8.3454414625
 20
23.1020799705
 30
0.0
 40
0.5999999999999998
  0
CIRCLE
  5
3E8
330
1F
100
AcDbEntity
  8
PERCAGE_-_1_2MM
100
AcDbCircle
 10
38.8254414625
 20
51.0420799705
 30
0.0
 40
0.6000000000000031
  0
CIRCLE
  5
3E9
330
1F
100
AcDbEntity
  8
PERCAGE_-_1_2MM
100
AcDbCircle
 10
42.6354414625
 20
51.0420799705
 30
0.0
 40
0.5999999999999963
  0
CIRCLE
  5
3EA
330
1F
100
AcDbEntity
  8
PERCAGE_-_1_2MM
100
AcDbCircle
 10
42.6354414625
 20
48.5020799705
 30
0.0
 40
0.5999999999999963
  0
CIRCLE
  5
3EB
330
1F
100
AcDbEntity
  8
PERCAGE_-_1_2MM
100
AcDbCircle
 10
38.8254414625
 20
48.5020799705
 30
0.0
 40
0.6000000000000031
  0
CIRCLE
  5
3EC
330
1F
100
AcDbEntity
  8
PERCAGE_-_1_2MM
100
AcDbCircle
 10
38.8254414625
 20
45.9620799705
 30
0.0
 40
0.6000000000000031
  0
CIRCLE
  5
3ED
330
1F
100
AcDbEntity
  8
PERCAGE_-_1_2MM
100
AcDbCircle
 10
42.6354414625
 20
45.9620799705
 30
0.0
 40
0.5999999999999963
  0
CIRCLE
  5
3EE
330
1F
100
AcDbEntity
  8
PERCAGE_-_1_2MM
100
AcDbCircle
 10
42.6354414625
 20
43.4220799705
 30
0.0
 40
0.5999999999999984
  0
CIRCLE
  5
3EF
330
1F
100
AcDbEntity
  8
PERCAGE_-_1_2MM
100
AcDbCircle
 10
38.8254414625
 20
43.4220799705
 30
0.0
 40
0.6000000000000052
  0
CIRCLE
  5
3F0
330
1F
100
AcDbEntity
  8
PERCAGE_-_1_2MM
100
AcDbCircle
 10
38.8254414625
 20
40.8820799705
 30
0.0
 40
0.6000000000000052
  0
CIRCLE
  5
3F1
330
1F
100
AcDbEntity
  8
PERCAGE_-_1_2MM
100
AcDbCircle
 10
42.6354414625
 20
40.8820799705
 30
0.0
 40
0.5999999999999984
  0
CIRCLE
  5
3F2
330
1F
100
AcDbEntity
  8
PERCAGE_-_1_2MM
100
AcDbCircle
 10
42.6354414625
 20
38.3420799705
 30
0.0
 40
0.5999999999999963
  0
CIRCLE
  5
3F3
330
1F
100
AcDbEntity
  8
PERCAGE_-_1_2MM
100
AcDbCircle
 10
38.8254414625
 20
38.3420799705
 30
0.0
 40
0.6000000000000031
  0
CIRCLE
  5
3F4
330
1F
100
AcDbEntity
  8
PERCAGE_-_1_2MM
100
AcDbCircle
 10
38.8254414625
 20
35.8020799705
 30
0.0
 40
0.6000000000000011
  0
CIRCLE
  5
3F5
330
1F
100
AcDbEntity
  8
PERCAGE_-_1_2MM
100
AcDbCircle
 10
42.6354414625
 20
35.8020799705
 30
0.0
 40
0.5999999999999942
  0
CIRCLE
  5
3F6
330
1F
100
AcDbEntity
  8
PERCAGE_-_1_2MM
100
AcDbCircle
 10
42.6354414625
 20
33.2620799705
 30
0.0
 40
0.5999999999999942
  0
CIRCLE
  5
3F7
330
1F
100
AcDbEntity
  8
PERCAGE_-_1_2MM
100
AcDbCircle
 10
38.8254414625
 20
33.2620799705
 30
0.0
 40
0.6000000000000011
  0
CIRCLE
  5
3F8
330
1F
100
AcDbEntity
  8
PERCAGE_-_1_2MM
100
AcDbCircle
 10
38.8254414625
 20
30.7220799705
 30
0.0
 40
0.6000000000000031
  0
CIRCLE
  5
3F9
330
1F
100
AcDbEntity
  8
PERCAGE_-_1_2MM
100
AcDbCircle
 10
42.6354414625
 20
30.7220799705
 30
0.0
 40
0.5999999999999963
  0
CIRCLE
  5
3FA
330
1F
100
AcDbEntity
  8
PERCAGE_-_1_2MM
100
AcDbCircle
 10
42.6354414625
 20
28.1820799705
 30
0.0
 40
0.5999999999999974
  0
CIRCLE
  5
3FB
330
1F
100
AcDbEntity
  8
PERCAGE_-_1_2MM
100
AcDbCircle
 10
38.8211380614
 20
28.1820799705
 30
0.0
 40
0.5999999999999974
  0
CIRCLE
  5
3FC
330
1F
100
AcDbEntity
  8
PERCAGE_-_1_2MM
100
AcDbCircle
 10
38.8254414625
 20
25.6420799705
 30
0.0
 40
0.6000000000000031
  0
CIRCLE
  5
3FD
330
1F
100
AcDbEntity
  8
PERCAGE_-_1_2MM
100
AcDbCircle
 10
42.6354414625
 20
25.6420799705
 30
0.0
 40
0.5999999999999963
  0
CIRCLE
  5
3FE
330
1F
100
AcDbEntity
  8
PERCAGE_-_1_2MM
100
AcDbCircle
 10
42.6354414625
 20
23.1020799705
 30
0.0
 40
0.5999999999999963
  0
CIRCLE
  5
3FF
330
1F
100
AcDbEntity
  8
PERCAGE_-_1_2MM
100
AcDbCircle
 10
38.8254414625
 20
23.1020799705
 30
0.0
 40
0.6000000000000031
  0
CIRCLE
  5
400
330
1F
100
AcDbEntity
  8
PERCAGE_-_1_2MM
100
AcDbCircle
 10
38.8254414625
 20
20.5620799705
 30
0.0
 40
0.6000000000000031
  0
CIRCLE
  5
401
330
1F
100
AcDbEntity
  8
PERCAGE_-_1_2MM
100
AcDbCircle
 10
42.6354414625
 20
20.5620799705
 30
0.0
 40
0.5999999999999963
  0
CIRCLE
  5
402
330
1F
100
AcDbEntity
  8
PERCAGE_-_1_2MM
100
AcDbCircle
 10
42.6354414625
 20
18.0220799705
 30
0.0
 40
0.5999999999999963
  0
CIRCLE
  5
403
330
1F
100
AcDbEntity
  8
PERCAGE_-_1_2MM
100
AcDbCircle
 10
38.8254414625
 20
18.0220799705
 30
0.0
 40
0.6000000000000031
  0
CIRCLE
  5
404
330
1F
100
AcDbEntity
  8
PERCAGE_-_1_2MM
100
AcDbCircle
 10
38.8254414625
 20
15.4820799705
 30
0.0
 40
0.6000000000000031
  0
CIRCLE
  5
405
330
1F
100
AcDbEntity
  8
PERCAGE_-_1_2MM
100
AcDbCircle
 10
42.6354414625
 20
15.4820799705
 30
0.0
 40
0.5999999999999963
  0
CIRCLE
  5
406
330
1F
100
AcDbEntity
  8
PERCAGE_-_1_2MM
100
AcDbCircle
 10
42.6354414625
 20
12.9420799705
 30
0.0
 40
0.5999999999999963
  0
CIRCLE
  5
407
330
1F
100
AcDbEntity
  8
PERCAGE_-_1_2MM
100
AcDbCircle
 10
38.8254414625
 20
12.9420799705
 30
0.0
 40
0.6000000000000031
  0
CIRCLE
  5
408
330
1F
100
AcDbEntity
  8
PERCAGE_-_1_2MM
100
AcDbCircle
 10
23.5854414625
 20
18.0220799705
 30
0.0
 40
0.5999999999999998
  0
CIRCLE
  5
409
330
1F
100
AcDbEntity
  8
PERCAGE_-_1_2MM
100
AcDbCircle
 10
19.7754414625
 20
18.0220799705
 30
0.0
 40
0.5999999999999998
  0
CIRCLE
  5
40A
330
1F
100
AcDbEntity
  8
PERCAGE_-_1_2MM
100
AcDbCircle
 10
19.7754414625
 20
20.5620799705
 30
0.0
 40
0.5999999999999998
  0
CIRCLE
  5
40B
330
1F
100
AcDbEntity
  8
PERCAGE_-_1_2MM
100
AcDbCircle
 10
23.5854414625
 20
20.5620799705
 30
0.0
 40
0.5999999999999998
  0
CIRCLE
  5
40C
330
1F
100
AcDbEntity
  8
PERCAGE_-_1_2MM
100
AcDbCircle
 10
15.9654414625
 20
18.0220799705
 30
0.0
 40
0.5999999999999998
  0
CIRCLE
  5
40D
330
1F
100
AcDbEntity
  8
PERCAGE_-_1_2MM
100
AcDbCircle
 10
13.4254414625
 20
18.0220799705
 30
0.0
 40
0.5999999999999981
  0
CIRCLE
  5
40E
330
1F
100
AcDbEntity
  8
PERCAGE_-_1_2MM
100
AcDbCircle
 10
10.8854414625
 20
18.0220799705
 30
0.0
 40
0.5999999999999963
  0
CIRCLE
  5
40F
330
1F
100
AcDbEntity
  8
PERCAGE_-_1_2MM
100
AcDbCircle
 10
8.3454414625
 20
18.0220799705
 30
0.0
 40
0.5999999999999963
  0
CIRCLE
  5
410
330
1F
100
AcDbEntity
  8
PERCAGE_-_1_2MM
100
AcDbCircle
 10
19.7754414625
 20
15.4820799705
 30
0.0
 40
0.5999999999999998
  0
CIRCLE
  5
411
330
1F
100
AcDbEntity
  8
PERCAGE_-_1_2MM
100
AcDbCircle
 10
23.5854414625
 20
15.4820799705
 30
0.0
 40
0.5999999999999998
  0
CIRCLE
  5
412
330
1F
100
AcDbEntity
  8
PERCAGE_-_1_2MM
100
AcDbCircle
 10
23.5854414625
 20
12.9420799705
 30
0.0
 40
0.5999999999999998
  0
CIRCLE
  5
413
330
1F
100
AcDbEntity
  8
PERCAGE_-_1_2MM
100
AcDbCircle
 10
19.7754414625
 20
12.9420799705
 30
0.0
 40
0.5999999999999998
  0
CIRCLE
  5
414
330
1F
100
AcDbEntity
  8
PERCAGE_-_1_2MM
100
AcDbCircle
 10
19.7754414625
 20
10.4020799705
 30
0.0
 40
0.6000000000000003
  0
CIRCLE
  5
415
330
1F
100
AcDbEntity
  8
PERCAGE_-_1_2MM
100
AcDbCircle
 10
23.5854414625
 20
10.4020799705
 30
0.0
 40
0.6000000000000003
  0
CIRCLE
  5
416
330
1F
100
AcDbEntity
  8
PERCAGE_-_1_2MM
100
AcDbCircle
 10
38.8254414625
 20
10.4020799705
 30
0.0
 40
0.6000000000000036
  0
CIRCLE
  5
417
330
1F
100
AcDbEntity
  8
PERCAGE_-_1_2MM
100
AcDbCircle
 10
42.6354414625
 20
10.4020799705
 30
0.0
 40
0.5999999999999969
  0
CIRCLE
  5
418
330
1F
100
AcDbEntity
  8
PERCAGE_-_1_6MM
100
AcDbCircle
 10
9.6408414625
 20
10.4020799705
 30
0.0
 40
0.9000000000000007
  0
CIRCLE
  5
419
330
1F
100
AcDbEntity
  8
PERCAGE_-_1_6MM
100
AcDbCircle
 10
14.6700414625
 20
10.4020799705
 30
0.0
 40
0.9000000000000041
  0
CIRCLE
  5
41A
330
1F
100
AcDbEntity
  8
FIXATION_-_M2
100
AcDbCircle
 10
8.3622351108
 20
28.1820799705
 30
0.0
 40
1.200000000000001
  0
CIRCLE
  5
41B
330
1F
100
AcDbEntity
  8
FIXATION_-_M2
100
AcDbCircle
 10
54.0362997188
 20
7.8724285023
 30
0.0
 40
1.2
  0
CIRCLE
  5
41C
330
1F
100
AcDbEntity
  8
FIXATION_-_M2
100
AcDbCircle
 10
54.0362997188
 20
53.5717314388
 30
0.0
 40
1.200000000000002
  0
CIRCLE
  5
41D
330
1F
100
AcDbEntity
  8
FIXATION_-_M2
100
AcDbCircle
 10
8.3644859278
 20
53.5496740573
 30
0.0
 40
1.200000000000002
  0
ENDSEC
  0
SECTION
  2
OBJECTS
  0
DICTIONARY
  5
C
330
0
100
AcDbDictionary
281
     1
  3
ACAD_GROUP
350
D
  3
ACAD_LAYOUT
350
1A
  3
ACAD_MLINESTYLE
350
17
  3
ACAD_PLOTSETTINGS
350
19
  3
ACAD_PLOTSTYLENAME
350
E
  3
ACAD_SCALELIST
350
47
  0
DICTIONARY
  5
D
102
{ACAD_REACTORS
330
C
102
}
330
C
100
AcDbDictionary
281
     1
  0
DICTIONARY
  5
1A
102
{ACAD_REACTORS
330
C
102
}
330
C
100
AcDbDictionary
281
     1
  3
Layout1
350
1E
  3
Layout2
350
26
  3
Model
350
22
  0
DICTIONARY
  5
17
102
{ACAD_REACTORS
330
C
102
}
330
C
100
AcDbDictionary
281
     1
  3
Standard
350
18
  0
DICTIONARY
  5
19
102
{ACAD_REACTORS
330
C
102
}
330
C
100
AcDbDictionary
281
     1
  0
ACDBDICTIONARYWDFLT
  5
E
102
{ACAD_REACTORS
330
C
102
}
330
C
100
AcDbDictionary
281
     1
  3
Normal
350
F
100
AcDbDictionaryWithDefault
340
F
  0
DICTIONARY
  5
47
102
{ACAD_REACTORS
330
C
102
}
330
C
100
AcDbDictionary
281
     1
  3
A0
350
48
  3
A1
350
49
  3
A2
350
4A
  3
A3
350
4B
  3
A4
350
4C
  3
A5
350
4D
  3
A6
350
4E
  3
A7
350
4F
  3
A8
350
50
  3
A9
350
51
  3
B0
350
52
  3
B1
350
53
  3
B2
350
54
  3
B3
350
55
  3
B4
350
56
  3
B5
350
57
  3
B6
350
58
  3
B7
350
59
  3
B8
350
5A
  3
B9
350
5B
  3
C0
350
5C
  3
C1
350
5D
  3
C2
350
5E
  3
C3
350
5F
  3
C4
350
60
  3
C5
350
61
  3
C6
350
62
  3
C7
350
63
  3
C8
350
64
  3
C9
350
65
  3
D0
350
66
  3
D1
350
67
  3
D2
350
68
  0
LAYOUT
  5
1E
102
{ACAD_REACTORS
330
1A
102
}
330
1A
100
AcDbPlotSettings
  1

  2
none_device
  4

  6

 40
0.0
 41
0.0
 42
0.0
 43
0.0
 44
0.0
 45
0.0
 46
0.0
 47
0.0
 48
0.0
 49
0.0
140
0.0
141
0.0
142
1.0
143
1.0
 70
   688
 72
     1
 73
     0
 74
     5
  7

 75
    16
147
1.0
148
0.0
149
0.0
100
AcDbLayout
  1
Layout1
 70
     1
 71
     1
 10
0.0
 20
0.0
 11
420.0
 21
297.0
 12
0.0
 22
0.0
 32
0.0
 14
1.0000000000E+20
 24
1.0000000000E+20
 34
1.0000000000E+20
 15
-1.0000000000E+20
 25
-1.0000000000E+20
 35
-1.0000000000E+20
146
0.0
 13
0.0
 23
0.0
 33
0.0
 16
1.0
 26
0.0
 36
0.0
 17
0.0
 27
1.0
 37
0.0
 76
     0
330
1B
  0
LAYOUT
  5
26
102
{ACAD_REACTORS
330
1A
102
}
330
1A
100
AcDbPlotSettings
  1

  2
none_device
  4

  6

 40
0.0
 41
0.0
 42
0.0
 43
0.0
 44
0.0
 45
0.0
 46
0.0
 47
0.0
 48
0.0
 49
0.0
140
0.0
141
0.0
142
1.0
143
1.0
 70
   688
 72
     1
 73
     0
 74
     5
  7

 75
    16
147
1.0
148
0.0
149
0.0
100
AcDbLayout
  1
Layout2
 70
     1
 71
     2
 10
0.0
 20
0.0
 11
0.0
 21
0.0
 12
0.0
 22
0.0
 32
0.0
 14
0.0
 24
0.0
 34
0.0
 15
0.0
 25
0.0
 35
0.0
146
0.0
 13
0.0
 23
0.0
 33
0.0
 16
1.0
 26
0.0
 36
0.0
 17
0.0
 27
1.0
 37
0.0
 76
     0
330
23
  0
LAYOUT
  5
22
102
{ACAD_REACTORS
330
1A
102
}
330
1A
100
AcDbPlotSettings
  1

  2
none_device
  4
Letter_(8.50_x_11.00_Inches)
  6

 40
6.35
 41
6.35
 42
6.35000508
 43
6.35000508
 44
215.9
 45
279.4
 46
0.0
 47
0.0
 48
0.0
 49
0.0
140
0.0
141
0.0
142
1.0
143
1.0
 70
  1712
 72
     1
 73
     0
 74
     0
  7

 75
     0
147
1.0
148
0.0
149
0.0
100
AcDbLayout
  1
Model
 70
     1
 71
     0
 10
0.0
 20
0.0
 11
300.0
 21
200.0
 12
0.0
 22
0.0
 32
0.0
 14
0.0
 24
0.0
 34
0.0
 15
300.0
 25
200.0
 35
0.0
146
0.0
 13
0.0
 23
0.0
 33
0.0
 16
1.0
 26
0.0
 36
0.0
 17
0.0
 27
1.0
 37
0.0
 76
     0
330
1F
331
29
  0
MLINESTYLE
  5
18
102
{ACAD_REACTORS
330
17
102
}
330
17
100
AcDbMlineStyle
  2
Standard
 70
     0
  3

 62
   256
 51
90.0
 52
90.0
 71
     2
 49
0.5
 62
   256
  6
BYLAYER
 49
-0.5
 62
   256
  6
BYLAYER
  0
ACDBPLACEHOLDER
  5
F
102
{ACAD_REACTORS
330
E
102
}
330
E
  0
SCALE
  5
48
102
{ACAD_REACTORS
330
47
102
}
330
47
100
AcDbScale
 70
     0
300
1:1
140
1.0
141
1.0
290
     1
  0
SCALE
  5
49
102
{ACAD_REACTORS
330
47
102
}
330
47
100
AcDbScale
 70
     0
300
1:2
140
1.0
141
2.0
290
     0
  0
SCALE
  5
4A
102
{ACAD_REACTORS
330
47
102
}
330
47
100
AcDbScale
 70
     0
300
1:4
140
1.0
141
4.0
290
     0
  0
SCALE
  5
4B
102
{ACAD_REACTORS
330
47
102
}
330
47
100
AcDbScale
 70
     0
300
1:5
140
1.0
141
5.0
290
     0
  0
SCALE
  5
4C
102
{ACAD_REACTORS
330
47
102
}
330
47
100
AcDbScale
 70
     0
300
1:8
140
1.0
141
8.0
290
     0
  0
SCALE
  5
4D
102
{ACAD_REACTORS
330
47
102
}
330
47
100
AcDbScale
 70
     0
300
1:10
140
1.0
141
10.0
290
     0
  0
SCALE
  5
4E
102
{ACAD_REACTORS
330
47
102
}
330
47
100
AcDbScale
 70
     0
300
1:16
140
1.0
141
16.0
290
     0
  0
SCALE
  5
4F
102
{ACAD_REACTORS
330
47
102
}
330
47
100
AcDbScale
 70
     0
300
1:20
140
1.0
141
20.0
290
     0
  0
SCALE
  5
50
102
{ACAD_REACTORS
330
47
102
}
330
47
100
AcDbScale
 70
     0
300
1:30
140
1.0
141
30.0
290
     0
  0
SCALE
  5
51
102
{ACAD_REACTORS
330
47
102
}
330
47
100
AcDbScale
 70
     0
300
1:40
140
1.0
141
40.0
290
     0
  0
SCALE
  5
52
102
{ACAD_REACTORS
330
47
102
}
330
47
100
AcDbScale
 70
     0
300
1:50
140
1.0
141
50.0
290
     0
  0
SCALE
  5
53
102
{ACAD_REACTORS
330
47
102
}
330
47
100
AcDbScale
 70
     0
300
1:100
140
1.0
141
100.0
290
     0
  0
SCALE
  5
54
102
{ACAD_REACTORS
330
47
102
}
330
47
100
AcDbScale
 70
     0
300
2:1
140
2.0
141
1.0
290
     0
  0
SCALE
  5
55
102
{ACAD_REACTORS
330
47
102
}
330
47
100
AcDbScale
 70
     0
300
4:1
140
4.0
141
1.0
290
     0
  0
SCALE
  5
56
102
{ACAD_REACTORS
330
47
102
}
330
47
100
AcDbScale
 70
     0
300
8:1
140
8.0
141
1.0
290
     0
  0
SCALE
  5
57
102
{ACAD_REACTORS
330
47
102
}
330
47
100
AcDbScale
 70
     0
300
10:1
140
10.0
141
1.0
290
     0
  0
SCALE
  5
58
102
{ACAD_REACTORS
330
47
102
}
330
47
100
AcDbScale
 70
     0
300
100:1
140
100.0
141
1.0
290
     0
  0
SCALE
  5
59
102
{ACAD_REACTORS
330
47
102
}
330
47
100
AcDbScale
 70
     0
300
1/128" = 1'-0"
140
0.0078125
141
12.0
290
     0
  0
SCALE
  5
5A
102
{ACAD_REACTORS
330
47
102
}
330
47
100
AcDbScale
 70
     0
300
1/64" = 1'-0"
140
0.015625
141
12.0
290
     0
  0
SCALE
  5
5B
102
{ACAD_REACTORS
330
47
102
}
330
47
100
AcDbScale
 70
     0
300
1/32" = 1'-0"
140
0.03125
141
12.0
290
     0
  0
SCALE
  5
5C
102
{ACAD_REACTORS
330
47
102
}
330
47
100
AcDbScale
 70
     0
300
1/16" = 1'-0"
140
0.0625
141
12.0
290
     0
  0
SCALE
  5
5D
102
{ACAD_REACTORS
330
47
102
}
330
47
100
AcDbScale
 70
     0
300
3/32" = 1'-0"
140
0.09375
141
12.0
290
     0
  0
SCALE
  5
5E
102
{ACAD_REACTORS
330
47
102
}
330
47
100
AcDbScale
 70
     0
300
1/8" = 1'-0"
140
0.125
141
12.0
290
     0
  0
SCALE
  5
5F
102
{ACAD_REACTORS
330
47
102
}
330
47
100
AcDbScale
 70
     0
300
3/16" = 1'-0"
140
0.1875
141
12.0
290
     0
  0
SCALE
  5
60
102
{ACAD_REACTORS
330
47
102
}
330
47
100
AcDbScale
 70
     0
300
1/4" = 1'-0"
140
0.25
141
12.0
290
     0
  0
SCALE
  5
61
102
{ACAD_REACTORS
330
47
102
}
330
47
100
AcDbScale
 70
     0
300
3/8" = 1'-0"
140
0.375
141
12.0
290
     0
  0
SCALE
  5
62
102
{ACAD_REACTORS
330
47
102
}
330
47
100
AcDbScale
 70
     0
300
1/2" = 1'-0"
140
0.5
141
12.0
290
     0
  0
SCALE
  5
63
102
{ACAD_REACTORS
330
47
102
}
330
47
100
AcDbScale
 70
     0
300
3/4" = 1'-0"
140
0.75
141
12.0
290
     0
  0
SCALE
  5
64
102
{ACAD_REACTORS
330
47
102
}
330
47
100
AcDbScale
 70
     0
300
1" = 1'-0"
140
1.0
141
12.0
290
     0
  0
SCALE
  5
65
102
{ACAD_REACTORS
330
47
102
}
330
47
100
AcDbScale
 70
     0
300
1-1/2" = 1'-0"
140
1.5
141
12.0
290
     0
  0
SCALE
  5
66
102
{ACAD_REACTORS
330
47
102
}
330
47
100
AcDbScale
 70
     0
300
3" = 1'-0"
140
3.0
141
12.0
290
     0
  0
SCALE
  5
67
102
{ACAD_REACTORS
330
47
102
}
330
47
100
AcDbScale
 70
     0
300
6" = 1'-0"
140
6.0
141
12.0
290
     0
  0
SCALE
  5
68
102
{ACAD_REACTORS
330
47
102
}
330
47
100
AcDbScale
 70
     0
300
1'-0" = 1'-0"
140
12.0
141
12.0
290
     0
  0
ENDSEC
  0
EOF
